<svg width="57" height="38" viewBox="0 0 57 38" fill="none" xmlns="http://www.w3.org/2000/svg">
	<rect x="1" y="3" width="54" height="33" fill="white"/>
	<path d="M23.6311 23.5537H23.6081L22.5811 26.7237H24.6241L23.6311 23.5537Z" fill="black"/>
	<path d="M16.2401 23.1328H14.3201V24.8848H16.2831C16.9431 24.8828 17.4671 24.6248 17.4671 23.9908C17.4671 23.3328 16.9981 23.1328 16.2401 23.1328Z" fill="black"/>
	<path d="M16.4511 26.2324H14.3201V28.3754H16.3731C17.1871 28.3754 17.6561 28.0164 17.6561 27.2034C17.6561 26.5004 17.0541 26.2324 16.4511 26.2324Z" fill="black"/>
	<path d="M55.026 0.939453H1.454C0.65 0.939453 0 1.59045 0 2.39345V36.0875C0 36.8905 0.65 37.5425 1.454 37.5425H55.026C55.83 37.5425 56.48 36.8915 56.48 36.0885V2.39345C56.48 1.59045 55.83 0.939453 55.026 0.939453ZM21.25 13.2085C21.283 12.8875 21.326 12.5415 21.447 12.1885C21.549 11.8315 21.639 11.4395 21.834 11.0745C21.92 10.8865 22.008 10.6935 22.1 10.4995C22.196 10.3075 22.329 10.1355 22.444 9.94845C22.67 9.56445 22.965 9.22645 23.266 8.88845C23.557 8.53545 23.917 8.26645 24.243 7.95545C24.602 7.70145 24.944 7.40745 25.311 7.20045C25.672 6.97245 26.027 6.76845 26.379 6.60045C26.725 6.41445 27.068 6.28745 27.381 6.14745C27.866 5.95845 28.295 5.81345 28.649 5.70945C28.501 5.34545 28.374 4.96645 28.28 4.56245C28.183 4.14645 28.099 3.72145 28.089 3.23845C28.553 3.36845 28.944 3.55845 29.323 3.75545C29.7 3.95545 30.044 4.17845 30.366 4.42045C31.016 4.89945 31.569 5.45245 32.071 6.04545C32.452 6.49545 32.485 7.12145 32.202 7.60045L32.143 7.69745C31.682 8.46945 31.133 9.18545 30.469 9.82745C30.141 10.1495 29.776 10.4505 29.377 10.7275C29.172 10.8635 28.96 10.9955 28.743 11.1225C28.518 11.2455 28.28 11.3585 28.02 11.4585C28.003 11.1805 28.006 10.9165 28.026 10.6615C28.052 10.4105 28.083 10.1645 28.122 9.92145C28.208 9.44345 28.331 8.98845 28.489 8.55445C28.505 8.50745 28.524 8.46345 28.542 8.41745C28.388 8.43545 28.228 8.45745 28.054 8.48245C27.782 8.54045 27.472 8.58045 27.163 8.67045C26.844 8.74245 26.52 8.84345 26.19 8.96345C25.844 9.06545 25.534 9.24145 25.182 9.38245C24.873 9.57345 24.516 9.73045 24.223 9.96345C23.916 10.1855 23.606 10.4105 23.352 10.6865C23.224 10.8195 23.073 10.9425 22.956 11.0865C22.845 11.2335 22.733 11.3805 22.624 11.5245C22.382 11.8035 22.233 12.1255 22.069 12.4255C21.889 12.7195 21.78 13.0255 21.686 13.3125C21.598 13.5995 21.471 13.8595 21.434 14.1045C21.387 14.3505 21.346 14.5635 21.313 14.7405C21.247 15.0985 21.208 15.3025 21.208 15.3025C21.208 15.3025 21.202 15.0955 21.19 14.7325C21.184 14.5495 21.178 14.3265 21.17 14.0705C21.154 13.8105 21.22 13.5285 21.25 13.2085ZM22.67 21.7475H24.6L27.424 29.7585H25.606L25.092 28.1085H22.135L21.576 29.7585H19.814L22.67 21.7475ZM16.05 31.7555H14.808V35.1325H13.953V31.7555H12.713V31.0285H16.051L16.05 31.7555ZM12.711 29.7585V21.7465H16.606C18.571 21.7465 19.073 22.9755 19.073 23.8015C19.073 24.9515 18.425 25.2745 18.091 25.4415C19.073 25.8095 19.329 26.5905 19.329 27.3815C19.329 28.0155 19.062 28.6205 18.638 29.0325C18.181 29.4805 17.746 29.7585 16.105 29.7585H12.711ZM19.05 35.1335C18.993 34.9415 18.96 34.7295 18.96 34.3055C18.96 33.7475 18.925 33.5295 18.29 33.5295H17.405V35.1335H16.563V31.0295H18.639C19.731 31.0295 19.93 31.8355 19.93 32.1895C19.93 32.6435 19.701 33.0305 19.295 33.1675C19.632 33.3155 19.816 33.4415 19.816 34.2075C19.816 34.8065 19.816 34.9565 19.998 35.0245L19.999 35.1335H19.05V35.1335ZM23.227 35.1325L22.963 34.2865H21.449L21.164 35.1325H20.26L21.723 31.0285H22.713L24.158 35.1325H23.227ZM28.015 35.1335H27.156L25.482 32.2075H25.47V35.1335H24.671V31.0295H25.573L27.204 33.8865H27.214V31.0295H28.015V35.1335ZM27.016 18.1405C27.176 18.5005 27.313 18.8765 27.42 19.2765C27.527 19.6895 27.625 20.1115 27.65 20.5925C27.179 20.4765 26.785 20.3015 26.402 20.1135C26.018 19.9255 25.666 19.7105 25.338 19.4805C24.676 19.0215 24.106 18.4845 23.586 17.9075C23.191 17.4695 23.138 16.8435 23.408 16.3565L23.465 16.2585C23.902 15.4735 24.429 14.7405 25.074 14.0795C25.392 13.7465 25.745 13.4355 26.138 13.1465C26.339 13.0045 26.544 12.8665 26.759 12.7335C26.98 12.6045 27.214 12.4825 27.472 12.3765C27.498 12.6525 27.502 12.9175 27.488 13.1725C27.471 13.4245 27.447 13.6715 27.416 13.9155C27.344 14.3975 27.235 14.8555 27.09 15.2935C27.074 15.3405 27.055 15.3845 27.041 15.4315C27.193 15.4085 27.353 15.3825 27.527 15.3515C27.797 15.2855 28.105 15.2375 28.41 15.1375C28.727 15.0565 29.05 14.9465 29.375 14.8155C29.718 14.7045 30.023 14.5185 30.369 14.3675C30.67 14.1665 31.027 14.0005 31.309 13.7585C31.611 13.5285 31.916 13.2935 32.158 13.0105C32.287 12.8725 32.433 12.7455 32.546 12.5995C32.652 12.4475 32.759 12.2975 32.863 12.1505C33.096 11.8635 33.236 11.5375 33.389 11.2335C33.56 10.9345 33.66 10.6255 33.744 10.3355C33.824 10.0455 33.943 9.78245 33.974 9.53645C34.013 9.28945 34.047 9.07445 34.074 8.89745C34.133 8.53845 34.164 8.33345 34.164 8.33345C34.164 8.33345 34.178 8.53945 34.199 8.90145C34.209 9.08445 34.222 9.30845 34.238 9.56345C34.261 9.82245 34.205 10.1075 34.185 10.4265C34.162 10.7465 34.128 11.0955 34.019 11.4515C33.928 11.8105 33.85 12.2055 33.665 12.5755C33.586 12.7665 33.502 12.9615 33.417 13.1585C33.325 13.3535 33.2 13.5305 33.09 13.7205C32.874 14.1115 32.592 14.4565 32.301 14.8035C32.02 15.1635 31.67 15.4455 31.352 15.7645C30.999 16.0295 30.665 16.3335 30.305 16.5515C29.952 16.7895 29.602 17.0045 29.256 17.1825C28.915 17.3795 28.576 17.5175 28.267 17.6655C27.789 17.8675 27.365 18.0255 27.016 18.1405ZM28.42 21.7475H30.183L33.364 27.3265H33.386V21.7475H34.948V29.7595H33.276L30.005 24.0465H29.983V29.7595H28.42V21.7475ZM30.386 35.2425C28.889 35.2425 28.633 34.3795 28.633 33.8705H29.453C29.459 34.0995 29.574 34.5335 30.324 34.5335C30.728 34.5335 31.181 34.4365 31.181 34.0025C31.181 33.6815 30.873 33.5965 30.437 33.4935L29.998 33.3895C29.334 33.2375 28.695 33.0885 28.695 32.1845C28.695 31.7275 28.939 30.9205 30.271 30.9205C31.529 30.9205 31.865 31.7435 31.871 32.2465H31.051C31.025 32.0655 30.959 31.6295 30.209 31.6295C29.885 31.6295 29.494 31.7495 29.494 32.1205C29.494 32.4425 29.758 32.5105 29.93 32.5495L30.928 32.7955C31.49 32.9315 32.004 33.1625 32.004 33.8995C32.004 35.1325 30.746 35.2425 30.386 35.2425ZM35.579 31.7555H33.517V32.6815H35.322V33.4075H33.517V35.1335H32.66V31.0295H35.579V31.7555V31.7555ZM39.271 35.1325H36.156V31.0285H39.174V31.7565H36.996V32.6185H38.996V33.3445H36.996V34.4075H39.271V35.1325ZM43.406 35.1335H42.459C42.402 34.9415 42.369 34.7295 42.369 34.3055C42.369 33.7475 42.332 33.5295 41.699 33.5295H40.814V35.1335H39.972V31.0295H42.046C43.138 31.0295 43.339 31.8355 43.339 32.1895C43.339 32.6435 43.107 33.0305 42.703 33.1675C43.039 33.3155 43.224 33.4415 43.224 34.2075C43.224 34.8065 43.224 34.9565 43.406 35.0245V35.1335V35.1335ZM43.768 29.7605H41.614L39.137 26.2445L38.356 27.0475V29.7605H36.682V21.7475H38.356V25.0065L41.415 21.7475H43.579L40.309 25.0275L43.768 29.7575V29.7605V29.7605Z" fill="black"/>
	<path d="M41.8809 31.7373H40.8159V32.8353H41.8199C42.2659 32.8353 42.4839 32.6813 42.4839 32.2743C42.4819 32.0573 42.3849 31.7373 41.8809 31.7373Z" fill="black"/>
	<path d="M22.213 31.9561H22.205L21.678 33.5781H22.725L22.213 31.9561Z" fill="black"/>
	<path d="M18.4721 31.7373H17.4041V32.8353H18.4081C18.8551 32.8353 19.0721 32.6813 19.0721 32.2743C19.0721 32.0573 18.9741 31.7373 18.4721 31.7373Z" fill="black"/>
</svg>
