<svg xmlns="http://www.w3.org/2000/svg" xmlns:xlink="http://www.w3.org/1999/xlink" width="107.883" height="101" viewBox="0 0 107.883 101">
  <defs>
    <linearGradient id="linear-gradient" x1="1.161" y1="0.584" x2="0.438" y2="0.584" gradientUnits="objectBoundingBox">
      <stop offset="0" stop-color="#a0bde6"/>
      <stop offset="1" stop-color="#e3edfc"/>
    </linearGradient>
    <radialGradient id="radial-gradient" cx="0.718" cy="0.154" r="0.967" gradientTransform="matrix(-1.638, 0.513, -1.235, -1.084, 2.084, -0.048)" gradientUnits="objectBoundingBox">
      <stop offset="0" stop-color="#64cf9b"/>
      <stop offset="1" stop-color="#adf9a9"/>
    </radialGradient>
    <linearGradient id="linear-gradient-2" x1="0.778" x2="0.5" y2="1" gradientUnits="objectBoundingBox">
      <stop offset="0" stop-color="#577fbe"/>
      <stop offset="1" stop-color="#a1b8e3"/>
    </linearGradient>
    <linearGradient id="linear-gradient-3" x1="0.75" y1="-0.426" x2="0.24" y2="1.224" gradientUnits="objectBoundingBox">
      <stop offset="0" stop-color="#577fbe"/>
      <stop offset="1" stop-color="#a1b8e3" stop-opacity="0.263"/>
    </linearGradient>
    <linearGradient id="linear-gradient-4" x1="1" y1="0.465" x2="-0.069" y2="0.387" gradientUnits="objectBoundingBox">
      <stop offset="0" stop-color="#0c1f63"/>
      <stop offset="0.563" stop-color="#102f7a"/>
      <stop offset="1" stop-color="#3861b6"/>
    </linearGradient>
    <linearGradient id="linear-gradient-5" x1="1" y1="0.733" x2="0.385" y2="0.288" gradientUnits="objectBoundingBox">
      <stop offset="0" stop-color="#294fa9"/>
      <stop offset="1" stop-color="#316eea"/>
    </linearGradient>
    <radialGradient id="radial-gradient-2" cx="0.2" cy="0" r="0.435" gradientTransform="matrix(-0.103, 0.993, -1.648, -0.226, 0.221, -0.198)" gradientUnits="objectBoundingBox">
      <stop offset="0" stop-color="#70b8f9"/>
      <stop offset="1" stop-color="#3d82f0"/>
    </radialGradient>
    <linearGradient id="linear-gradient-6" x1="0.5" y1="0.433" x2="0.5" y2="0.707" gradientUnits="objectBoundingBox">
      <stop offset="0" stop-color="#6886b3"/>
      <stop offset="1" stop-color="#90aadb"/>
    </linearGradient>
    <linearGradient id="linear-gradient-7" x1="-0.146" y1="0.392" x2="0.42" y2="0.577" gradientUnits="objectBoundingBox">
      <stop offset="0" stop-color="#cfddf3"/>
      <stop offset="1" stop-color="#a1b8e3"/>
    </linearGradient>
    <linearGradient id="linear-gradient-8" x1="0.856" y1="0.725" x2="0.225" y2="0.652" gradientUnits="objectBoundingBox">
      <stop offset="0" stop-color="#072246"/>
      <stop offset="1" stop-color="#143b8c"/>
    </linearGradient>
    <radialGradient id="radial-gradient-3" cx="0" cy="0.119" r="0.511" gradientTransform="matrix(2.162, -0.193, 0.442, 1.016, -0.053, -0.002)" gradientUnits="objectBoundingBox">
      <stop offset="0" stop-color="#2d6dc0"/>
      <stop offset="1" stop-color="#143b8c"/>
    </radialGradient>
    <linearGradient id="linear-gradient-9" x1="0.188" y1="0.071" x2="0.188" y2="0.404" gradientUnits="objectBoundingBox">
      <stop offset="0" stop-color="#f4f8ff"/>
      <stop offset="1" stop-color="#e5effd"/>
    </linearGradient>
    <linearGradient id="linear-gradient-10" x1="0.5" y1="0.5" x2="0.5" y2="1" gradientUnits="objectBoundingBox">
      <stop offset="0" stop-color="#18407e"/>
      <stop offset="1" stop-color="#90aadb"/>
    </linearGradient>
    <linearGradient id="linear-gradient-11" x1="0.353" y1="1" x2="0.575" y2="0.361" gradientUnits="objectBoundingBox">
      <stop offset="0" stop-color="#577fbe"/>
      <stop offset="1" stop-color="#b1c9f7"/>
    </linearGradient>
    <linearGradient id="linear-gradient-12" x1="0.5" x2="0.5" y2="1" gradientUnits="objectBoundingBox">
      <stop offset="0" stop-color="#a9c4e5"/>
      <stop offset="1" stop-color="#7192c7"/>
    </linearGradient>
    <radialGradient id="radial-gradient-4" cx="0.2" cy="0" r="0.435" gradientTransform="matrix(-0.107, 0.992, -1.558, -0.238, 0.221, -0.198)" xlink:href="#radial-gradient-2"/>
    <linearGradient id="linear-gradient-14" x1="0.648" y1="0.274" y2="0.5" xlink:href="#linear-gradient-6"/>
    <linearGradient id="linear-gradient-17" x1="1" y1="0.13" x2="0.363" y2="0.388" gradientUnits="objectBoundingBox">
      <stop offset="0" stop-color="#2664c7"/>
      <stop offset="1" stop-color="#3d82f0"/>
    </linearGradient>
    <linearGradient id="linear-gradient-18" x1="0.5" x2="0.5" y2="1" gradientUnits="objectBoundingBox">
      <stop offset="0" stop-color="#75a8d6"/>
      <stop offset="1" stop-color="#92a8ca" stop-opacity="0"/>
    </linearGradient>
    <linearGradient id="linear-gradient-19" x1="0.828" y1="-0.496" x2="0.261" y2="1.832" xlink:href="#linear-gradient-18"/>
    <linearGradient id="linear-gradient-22" x1="0.664" y1="0.968" x2="0.607" y2="0.226" gradientUnits="objectBoundingBox">
      <stop offset="0" stop-color="#f4f8ff"/>
      <stop offset="1" stop-color="#c3d8f5"/>
    </linearGradient>
    <linearGradient id="linear-gradient-23" x1="0.436" y1="0.853" x2="0.068" y2="1" gradientUnits="objectBoundingBox">
      <stop offset="0" stop-color="#fff" stop-opacity="0.502"/>
      <stop offset="1" stop-color="#afc3e5"/>
    </linearGradient>
    <linearGradient id="linear-gradient-24" x1="0.172" y1="0.415" x2="-0.056" y2="0.14" gradientUnits="objectBoundingBox">
      <stop offset="0" stop-color="#fff" stop-opacity="0"/>
      <stop offset="1" stop-color="#a1b8e3"/>
    </linearGradient>
    <linearGradient id="linear-gradient-25" x1="-0.302" y1="0.838" x2="0.837" y2="0.732" gradientUnits="objectBoundingBox">
      <stop offset="0" stop-color="#eaf0f7" stop-opacity="0.118"/>
      <stop offset="1" stop-color="#d1dded"/>
    </linearGradient>
    <linearGradient id="linear-gradient-26" y1="0.561" x2="0.576" y2="0.206" gradientUnits="objectBoundingBox">
      <stop offset="0" stop-color="#e2e9f4"/>
      <stop offset="1" stop-color="#e5effd"/>
    </linearGradient>
    <linearGradient id="linear-gradient-27" x1="0.316" y1="0.43" x2="-0.17" y2="0.614" gradientUnits="objectBoundingBox">
      <stop offset="0" stop-color="#fff" stop-opacity="0"/>
      <stop offset="1" stop-color="#fff"/>
    </linearGradient>
    <linearGradient id="linear-gradient-28" x1="0.34" y1="1" x2="0.575" y2="0.361" xlink:href="#linear-gradient-2"/>
    <linearGradient id="linear-gradient-29" x1="0.732" y1="0.159" x2="0.598" y2="0.5" gradientUnits="objectBoundingBox">
      <stop offset="0" stop-color="#fff" stop-opacity="0.502"/>
      <stop offset="1" stop-color="#a1b8e3" stop-opacity="0"/>
    </linearGradient>
    <linearGradient id="linear-gradient-30" x1="0.5" x2="0.5" y2="1" gradientUnits="objectBoundingBox">
      <stop offset="0" stop-color="#b5ccef"/>
      <stop offset="1" stop-color="#e5effd"/>
    </linearGradient>
    <linearGradient id="linear-gradient-31" x1="0.296" y1="0.615" x2="0.5" y2="0.28" gradientTransform="matrix(1, 0, 0, 1, 0, 0)" xlink:href="#radial-gradient-3"/>
    <linearGradient id="linear-gradient-32" x1="1" y1="0.746" x2="0.808" y2="0.593" gradientUnits="objectBoundingBox">
      <stop offset="0" stop-color="#ff7f31"/>
      <stop offset="1" stop-color="#ffd25f"/>
    </linearGradient>
    <linearGradient id="linear-gradient-33" x1="0.283" y1="0.761" x2="1.28" y2="0.473" xlink:href="#linear-gradient-32"/>
    <linearGradient id="linear-gradient-34" x1="1" y1="0.785" x2="0.5" y2="0.111" gradientUnits="objectBoundingBox">
      <stop offset="0" stop-color="#ff7f31"/>
      <stop offset="1" stop-color="#ffc83a"/>
    </linearGradient>
    <linearGradient id="linear-gradient-35" x1="0.575" y1="1.179" x2="0.575" y2="0.361" xlink:href="#linear-gradient-2"/>
  </defs>
  <g id="Image_here" data-name="Image here" transform="translate(-0.02 -15.051)">
    <g id="Group_2571" data-name="Group 2571" transform="translate(0.02 22.666)">
      <g id="Group_2568" data-name="Group 2568" transform="translate(24.582 18.208)" opacity="0.8">
        <g id="Group_2567" data-name="Group 2567" transform="translate(0 0)">
          <path id="Path_2456" data-name="Path 2456" d="M10.105,32.271c2.955-1.027,8.533-2.585,4.416-9.112-1.621-2.569,1.16-5.572-.447-7.733-1.738-2.338-4.045-3.352-2.909-5.707,1.124-2.332,1.271-5.115-.28-6.083-2.8-1.75-5.22,1.783-8.035,5.339a6.268,6.268,0,0,0-.8,6.219c.752,2.088,4.076,4.818,3.384,7.1s-4.417,4.182-2.376,7.874c1.26,2.281,4.651,2.934,7.05,2.1Z" transform="translate(-1.574 -3.174)" fill="url(#linear-gradient)"/>
          <path id="Path_2457" data-name="Path 2457" d="M10.105,32.271c2.955-1.027,8.533-2.585,4.416-9.112-1.621-2.569,1.16-5.572-.447-7.733-1.738-2.338-4.045-3.352-2.909-5.707,1.124-2.332,1.271-5.115-.28-6.083-2.8-1.75-5.22,1.783-8.035,5.339a6.268,6.268,0,0,0-.8,6.219c.752,2.088,4.076,4.818,3.384,7.1s-4.417,4.182-2.376,7.874c1.26,2.281,4.651,2.934,7.05,2.1Z" transform="translate(-1.574 -3.174)"/>
        </g>
        <path id="Path_2458" data-name="Path 2458" stroke="#707070" d="M16.742,40.629c.608-4.172-3.208-6.633-.868-10.891,2.224-4.048,1.713-8.147-.469-10.371-1.835-1.87-1.2-6.36-.252-9.726" fill="none" transform="translate(-8.36 -6.642)" stroke-linecap="round" stroke-linejoin="round" stroke-width="1.39" fill-rule="evenodd"/>
        <path id="Path_2459" data-name="Path 2459" stroke-linecap="round" d="M16.834,43.513a7.087,7.087,0,0,1-2.68-1.878" fill="none" stroke="#707070" transform="translate(-8.318 -23.794)" stroke-linejoin="round" stroke-width="1.39" fill-rule="evenodd" opacity="0.402"/>
        <path id="Path_2460" data-name="Path 2460" stroke-linecap="round" d="M12.108,39.762c1.143.083,4.453-1.126,4.824-2.414M11.438,25.814a7.987,7.987,0,0,1-3.35-2.683" fill="none" stroke="#707070" transform="translate(-5.066 -13.873)" stroke-linejoin="round" stroke-width="1.39" fill-rule="evenodd" opacity="0.402"/>
      </g>
      <g id="Group_2570" data-name="Group 2570" transform="translate(0 0)">
        <g id="Group_2569" data-name="Group 2569">
          <path id="Path_2461" data-name="Path 2461" d="M18.2,51.4C14.461,50.419,3.422,45.672,6.65,40.115s6.456-7.156,3.228-9.695-.935-8.187,2.257-10.511S7.769,10.66,11.23,7s14.529,2,14.785,8.924,2.831,6.448,4.139,9.576S22.4,33.319,23.723,36.717s9.05,6.943,4.525,11.521S21.945,52.383,18.2,51.4Z" transform="translate(-6.066 -5.846)" fill="url(#radial-gradient)"/>
          <path id="Path_2462" data-name="Path 2462" d="M18.2,51.4C14.461,50.419,3.422,45.672,6.65,40.115s6.456-7.156,3.228-9.695-.935-8.187,2.257-10.511S7.769,10.66,11.23,7s14.529,2,14.785,8.924,2.831,6.448,4.139,9.576S22.4,33.319,23.723,36.717s9.05,6.943,4.525,11.521S21.945,52.383,18.2,51.4Z" transform="translate(-6.066 -5.846)"/>
        </g>
        <path id="Path_2463" data-name="Path 2463" stroke="#707070" d="M29.8,66.185c.437-7.834-7.632-11.1-1.893-22.129a26.192,26.192,0,0,0,0-24.176" fill="none" transform="translate(-16.664 -13.37)" stroke-linecap="round" stroke-linejoin="round" stroke-width="1.668" fill-rule="evenodd"/>
        <path id="Path_2464" data-name="Path 2464" stroke-linecap="round" d="M23.928,40.35a8.351,8.351,0,0,1-3.752-3.89m.67,18.106c-1.554-.644-4.733-2.412-4.958-5.1m5.494-1.475c1.4.394,3.473.035,5.226-2.549M25.268,28.01a8.825,8.825,0,0,0,2.546-6.035" fill="none" stroke="#707070" transform="translate(-11.332 -14.493)" stroke-linejoin="round" stroke-width="1.39" fill-rule="evenodd" opacity="0.3"/>
      </g>
    </g>
    <g id="Group_2572" data-name="Group 2572" transform="translate(13.509 18.659)" opacity="0.11">
      <path id="Path_2465" data-name="Path 2465" d="M79.653,74.324c-.176-5.053-13.331-3.915-18.405-3.427s-5.535-6.435-1.157-7.464,12.318-.5,16.431-1.448-1.09-6.044,4.515-6.658,17.2-.045,20.65-.17c5.427-.2,8.212,6.344-1.3,6.641-2.622.082-3.148,5.891,5.7,4.3,5.554-1,16.452-1.024,18.719,1.533,1.3,1.467.85,5.408-1.387,7.584-1.661,1.617-6.944,1.932-9.013,2.306-4.855.877-3.9,5.582-2.24,6.551,3.917,2.293,14.669-2.034,14.957,4.262.127,2.782-9.655,3.231-13.666,3.2-9.838-.083-16.3.794-16.755-2.565s6.113-1.1,5.789-5.242c-.169-2.166.284-6.769-3.93-6.528,5.77-.331-18.678,3.96-18.915-2.866Z" transform="translate(-57.098 -55.035)" fill="#9cb4e0"/>
    </g>
    <g id="Group_2574" data-name="Group 2574" transform="translate(38.705 78.508)">
      <g id="Group_2573" data-name="Group 2573" transform="translate(0)" opacity="0.11">
        <path id="Path_2467" data-name="Path 2467" d="M74.734,26.076c.013-5.056-13.175-4.411-18.264-4.115s-5.291-6.638-.877-7.5,12.327-.036,16.474-.831S71.2,7.546,76.829,7.143s17.185.6,20.642.6c5.431.007,7.968,6.647-1.545,6.587-2.623-.016-3.366,5.77,5.539,4.507,5.587-.793,16.478-.407,18.648,2.233,1.245,1.515.647,5.437-1.669,7.528-1.72,1.553-7.011,1.67-9.093,1.966-4.885.694-4.1,5.432-2.483,6.462,3.829,2.438,14.735-1.483,14.787,4.819.023,2.785-9.769,2.867-13.776,2.683-9.828-.452-16.32.183-16.648-3.191s6.15-.866,5.982-5.021c-.088-2.171.537-6.754-3.683-6.671,5.778-.115-18.813,3.256-18.8-3.573Z" transform="translate(-52.456 -7.048)" fill="#9cb4e0"/>
      </g>
    </g>
    <g id="Group_2587" data-name="Group 2587" transform="translate(8.094 15.051)">
      <g id="Group_2578" data-name="Group 2578" transform="translate(0 10.621)">
        <g id="Group_2575" data-name="Group 2575" transform="translate(34.707 40.341)">
          <path id="Path_2469" data-name="Path 2469" d="M1.2,2.109a8.914,8.914,0,0,1-.249,2.81C.7,5.761,6.718,9.075,13.64,5.861a11.633,11.633,0,0,1,.424-3.483C14.248,1.665,1.717,1.1,1.2,2.11Z" transform="translate(-0.945 -1.564)" fill="url(#linear-gradient-2)"/>
          <path id="Path_2470" data-name="Path 2470" d="M2.906,3.649c.525.559,7.924,3.461,11.775,2.307q3.85-1.154,0-2.307-12.3-.559-11.774,0Z" transform="translate(-1.985 -2.532)" fill-rule="evenodd" opacity="0.5" fill="url(#linear-gradient-3)"/>
        </g>
        <path id="Path_2471" data-name="Path 2471" d="M66.9,95.076c1.284,1.417,7.933,2.123,12.5.758,3.591,4.331,1.892,8.877-.078,23,.268,5.28-.268,10.1-.536,16.627a2.99,2.99,0,0,1-2.867.31c-.706-5-1.883-5.977-2.848-16.273-.5-3.514-.988-14.275-.988-14.275A97.89,97.89,0,0,0,64.994,117.8c2.444,3.948,1.032,8.967,3.4,15.428a2.48,2.48,0,0,1-2.86.9,102.963,102.963,0,0,1-6.4-15.576c0-2.786.51-10.138,7.773-23.472Z" transform="translate(-32.137 -51.594)" fill-rule="evenodd" fill="url(#linear-gradient-4)"/>
        <path id="Path_2472" data-name="Path 2472" d="M88.724,4.776a16.8,16.8,0,0,1,4.09-3.428c3.39-.237,7.2,4.01,7.094,6.027s-1.34,2.777-2.565,3.548S88.724,4.776,88.724,4.776Z" transform="translate(-48.003 -1.338)" fill-rule="evenodd" fill="url(#linear-gradient-5)"/>
        <path id="Path_2473" data-name="Path 2473" d="M80.478,15.682c6.287,2.934,8.625,4.188,10.757,1.811s.445-8.266-5.085-12.046S75.533,2,74.145,4.982,74.19,12.748,80.478,15.682Z" transform="translate(-39.927 -2.058)" fill-rule="evenodd" fill="url(#radial-gradient-2)"/>
        <path id="Path_2474" data-name="Path 2474" d="M84.1,41.149c.757-2.071,2.6-4.643,2.37-6.533s5.631-4.977,5.423-3.659-.6,8.744.992,9.467-9.543,2.8-8.786.725Z" transform="translate(-45.502 -17.047)" fill-rule="evenodd" fill="url(#linear-gradient-6)"/>
        <path id="Path_2475" data-name="Path 2475" d="M85.8,11.679c-1.8.946-3.933,1.81-3.39,6.329s.45,5.674,2.44,7.4c1.34,0,3.094.542,4.415-1.22.217-.289.747-2.8,1.007-2.878a1.228,1.228,0,0,0,.86-.812,4.872,4.872,0,0,0,0-3.509C90.672,16,87.6,10.732,85.8,11.679Z" transform="translate(-44.573 -6.822)" fill-rule="evenodd" fill="url(#linear-gradient-7)"/>
        <path id="Path_2476" data-name="Path 2476" d="M84.431,12.052c-1.4.506-3.575,1.517-2.936,6s1.5,6.1,2.936,7.007-1.809,4.258-2.026,5.664-2.006-2.241-1.98-3.753.013-2.987,0-5.732S79.7,14.5,82.04,12.519s3.786-.973,2.391-.467Z" transform="translate(-43.495 -6.702)" fill-rule="evenodd" fill="url(#linear-gradient-8)"/>
        <path id="Path_2477" data-name="Path 2477" d="M86.24,12.211c.473.377-.106,1.315.88,2.992a4.184,4.184,0,0,0,4.861,2.363c1.337-.212-.118,4.178-1.4,6.17s-2.261,5.343-.386,8.318a7.326,7.326,0,0,0,5.323-1.88V20.692c0-5.211-2.99-8.054-4.937-8.983S85.346,11.5,86.24,12.211Z" transform="translate(-46.591 -6.662)" fill-rule="evenodd" fill="url(#radial-gradient-3)"/>
        <g id="Group_2576" data-name="Group 2576" transform="translate(25.961 17.754)">
          <path id="Path_2478" data-name="Path 2478" d="M56.906,39.612s5.634,2.185,9.1,3.173,2.608,3.273,5.677,3.4,6.281.36,7.364-2.411,5.222.781,4.721,3.12c-.182.852-1.071,4.687-1.339,7.113-.469,4.241-2.3,7.837-2.6,9.311-.478,2.317-14.375,1.879-14.088-1.31A38.565,38.565,0,0,0,64.4,50.528c-.456-.538-4.507-1.6-7.494-2.379Z" transform="translate(-56.906 -39.612)" fill="url(#linear-gradient-9)"/>
          <path id="Path_2479" data-name="Path 2479" d="M56.906,39.612s5.634,2.185,9.1,3.173,2.608,3.273,5.677,3.4,6.281.36,7.364-2.411,5.222.781,4.721,3.12c-.182.852-1.071,4.687-1.339,7.113-.469,4.241-2.3,7.837-2.6,9.311-.478,2.317-14.375,1.879-14.088-1.31A38.565,38.565,0,0,0,64.4,50.528c-.456-.538-4.507-1.6-7.494-2.379Z" transform="translate(-56.906 -39.612)"/>
        </g>
        <path id="Path_2480" data-name="Path 2480" d="M54.759,48.2c.888,0,1.608-.906,1.608-3.638s-.72-4.946-1.608-4.946-1.608,2.214-1.608,4.946S53.871,48.2,54.759,48.2Z" transform="translate(-28.932 -21.858)" fill-rule="evenodd" fill="url(#linear-gradient-10)"/>
        <g id="Group_2577" data-name="Group 2577" transform="translate(7.893 12.802)">
          <path id="Path_2481" data-name="Path 2481" d="M20.725,12.8c-1.87-.405-6.863-2.452-7.346-2.509S9.7,8.68,7.484,7.791s-4.4-3.4-5.537-3.7-1.094-2.957.972-2.2,4.3,1.386,6.115,1.973,3.247,1.571,5.072,1.705a29.35,29.35,0,0,1,5.259,1.16c1.361,1.059,1.567,4.516,1.361,6.065Z" transform="translate(-1.202 -1.758)" fill="url(#linear-gradient-11)"/>
          <path id="Path_2482" data-name="Path 2482" d="M38.061,12.55q-.831,4.631-1.971,5.565T41.6,19.521Z" transform="translate(-19.817 -7.544)" fill-rule="evenodd" fill="url(#linear-gradient-12)"/>
        </g>
        <path id="Path_2483" data-name="Path 2483" d="M17.908,80.773a9.105,9.105,0,0,0-1.879.412,10.358,10.358,0,0,0-1.4,1.479c-.127.174-.952,1.08-.821,1.309a.539.539,0,0,0,.87-.16c.2-.4.353-.394.575-.707.311-.066,1.164-.7,1.409-.724a19.689,19.689,0,0,1,2.314.743s1.162-.333.721-1.284A2.338,2.338,0,0,0,17.908,80.773Z" transform="translate(-12.932 -69.633)" fill="#90aadb" fill-rule="evenodd"/>
        <path id="Path_2484" data-name="Path 2484" d="M19.372,83.293a11.45,11.45,0,0,1-2.129.028c-.336-.081-1.095-.04-1.039.485s.772.572,1.155.621a6.562,6.562,0,0,1,1.5.344,6.426,6.426,0,0,0,2.6.206,4.51,4.51,0,0,1,1.771,0c.261.085.933-1.8.556-2.479a34.723,34.723,0,0,1-3.517-1.826c-.164-.019-1.156,1.019-.593,1.674a.535.535,0,0,1-.3.948Z" transform="translate(-14.224 -69.578)" fill="#a1b8e3" fill-rule="evenodd"/>
        <path id="Path_2485" data-name="Path 2485" d="M13.112,78.554c-.81-.219-1.371-.662-1.105-1.155s.608-.056.993.084a21.374,21.374,0,0,0,2.565.535,7.262,7.262,0,0,1,1.29.387c.577.218,1.028.136,1.133.282.2.277.53,2.169-.429,1.753a7.332,7.332,0,0,1-1.7-1.181A11.023,11.023,0,0,0,13.112,78.554Z" transform="translate(-11.94 -67.702)" fill="#a1b8e3" fill-rule="evenodd"/>
      </g>
      <g id="Group_2586" data-name="Group 2586" transform="translate(31.666 0)">
        <path id="Path_2486" data-name="Path 2486" d="M67.385,6.786s1.449-3.458,3.369-4.827c3.322-.707,6.53,2.656,7.091,4.475s-.592,3.663-1.7,4.6-8.763-4.244-8.763-4.244Z" transform="translate(-36.338 -1.863)" fill-rule="evenodd" fill="url(#linear-gradient-5)"/>
        <path id="Path_2487" data-name="Path 2487" d="M61.6,17.265c6.286,2.934,8.2,2.811,10.333.434s.867-6.89-4.661-10.67-10.614-3.441-12-.462.045,7.765,6.33,10.7Z" transform="translate(-29.584 -3.15)" fill-rule="evenodd" fill="url(#radial-gradient-4)"/>
        <g id="Group_2579" data-name="Group 2579" transform="translate(30.462 13.396)">
          <path id="Path_2488" data-name="Path 2488" d="M6.935,2.956c0,1-.432,4.579,0,5.652.147.364-.137,1.085,0,1.372.505,1.064-2.4,3.52-2.4,3.52l-.886,7.879H.578S1.269,14.2.936,13.5a8.694,8.694,0,0,1-.358-3.155c0-1.191,0-3.6.731-4.681S6.935,1.582,6.935,2.956Z" transform="translate(-0.163 -0.499)" fill="url(#linear-gradient-14)"/>
          <path id="Path_2489" data-name="Path 2489" d="M1.44,5.7q.375.15.754.29c4.591,1.7,5.877.982,5.877-.29A48.893,48.893,0,0,0,6.459-1.931Q-3.766,3.629,1.44,5.7Z" transform="translate(0.316 1.931)" fill-rule="evenodd" opacity="0.153" fill="url(#linear-gradient-12)"/>
        </g>
        <path id="Path_2490" data-name="Path 2490" d="M62.648,14.039c-.638,1.627-1.318,2.451-1,4.495a5.083,5.083,0,0,1-.182,2.983,7.973,7.973,0,0,0,.1,4.154c.54,2.129.875,3.618,2.615,3.611s3.982-.385,4.72-1.7a5.472,5.472,0,0,0,.629-1.651,6.176,6.176,0,0,0,.262-1.82.774.774,0,0,0,1.231.382,3.122,3.122,0,0,0,.927-2.08c.081-1.652-.463-5.48-2.353-6.113s-6.312-3.89-6.95-2.263Z" transform="translate(-33.043 -8.15)" fill-rule="evenodd" fill="url(#linear-gradient-7)"/>
        <g id="Group_2580" data-name="Group 2580" transform="translate(23.339 55.483)">
          <path id="Path_2491" data-name="Path 2491" d="M18.481,3.374a26.214,26.214,0,0,1,1.734,8.148C20.158,14.355,19.64,32.153,18.9,46.6a7.391,7.391,0,0,1-5.162-.06c-1.276-11.347-3.379-33.652-3.379-33.652-.428,3.8-3.766,31.775-3.766,32.886s-3.327,1.37-4.462.609C1.784,33.614.356,9.911.356,9.911L1.784,3.123s16.139-1.251,16.7.251Z" transform="translate(-0.356 -2.635)" fill="url(#linear-gradient-17)"/>
          <path id="Path_2492" data-name="Path 2492" d="M16.664,62.564c-1.92-6.578,0-26.74,3.382-29.414,1.484,1.488-1.461,35.992-3.382,29.414Z" transform="translate(-10.233 -18.995)" fill-rule="evenodd" fill="url(#linear-gradient-18)"/>
          <path id="Path_2493" data-name="Path 2493" d="M9.3,8.068c.3.1,1.519,1.661,1.848,1.768,4.008,1.312,8.893,1.406,14.265.4q5.814-1.085,1.345-4.893Q5.3,6.709,9.3,8.068Z" transform="translate(-6.358 -4.088)" fill-rule="evenodd" fill="url(#linear-gradient-19)"/>
        </g>
        <g id="Group_2581" data-name="Group 2581" transform="translate(18.98 52.24)">
          <path id="Path_2494" data-name="Path 2494" d="M3.492,13.168c.486-1.443.168-3.434,1.315-3.575-.741-1.792.622-7.955.622-7.955S-.531-.946.113.991s1.393,8.726,2.11,10.058.783,3.561,1.269,2.119Z" transform="translate(-0.064 -0.271)" fill="url(#linear-gradient-2)"/>
          <path id="Path_2495" data-name="Path 2495" d="M8.232,12.159c-1.424-1.82-3.393-3.114-3.393-5.73a5.057,5.057,0,0,1,1.7-4.065q3.121,11.616,1.7,9.8Z" transform="translate(-2.624 -1.392)" fill-rule="evenodd" opacity="0.3" fill="url(#linear-gradient-12)"/>
        </g>
        <g id="Group_2582" data-name="Group 2582" transform="translate(20.827 22.876)">
          <path id="Path_2496" data-name="Path 2496" d="M10,1.357A21.961,21.961,0,0,1,6.893,3.5C6.275,3.67,2.257,5.339,2.02,5.851S.537,8.294.579,8.816,2.242,20.833,2.02,26.258a39.067,39.067,0,0,0,0,5.967c0,1.28-.941,3.03-.47,3.993s1.279,1.189,2.51,1.464a5.835,5.835,0,0,0,3.871,0c1.752-.6,2.732.762,5.628.381s5.383.821,7.563-2.1c.8.517,1.217.176,2.5-.543s1.181-3.28.8-4.167-2.1-1.82-1.45-3.8a58.438,58.438,0,0,0,1.45-11.545c0-2.975,1.749-8.342,2.292-10.066A71.944,71.944,0,0,0,17.144.578c-.5,1.339-2.938,2.012-3.339,1.656s-.163,2.519-.163,2.519S13.16,5.85,12.708,7s-1.493,2.958-1.493,4.2c-.951-.959.206-3.723,0-4.794-.237-1.232.237-2.4.758-4.013-.758-.178-.825.126-1.059-.2C10.3,1.357,10,1.357,10,1.357Z" transform="translate(-0.578 -0.578)" fill="url(#linear-gradient-22)"/>
          <path id="Path_2497" data-name="Path 2497" d="M10,1.357A21.961,21.961,0,0,1,6.893,3.5C6.275,3.67,2.257,5.339,2.02,5.851S.537,8.294.579,8.816,2.242,20.833,2.02,26.258a39.067,39.067,0,0,0,0,5.967c0,1.28-.941,3.03-.47,3.993s1.279,1.189,2.51,1.464a5.835,5.835,0,0,0,3.871,0c1.752-.6,2.732.762,5.628.381s5.383.821,7.563-2.1c.8.517,1.217.176,2.5-.543s1.181-3.28.8-4.167-2.1-1.82-1.45-3.8a58.438,58.438,0,0,0,1.45-11.545c0-2.975,1.749-8.342,2.292-10.066A71.944,71.944,0,0,0,17.144.578c-.5,1.339-2.938,2.012-3.339,1.656s-.163,2.519-.163,2.519S13.16,5.85,12.708,7s-1.493,2.958-1.493,4.2c-.951-.959.206-3.723,0-4.794-.237-1.232.237-2.4.758-4.013-.758-.178-.825.126-1.059-.2C10.3,1.357,10,1.357,10,1.357Z" transform="translate(-0.578 -0.578)" fill="url(#linear-gradient-23)"/>
          <path id="Path_2498" data-name="Path 2498" d="M10,1.357A21.961,21.961,0,0,1,6.893,3.5C6.275,3.67,2.257,5.339,2.02,5.851S.537,8.294.579,8.816,2.242,20.833,2.02,26.258a39.067,39.067,0,0,0,0,5.967c0,1.28-.941,3.03-.47,3.993s1.279,1.189,2.51,1.464a5.835,5.835,0,0,0,3.871,0c1.752-.6,2.732.762,5.628.381s5.383.821,7.563-2.1c.8.517,1.217.176,2.5-.543s1.181-3.28.8-4.167-2.1-1.82-1.45-3.8a58.438,58.438,0,0,0,1.45-11.545c0-2.975,1.749-8.342,2.292-10.066A71.944,71.944,0,0,0,17.144.578c-.5,1.339-2.938,2.012-3.339,1.656s-.163,2.519-.163,2.519S13.16,5.85,12.708,7s-1.493,2.958-1.493,4.2c-.951-.959.206-3.723,0-4.794-.237-1.232.237-2.4.758-4.013-.758-.178-.825.126-1.059-.2C10.3,1.357,10,1.357,10,1.357Z" transform="translate(-0.578 -0.578)" fill="url(#linear-gradient-24)"/>
          <path id="Path_2499" data-name="Path 2499" d="M20.279,32.417a35.852,35.852,0,0,0,.712-6.184l-.513.028ZM19.687,51.3c-.731-2.194-1.053-12.883-.411-16.225a55.484,55.484,0,0,0,1.2-8.767l.513-.028-.85,26.389Z" transform="translate(-10.417 -14.332)" fill="none" stroke="#6fa7ff" stroke-width="1.112" fill-rule="evenodd" opacity="0.2"/>
          <path id="Path_2500" data-name="Path 2500" d="M33.379,38.9c-3.89-8.077-2.156-19.769-.2-21.6s6.3,17.564,4.878,19.281S37.268,46.982,33.379,38.9ZM19.754,6.578a30.98,30.98,0,0,1,2.4-1.992V2.607L20.384,4.037q-1.527,3.412-.629,2.542Zm3.7-.827a4.321,4.321,0,0,0,1.936.358q-1.225-3.974-1.937-3.658c-.712.316-.487,2.991,0,3.3Z" transform="translate(-10.681 -1.57)" fill-rule="evenodd" fill="url(#linear-gradient-25)"/>
        </g>
        <path id="Path_2501" data-name="Path 2501" d="M148.644,93.263c1.046,0,4.916.636,6.448,0a62.825,62.825,0,0,1-.479,7.482,5.975,5.975,0,0,1-3.178,1.37l-3.062-1.7a31.2,31.2,0,0,1,.272-7.154ZM150,86.422c-.96-.5-1.148-3.713-2.006-4.168s2.664-1.1,3.1-4.282c.442,0,1.225,2.067,1.988,3.239-.09,1.789-2.659,3.132-3.086,5.21Zm-5.1-7.779c0,.81-.431,3.081,1.218,3.594a1.849,1.849,0,0,0-1.407,1.019,14.209,14.209,0,0,1-1.278,2.764c0-1.262-.291-3.755,0-4.711A18.4,18.4,0,0,1,144.9,78.643Z" transform="translate(-114.032 -57.511)" fill="#fff" fill-rule="evenodd"/>
        <g id="Group_2583" data-name="Group 2583" transform="translate(42.4 27.972)">
          <path id="Path_2502" data-name="Path 2502" d="M94.573,79.612c-1.961-6.561-2.781-11.24-2.71-12.861s1.976-4.774,4.132-4.578,2.612,4.171,3.059,6.306,3.747,13.1,3.914,14.649-1.3,4.017-3.165,4.231S96.534,86.173,94.573,79.612Z" transform="translate(-91.859 -62.164)" fill="url(#linear-gradient-26)"/>
          <path id="Path_2503" data-name="Path 2503" d="M94.573,79.612c-1.961-6.561-2.781-11.24-2.71-12.861s1.976-4.774,4.132-4.578,2.612,4.171,3.059,6.306,3.747,13.1,3.914,14.649-1.3,4.017-3.165,4.231S96.534,86.173,94.573,79.612Z" transform="translate(-91.859 -62.164)" fill="url(#linear-gradient-27)"/>
          <path id="Path_2504" data-name="Path 2504" d="M94.573,79.612c-1.961-6.561-2.781-11.24-2.71-12.861s1.976-4.774,4.132-4.578,2.612,4.171,3.059,6.306,3.747,13.1,3.914,14.649-1.3,4.017-3.165,4.231S96.534,86.173,94.573,79.612Z" transform="translate(-91.859 -62.164)"/>
        </g>
        <g id="Group_2584" data-name="Group 2584" transform="translate(40.256 44.201)">
          <path id="Path_2505" data-name="Path 2505" d="M87.834,97.149s3.9,1.173,4.755.782,5.093-.212,6.029,2.977.119,3.878-.937,4.982-8.815-1.793-10.445-3.3c1.224-3.582.6-5.439.6-5.439Z" transform="translate(-87.237 -97.149)" fill="url(#linear-gradient-28)"/>
          <path id="Path_2506" data-name="Path 2506" d="M87.834,97.149s3.9,1.173,4.755.782,5.093-.212,6.029,2.977.119,3.878-.937,4.982-8.815-1.793-10.445-3.3c1.224-3.582.6-5.439.6-5.439Z" transform="translate(-87.237 -97.149)" fill="url(#linear-gradient-29)"/>
        </g>
        <path id="Path_2507" data-name="Path 2507" d="M40.469,88.851a185.529,185.529,0,0,1,2.273-21.625,6.449,6.449,0,0,1,.571-1.395c1.126,4.27,1.473,22.9,1.15,24.015S42.258,89.846,40.469,88.851Z" transform="translate(-21.907 -36.158)" fill-rule="evenodd" fill="url(#linear-gradient-30)"/>
        <path id="Path_2508" data-name="Path 2508" d="M142.513,48.479c-.646.225-1,2.194-.886,3.683-.361-.841-.73-4.254.494-6.093s1.038,2.186.392,2.41Z" transform="translate(-112.947 -40.15)" fill="#143b8c" fill-rule="evenodd"/>
        <path id="Path_2509" data-name="Path 2509" d="M64.03,12.8c-2.41,1.563-1.314,3.62,1.155,3.967s2.737.439,4.254,0c.339,1.108-.715,2.164,0,2.976a2.158,2.158,0,0,1,.783,1.623c.034.733.31.881.31.881s.032-2.04.693-2.1,1.169.357,1.535,1.221c.105.249-.034-.261,0-.738A12.881,12.881,0,0,0,73,19.088a5.829,5.829,0,0,0-1.329-3.368c-1.586-1.911-5.938-3.348-7.643-2.923Z" transform="translate(-33.817 -7.685)" fill-rule="evenodd" fill="url(#linear-gradient-31)"/>
        <g id="Group_2585" data-name="Group 2585" transform="translate(0 27.545)">
          <path id="Path_2510" data-name="Path 2510" d="M1.092,1.395c3.935,2.512,7.862,4.324,13.07,2.876s7.151-.475,10.265.319S29.893,6.9,39.45.525c-.282,6.246-1.209,17.2-.246,19.487-2.371,1.505-5.948,6.1-9.478,6.061s-5.374-3.341-11.117-2.543S13.035,26.6,9.322,25.753,1.058,21.135.458,20.674C.386,19.3,1.324,5.8,1.092,1.395Z" transform="translate(-0.454 -0.525)" fill="url(#linear-gradient-32)"/>
          <path id="Path_2511" data-name="Path 2511" d="M22.673,3.767l8.308-.994V33.408H21.659q-.227-9.078,0-15.7T22.672,3.767Z" transform="translate(-11.762 -1.73)" fill-rule="evenodd" opacity="0.269" fill="url(#linear-gradient-33)"/>
          <path id="Path_2512" data-name="Path 2512" d="M41.885,3.767l8.04-.994V33.408H42.064q-.178-7.115-.179-14V3.767Z" transform="translate(-22.666 -1.73)" fill-rule="evenodd" opacity="0.269" fill="url(#linear-gradient-34)"/>
        </g>
        <path id="Path_2513" data-name="Path 2513" d="M74.1,93.693c1.1-.1,1.075-1.009,1.111-.749A19.114,19.114,0,0,0,77.8,94.916s.456,4.584-.593,5.359-2.387-.9-3.289-.721a6.419,6.419,0,0,1-2.347-.121,8.443,8.443,0,0,1-1.628-.55c-.254-.2-.383-.45-.094-.7a9.888,9.888,0,0,1,1.873.355,2.691,2.691,0,0,0,1.738-.113c-.046-.1-.767-.019-1.738-.242-.341-.078-1.046-.215-1.387-.316a6.333,6.333,0,0,1-1.457-.615.367.367,0,0,1,.027-.623c.128-.1.446,0,1.354.146.394.063,1.19.265,1.544.321a1.638,1.638,0,0,0,1.331-.27,9.768,9.768,0,0,1-1.267-.051c-.4-.075-1.163-.164-1.606-.244a4.836,4.836,0,0,1-1.892-.7.489.489,0,0,1,0-.68,8.513,8.513,0,0,1,1.877.265,14.091,14.091,0,0,0,1.62.2,2.647,2.647,0,0,0,1.218-.2c0-.057-1.429-.214-2.579-.445s-1.254-.472-1.333-.565c-.107-.127-.141-.594.231-.594a7.667,7.667,0,0,1,1.281.139c.366.049,1.24.086,1.59.086A11.892,11.892,0,0,0,74.1,93.693Z" transform="translate(-36.793 -50.669)" fill-rule="evenodd" fill="url(#linear-gradient-35)"/>
      </g>
    </g>
  </g>
</svg>
