<svg xmlns="http://www.w3.org/2000/svg" xmlns:xlink="http://www.w3.org/1999/xlink" width="520.512" height="320" viewBox="0 0 520.512 320">
    <defs>
        <linearGradient id="linear-gradient" x1="0.5" y1="1" x2="0.5" gradientUnits="objectBoundingBox">
            <stop offset="0" stop-color="#3d8bff"/>
            <stop offset="0.25" stop-color="#63a2ff"/>
            <stop offset="0.64" stop-color="#3d8bff"/>
            <stop offset="1" stop-color="#63a2ff"/>
        </linearGradient>
        <clipPath id="clip-path">
            <path id="Path_2821" data-name="Path 2821" d="M421.2,396.207a37.336,37.336,0,0,0,3.341-5.334c4.744-9.354,5.189-20.288,4.454-30.744a149.279,149.279,0,0,0-6.971-35.388c-1.4-4.287-3.341-8.908-7.527-10.745-3.162-1.37-6.815-.7-10.166.122a125.616,125.616,0,0,0-38.216,16.591c10.467-20.043,31.357-32.648,43.594-51.656,1.726-2.695,3.263-6.28,1.436-8.908-2.06-2.951-6.57-2.227-10.022-1.114a145.57,145.57,0,0,0-73,55.787c7.516-32.882,39.741-53.326,58.125-81.6,2.728-4.209,4.9-10.445,1.047-13.663-1.882-1.57-4.554-1.693-7-1.526-8.418.579-16.447,3.686-24.1,7.238a206.757,206.757,0,0,0-72.757,56.455c4.989-14.231,18.785-23.751,24.753-37.592,1.514-3.519,2.093-8.407-1.113-10.456-1.938-1.236-4.454-.846-6.681-.3-30.065,7.36-54.763,60.286-54.763,60.286s-.657-50.7-2.517-74.516c-.746-9.6-4.632-33.617-19.576-24.386-15.879,9.81-7.149,109.28-7.149,109.28s-6.069-46.89-11.692-69.194c-1.414-5.634-9.5-18.173-14.142-7.193a18.3,18.3,0,0,0-.891,9.108c3,26.658,16.77,71.788,16.77,71.788s-26.724-71.644-34.664-86.331-18.418-28.617-32.916-36.891c-20.043-11.4-42.314-.958-44.474,24.408-4.454,51.645,87.478,154.69,106.085,173.441C154.67,325.331,58.006,279.6,31.593,299.954c-3.741,2.884-10.512,9.231-5.98,23.194,4.4,13.5,59.016,73.058,92.834,73.058Z" transform="translate(-24.105 -190.734)" fill="#63a2ff" opacity="0.2"/>
        </clipPath>
        <linearGradient id="linear-gradient-2" x1="0.894" y1="0.792" x2="0.02" y2="0.171" gradientUnits="objectBoundingBox">
            <stop offset="0" stop-color="#5b6dff" stop-opacity="0.2"/>
            <stop offset="1" stop-color="#5b6dff" stop-opacity="0.102"/>
        </linearGradient>
        <linearGradient id="linear-gradient-3" x1="0.852" y1="0.328" x2="0.045" y2="-1.268" gradientUnits="objectBoundingBox">
            <stop offset="0" stop-color="#3d8bff"/>
            <stop offset="0.25" stop-color="#63a2ff"/>
            <stop offset="0.64" stop-color="#c4bdef"/>
            <stop offset="1" stop-color="#63a2ff"/>
        </linearGradient>
        <linearGradient id="linear-gradient-4" x1="-0.102" y1="0.916" x2="1.078" y2="0.061" gradientUnits="objectBoundingBox">
            <stop offset="0" stop-color="#ad9eea"/>
            <stop offset="0.25" stop-color="#b3a6eb"/>
            <stop offset="0.64" stop-color="#3d8bff"/>
            <stop offset="1" stop-color="#63a2ff"/>
        </linearGradient>
        <linearGradient id="linear-gradient-5" x1="-0.1" y1="0.92" x2="1.231" y2="0.062" xlink:href="#linear-gradient-4"/>
        <linearGradient id="linear-gradient-6" x1="0.687" y1="0.964" x2="0.31" y2="0.036" gradientUnits="objectBoundingBox">
            <stop offset="0" stop-color="#ad9eea"/>
            <stop offset="0.25" stop-color="#b3a6eb"/>
            <stop offset="0.64" stop-color="#c4bdef"/>
            <stop offset="1" stop-color="#d7d7f4"/>
        </linearGradient>
        <linearGradient id="linear-gradient-7" x1="0.687" y1="0.967" x2="0.31" y2="0.036" gradientUnits="objectBoundingBox">
            <stop offset="0" stop-color="#3d8bff"/>
            <stop offset="0.25" stop-color="#3d8bff"/>
            <stop offset="0.64" stop-color="#63a2ff"/>
            <stop offset="1" stop-color="#63a2ff"/>
        </linearGradient>
        <linearGradient id="linear-gradient-8" x1="0.687" y1="0.964" x2="0.31" y2="0.033" xlink:href="#linear-gradient-6"/>
        <linearGradient id="linear-gradient-9" x1="-0.002" y1="0.5" x2="1.001" y2="0.5" gradientUnits="objectBoundingBox">
            <stop offset="0" stop-color="#63a2ff"/>
            <stop offset="1" stop-color="#3d8bff"/>
        </linearGradient>
        <linearGradient id="linear-gradient-10" x1="0.018" y1="0.739" x2="0.986" y2="0.164" xlink:href="#linear-gradient-9"/>
        <linearGradient id="linear-gradient-11" x1="4.985" y1="0.211" x2="4.985" y2="-0.772" gradientUnits="objectBoundingBox">
            <stop offset="0.34" stop-color="#516dfc"/>
            <stop offset="0.51" stop-color="#556ffb"/>
            <stop offset="0.67" stop-color="#5f74f8"/>
            <stop offset="0.82" stop-color="#727df2"/>
            <stop offset="0.96" stop-color="#8b8aea"/>
            <stop offset="1" stop-color="#938ee8"/>
        </linearGradient>
        <linearGradient id="linear-gradient-12" x1="0.5" y1="1" x2="0.5" gradientUnits="objectBoundingBox">
            <stop offset="0" stop-color="#6d79fc"/>
            <stop offset="1" stop-color="#63a2ff"/>
        </linearGradient>
        <linearGradient id="linear-gradient-13" x1="0.5" y1="1" x2="0.5" gradientUnits="objectBoundingBox">
            <stop offset="0" stop-color="#516dfc"/>
            <stop offset="0.34" stop-color="#516dfc"/>
            <stop offset="0.51" stop-color="#556ffb"/>
            <stop offset="0.67" stop-color="#5f74f8"/>
            <stop offset="0.82" stop-color="#3d8bff"/>
            <stop offset="0.96" stop-color="#63a2ff"/>
            <stop offset="1" stop-color="#3d8bff"/>
        </linearGradient>
        <linearGradient id="linear-gradient-14" x1="0.102" y1="0.966" x2="0.846" y2="0.025" gradientUnits="objectBoundingBox">
            <stop offset="0.39" stop-color="#f9c6b9"/>
            <stop offset="0.57" stop-color="#f9c3b6"/>
            <stop offset="0.71" stop-color="#f9baad"/>
            <stop offset="0.82" stop-color="#f9aa9d"/>
            <stop offset="0.93" stop-color="#f99488"/>
            <stop offset="1" stop-color="#f98074"/>
        </linearGradient>
        <linearGradient id="linear-gradient-15" x1="0.214" y1="0.851" x2="1.423" y2="0.05" xlink:href="#linear-gradient-14"/>
        <linearGradient id="linear-gradient-16" x1="0.001" y1="0.5" x2="1" y2="0.5" gradientUnits="objectBoundingBox">
            <stop offset="0.18" stop-color="#f9c6b9"/>
            <stop offset="0.43" stop-color="#f9c3b6"/>
            <stop offset="0.61" stop-color="#f9baad"/>
            <stop offset="0.76" stop-color="#f9aa9d"/>
            <stop offset="0.9" stop-color="#f99488"/>
            <stop offset="1" stop-color="#f98074"/>
        </linearGradient>
        <linearGradient id="linear-gradient-17" x1="2.586" y1="20.608" x2="4.607" y2="21.479" gradientUnits="objectBoundingBox">
            <stop offset="0.13" stop-color="#f9c6b9"/>
            <stop offset="0.34" stop-color="#f9c2b5"/>
            <stop offset="0.55" stop-color="#f9b6a9"/>
            <stop offset="0.76" stop-color="#f9a195"/>
            <stop offset="0.97" stop-color="#f98579"/>
            <stop offset="1" stop-color="#f98074"/>
        </linearGradient>
        <linearGradient id="linear-gradient-18" x1="0.118" y1="0.837" x2="1.084" y2="0.17" gradientUnits="objectBoundingBox">
            <stop offset="0" stop-color="#63a2ff"/>
            <stop offset="1" stop-color="#d5dde5"/>
        </linearGradient>
        <linearGradient id="linear-gradient-19" x1="0.5" y1="0.999" x2="0.5" y2="0.323" gradientUnits="objectBoundingBox">
            <stop offset="0" stop-color="#3d8bff"/>
            <stop offset="1" stop-color="#63a2ff"/>
        </linearGradient>
        <linearGradient id="linear-gradient-20" x1="1" y1="0.49" x2="0" y2="0.49" gradientUnits="objectBoundingBox">
            <stop offset="0" stop-color="#63a2ff"/>
            <stop offset="1" stop-color="#111890"/>
        </linearGradient>
    </defs>
    <g id="image_svg" data-name="image/svg" transform="translate(-24.105 -90.64)">
        <path id="Path_2812" data-name="Path 2812" d="M214.772,280.42c-4.053.412-7.605,3.151-9.832,6.57a26.032,26.032,0,0,0-3.285,8.106q-.111-7.082-.423-14.186c7.861-2.817,13.507-9.7,11.436-15.311a11.915,11.915,0,0,0-8.44,5.634,23.528,23.528,0,0,0-3.073,8.073q-.334-6.592-.913-13.184c7.795-2.862,13.273-9.676,11.213-15.233a11.915,11.915,0,0,0-8.429,5.6,23.039,23.039,0,0,0-2.973,7.583q-.534-5.49-1.281-10.979c6.547-3.53,10.556-10.456,7.906-15.055a10.4,10.4,0,0,0-6.436,6.091,22.605,22.605,0,0,0-1.492,8.786q-.735-5.189-1.681-10.345c5.957-4.265,9.053-11.447,5.946-15.667a10.422,10.422,0,0,0-5.723,6.77,19.341,19.341,0,0,0-.679,6.548q-1.113-5.646-2.583-11.213c5.98-4.265,9.086-11.458,5.968-15.689a10.422,10.422,0,0,0-5.712,6.781,20.378,20.378,0,0,0-.635,7.438c-.913-3.341-1.915-6.681-3.029-9.933,5.044-3.586,7.672-9.665,5.044-13.24a8.908,8.908,0,0,0-4.822,5.712,18.084,18.084,0,0,0-.5,6.748c-.846-2.472-1.77-4.922-2.75-7.349,3.753-3.73,5.122-9.22,2.405-11.87a7.583,7.583,0,0,0-3.285,5.5,14.664,14.664,0,0,0,.356,5.111c-.534-1.314-1.114-2.617-1.681-3.908.245-5.846-2.695-11.3-6.893-11.491a8.507,8.507,0,0,0,1.381,7.06,17.95,17.95,0,0,0,5.178,4.721c.557,1.281,1.114,2.561,1.615,3.853-2.851-4.721-7.795-7.527-11.347-5.657a8.5,8.5,0,0,0,4.766,5.378,18.106,18.106,0,0,0,7.049,1.459q1.5,3.842,2.795,7.728c-3.2-6.08-9.4-9.866-13.852-7.639a9.9,9.9,0,0,0,5.568,6.291,21.7,21.7,0,0,0,8.385,1.7q1.548,4.777,2.817,9.643c-3.953-6.4-10.723-10.189-15.589-7.628a11.681,11.681,0,0,0,6.57,7.438,24.741,24.741,0,0,0,9.42,1.982c.891,3.563,1.659,7.138,2.338,10.734-3.14-7.327-9.509-12.382-15.066-10.6a12.861,12.861,0,0,0,5.679,9.342,27.281,27.281,0,0,0,9.888,4.009q.824,4.643,1.436,9.32c-5.657-6.336-14.053-9.153-18.807-5.267a12.894,12.894,0,0,0,8.708,6.6,26.869,26.869,0,0,0,10.289.156c.534,4.165.969,8.34,1.336,12.527-6.013-6.1-14.643-8.518-19.2-4.332a12.883,12.883,0,0,0,9.064,6.1,26.936,26.936,0,0,0,10.244-.412c.356,4.287.635,8.6.869,12.895-5.167-7.015-13.574-10.667-18.707-7.06a12.85,12.85,0,0,0,8.218,7.216,27.271,27.271,0,0,0,10.534.88c.267,4.977.457,9.955.635,14.932-4.71-8.173-13.362-13.117-19.264-9.844,1,3.942,4.242,7.049,7.962,8.741a29.675,29.675,0,0,0,11.336,2.227c.178,5.178.334,10.356.512,15.522a.178.178,0,1,0,.356,0c0-4.866.056-9.766,0-14.687C210.73,294.84,217.166,286.9,214.772,280.42Z" transform="translate(18.573 12.893)" fill="url(#linear-gradient)"/>
        <path id="Path_2813" data-name="Path 2813" d="M421.2,396.207a37.336,37.336,0,0,0,3.341-5.334c4.744-9.354,5.189-20.288,4.454-30.744a149.279,149.279,0,0,0-6.971-35.388c-1.4-4.287-3.341-8.908-7.527-10.745-3.162-1.37-6.815-.7-10.166.122a125.616,125.616,0,0,0-38.216,16.591c10.467-20.043,31.357-32.648,43.594-51.656,1.726-2.695,3.263-6.28,1.436-8.908-2.06-2.951-6.57-2.227-10.022-1.114a145.57,145.57,0,0,0-73,55.787c7.516-32.882,39.741-53.326,58.125-81.6,2.728-4.209,4.9-10.445,1.047-13.663-1.882-1.57-4.554-1.693-7-1.526-8.418.579-16.447,3.686-24.1,7.238a206.757,206.757,0,0,0-72.757,56.455c4.989-14.231,18.785-23.751,24.753-37.592,1.514-3.519,2.093-8.407-1.113-10.456-1.938-1.236-4.454-.846-6.681-.3-30.065,7.36-54.763,60.286-54.763,60.286s-.657-50.7-2.517-74.516c-.746-9.6-4.632-33.617-19.576-24.386-15.879,9.81-7.149,109.28-7.149,109.28s-6.069-46.89-11.692-69.194c-1.414-5.634-9.5-18.173-14.142-7.193a18.3,18.3,0,0,0-.891,9.108c3,26.658,16.77,71.788,16.77,71.788s-26.724-71.644-34.664-86.331-18.418-28.617-32.916-36.891c-20.043-11.4-42.314-.958-44.474,24.408-4.454,51.645,87.478,154.69,106.085,173.441C154.67,325.331,58.006,279.6,31.593,299.954c-3.741,2.884-10.512,9.231-5.98,23.194,4.4,13.5,59.016,73.058,92.834,73.058Z" transform="translate(0 13.609)" fill="#ebf2ff"/>
        <g id="Group_2690" data-name="Group 2690" transform="translate(24.105 204.343)" clip-path="url(#clip-path)">
            <path id="Path_2814" data-name="Path 2814" d="M195.386,396.971h10.166c-7.438-18.651-18.106-47.881-32.916-82.155C138.853,236.714,102.964,184,102.964,184c-8.63,4.242-27.047,20.043-28.9,32.96C68.445,256.078,195.386,396.971,195.386,396.971Z" transform="translate(-18.454 -191.498)" fill="#63a2ff" opacity="0.1"/>
            <path id="Path_2815" data-name="Path 2815" d="M178.165,228.51a692.916,692.916,0,0,1,18.763,95.918c6.57,52.97,8.652,68.3,8.652,68.3L189.935,311.7,166.05,231.661Z" transform="translate(-7.992 -186.445)" fill="#63a2ff" opacity="0.1"/>
            <path id="Path_2816" data-name="Path 2816" d="M211.633,201s-3.2,168.9,4.588,194.03-8.463-.535-8.463-.535l-10.489-85.941L189.24,204.341Z" transform="translate(-5.36 -189.568)" fill="#63a2ff" opacity="0.1"/>
            <path id="Path_2817" data-name="Path 2817" d="M285.309,241.164s-26.357,19.364-40.031,48.371c-28.283,59.985-29.219,104.982-29.219,104.982s-3.8-46.768,8.04-96.4,58.2-85.251,58.2-85.251Z" transform="translate(-2.381 -188.221)" fill="url(#linear-gradient-2)"/>
            <path id="Path_2818" data-name="Path 2818" d="M243,394.347s9.4-49.741,30.889-86.476c38.906-66.5,89.683-80.173,89.683-80.173s23.952-26.268-1.57-19.453-88.4,56.088-102.3,81.621c-19.72,36.178-32.014,82.523-23.985,108.011S243,394.347,243,394.347Z" transform="translate(-0.367 -188.874)" fill="#63a2ff" opacity="0.1"/>
            <path id="Path_2819" data-name="Path 2819" d="M266.45,390.523s31.613-53.95,62.045-81.342,55.074-45.532,55.074-45.532,5.022-15.589-.98-15.589-26.034,8.908-26.034,8.908l-45.777,41.2L300.59,318.312S277.2,353.209,266.45,390.523Z" transform="translate(3.405 -184.226)" fill="#63a2ff" opacity="0.1"/>
            <path id="Path_2820" data-name="Path 2820" d="M0,301.437S23.117,281.1,81.287,312.149,218.772,408.69,218.772,408.69L88.224,415.939,24.742,380.752Z" transform="translate(-26.842 -178.909)" fill="#63a2ff" opacity="0.1"/>
        </g>
        <path id="Path_2822" data-name="Path 2822" d="M188.585,327.941c6.38-7.227,8.285-17.259,3.1-21.836-3.341,2.283-5.2,6.38-5.568,10.445a25.856,25.856,0,0,0,.947,8.7c-2.3-4.109-4.666-8.218-7.1-12.249,5.568-6.213,7.294-14.943,2.795-18.93a11.97,11.97,0,0,0-4.744,8.964,23.383,23.383,0,0,0,1.113,8.563q-3.418-5.646-7.06-11.135c5.467-6.2,7.093-14.81,2.65-18.74a11.959,11.959,0,0,0-4.755,8.964,23.172,23.172,0,0,0,.98,8.084q-3.073-4.588-6.336-9.053c4.087-6.213,4.332-14.208-.189-17a10.456,10.456,0,0,0-2.773,8.418,22.6,22.6,0,0,0,2.884,8.407q-3.1-4.209-6.369-8.273c3.218-6.581,2.539-14.364-2.227-16.614a10.411,10.411,0,0,0-1.815,8.674,19.486,19.486,0,0,0,2.483,6.046q-3.652-4.454-7.561-8.619c3.218-6.581,2.55-14.375-2.227-16.625a10.456,10.456,0,0,0-1.771,8.685A20.467,20.467,0,0,0,148,269.638q-3.574-3.753-7.36-7.282c2.728-5.568,2.227-12.148-1.837-14.041a8.775,8.775,0,0,0-1.537,7.316A17.938,17.938,0,0,0,140,261.776c-1.915-1.759-3.886-3.474-5.89-5.133,1.525-5.078.134-10.556-3.519-11.6a7.572,7.572,0,0,0-.278,6.4,14.631,14.631,0,0,0,2.739,4.332q-1.67-1.353-3.341-2.639c-2.561-5.256-7.728-8.674-11.514-6.848a8.485,8.485,0,0,0,4.565,5.568,18.027,18.027,0,0,0,6.8,1.7c1.114.857,2.227,1.726,3.24,2.617-4.744-2.806-10.456-2.917-12.672.4a8.5,8.5,0,0,0,6.759,2.483,18.251,18.251,0,0,0,6.882-2.071c2.1,1.782,4.142,3.608,6.135,5.478-5.712-3.864-13.05-4.276-15.79-.167a9.832,9.832,0,0,0,7.873,2.9,21.6,21.6,0,0,0,8.184-2.472q3.652,3.474,7.06,7.149c-6.514-3.753-14.264-3.875-17.293.668a11.7,11.7,0,0,0,9.309,3.418,24.787,24.787,0,0,0,9.242-2.717q3.7,4.053,7.149,8.34c-6.247-4.966-14.253-6.392-18.3-2.227a12.894,12.894,0,0,0,9.431,5.568,27.526,27.526,0,0,0,10.612-1.113c1.949,2.461,3.842,4.977,5.69,7.527-8-2.906-16.7-1.4-19.063,4.276a12.85,12.85,0,0,0,10.8,1.681,26.9,26.9,0,0,0,9.131-4.744c2.45,3.407,4.81,6.882,7.115,10.4-8.184-2.528-16.925-.557-18.93,5.289a12.872,12.872,0,0,0,10.879,1.113,26.723,26.723,0,0,0,8.819-5.222c2.35,3.608,4.632,7.26,6.882,10.946-7.873-3.73-17.015-2.962-19.809,2.661a12.872,12.872,0,0,0,10.645,2.45,27.225,27.225,0,0,0,9.7-4.231c2.583,4.254,5.122,8.552,7.639,12.85-8.028-4.966-17.95-5.234-21.636.468,2.762,3,7.093,4.2,11.135,3.92a29.642,29.642,0,0,0,11.035-3.43l7.795,13.44c.123.2.4,0,.3-.2Q192.149,334.411,188.585,327.941Z" transform="translate(11.632 19.271)" fill="url(#linear-gradient-3)"/>
        <path id="Path_2823" data-name="Path 2823" d="M353.178,256.641c.813-.768,1.648-1.526,2.483-2.227a15.254,15.254,0,0,0,5.568-1.748,7.16,7.16,0,0,0,3.563-4.922c-3.274-1.347-7.472,1.793-9.365,6.358-.857.735-1.726,1.47-2.561,2.227a12.46,12.46,0,0,0,1.982-3.641,6.4,6.4,0,0,0-.557-5.378c-3.018,1.058-3.92,5.735-2.394,9.933q-2.405,2.227-4.688,4.6a15.056,15.056,0,0,0,1.982-5.278,7.4,7.4,0,0,0-1.648-6.091c-3.285,1.793-3.441,7.372-.857,11.915-1.971,2.06-3.9,4.153-5.746,6.325A17.093,17.093,0,0,0,343,263a8.841,8.841,0,0,0-1.96-7.227c-3.886,2.127-4.076,8.708-1.047,14.086-2,2.416-3.942,4.9-5.8,7.427a16.127,16.127,0,0,0,1.659-4.966,8.763,8.763,0,0,0-1.96-7.227c-3.864,2.116-4.064,8.674-1.058,14.053-1.659,2.3-3.24,4.654-4.788,7.037a18.584,18.584,0,0,0,1.826-6.915,8.752,8.752,0,0,0-2.75-6.959c-3.652,2.572-3.062,9.253.646,14.286q-2.472,3.819-4.8,7.795a19.186,19.186,0,0,0,.379-6.614,10.089,10.089,0,0,0-4.454-7.316c-3.541,3.519-1.759,10.656,3.107,15.589q-2.717,4.732-5.278,9.543a19.552,19.552,0,0,0,.457-7,10.022,10.022,0,0,0-4.454-7.316c-3.574,3.552-1.737,10.79,3.24,15.745-1.826,3.485-3.574,7-5.278,10.534a21.813,21.813,0,0,0,.323-7.16,11.737,11.737,0,0,0-5.178-8.53c-4.131,4.109-2.06,12.438,3.63,18.206q-2.672,5.646-5.2,11.269c-.1.2.2.379.3.178,2-3.886,3.986-7.795,5.98-11.7a24.785,24.785,0,0,0,9.4,2.316,11.736,11.736,0,0,0,9.209-3.853c-3.341-4.6-11.625-3.92-18.128.579q2.839-5.568,5.757-11.068a22.549,22.549,0,0,0,8.307,3.04,10.846,10.846,0,0,0,8.852-2.583c-2.617-4.565-10.267-4.8-16.7-1.347q2.528-4.744,5.178-9.432a22.637,22.637,0,0,0,7.616,3.92,10.868,10.868,0,0,0,9.12-1.448c-1.993-4.788-9.365-6.035-16.1-3.574q2.628-4.565,5.423-9.008a22.4,22.4,0,0,0,7.85,3.5,10.879,10.879,0,0,0,9.019-1.949c-2.227-4.643-9.576-5.49-16.135-2.717q2.127-3.341,4.365-6.559a22.771,22.771,0,0,0,8.908.434,10.846,10.846,0,0,0,7.672-5.122c-3.552-3.285-10.022-1.8-15.044,2.505q2.606-3.63,5.412-7.115a20.834,20.834,0,0,0,7.861,1.815,9.855,9.855,0,0,0,7.672-3.341c-2.739-3.63-9.153-3.2-14.42.189q2.617-3.185,5.467-6.247a17.816,17.816,0,0,0,6.96,1.659,8.3,8.3,0,0,0,6.492-2.828c-2.461-3.274-8.452-2.639-13.039.746q2.227-2.427,4.688-4.721a15.4,15.4,0,0,0,5.868,1.381,7.138,7.138,0,0,0,5.568-2.427C361.7,253.813,357.008,254.158,353.178,256.641Z" transform="translate(34.457 19.464)" fill="url(#linear-gradient-4)"/>
        <path id="Path_2824" data-name="Path 2824" d="M244.694,224.605a8.351,8.351,0,0,0,5.011-5.044c-3.508-2.116-8.83.69-11.826,5.568.8-2.06,1.67-4.1,2.583-6.124a15.59,15.59,0,0,0,5.957-.9,7.149,7.149,0,0,0,4.265-4.32c-2.839-1.715-7.06.334-9.688,4.064.468-1,.958-2.015,1.459-3.018a15.111,15.111,0,0,0,4.532-3.708,7.193,7.193,0,0,0,1.481-5.89c-3.53,0-6.247,4.387-6.336,9.3-.535,1.024-1.047,2.06-1.548,3.1a11.926,11.926,0,0,0,.479-4.1,6.325,6.325,0,0,0-2.517-4.788c-2.394,2.1-1.5,6.77,1.47,10.088q-1.392,2.94-2.617,5.946a15.022,15.022,0,0,0-.134-5.568,7.4,7.4,0,0,0-3.8-5.033c-2.372,2.884-.457,8.1,3.619,11.358q-1.637,3.942-2.973,8.017a17.091,17.091,0,0,0-.223-6.069,8.785,8.785,0,0,0-4.454-5.968c-2.806,3.407-.534,9.587,4.276,13.451q-1.436,4.454-2.606,9.008a16.214,16.214,0,0,0-.312-5.189,8.841,8.841,0,0,0-4.51-5.968c-2.806,3.407-.546,9.565,4.242,13.44q-1,4.075-1.815,8.207a18.5,18.5,0,0,0-.88-6.993,8.83,8.83,0,0,0-5.144-5.434c-2.439,3.753.59,9.721,5.913,13.017q-.885,4.46-1.559,8.975a19.331,19.331,0,0,0-2.116-6.269,10.089,10.089,0,0,0-6.859-5.133c-1.971,4.577,2.327,10.534,8.685,13.362-.523,3.586-.958,7.193-1.336,10.8a19.8,19.8,0,0,0-2.227-6.681,10.022,10.022,0,0,0-6.848-5.133c-1.993,4.621,2.405,10.645,8.908,13.362q-.59,5.868-.98,11.714a21.681,21.681,0,0,0-2.35-6.681,11.714,11.714,0,0,0-8-5.98c-2.3,5.345,2.728,12.249,10.166,15.534-.267,4.165-.468,8.307-.646,12.416a.178.178,0,1,0,.356,0c.412-4.343.791-8.7,1.18-13.05a24.955,24.955,0,0,0,9.6-1.359,11.681,11.681,0,0,0,7.1-7c-4.833-3.007-12.249.7-16.6,7.293.379-4.142.768-8.285,1.214-12.416a22.915,22.915,0,0,0,8.841-.267,10.846,10.846,0,0,0,7.249-5.712c-4.131-3.251-11.3-.624-15.979,4.977.39-3.574.813-7.138,1.3-10.69a22.326,22.326,0,0,0,8.518.791,10.846,10.846,0,0,0,7.917-4.721c-3.619-3.708-10.924-2.127-16.268,2.672q.735-5.211,1.67-10.378a22.6,22.6,0,0,0,8.6.312,10.779,10.779,0,0,0,7.639-5.167c-3.8-3.474-10.924-1.514-15.979,3.485q.735-3.864,1.615-7.706a23.017,23.017,0,0,0,8.44-2.917,10.846,10.846,0,0,0,5.2-7.616c-4.51-1.715-10.022,2.082-13.017,7.939.713-2.9,1.492-5.768,2.372-8.619a20.957,20.957,0,0,0,7.962-1.258,9.877,9.877,0,0,0,5.879-5.957c-3.908-2.35-9.688.445-13.362,5.568.835-2.628,1.748-5.245,2.75-7.795a18.084,18.084,0,0,0,7.049-1.136Z" transform="translate(23.236 14.326)" fill="url(#linear-gradient-5)"/>
        <path id="Path_2825" data-name="Path 2825" d="M393.87,232.8l-.98,9.331,7.661-2.873Z" transform="translate(45.077 17.291)" fill="none" stroke="#707070" stroke-miterlimit="10" stroke-width="1" opacity="0.15"/>
        <path id="Path_2826" data-name="Path 2826" d="M219.32,195.344l9.042-2.483-5.467-6.091Z" transform="translate(23.866 11.69)" fill="none" stroke="#707070" stroke-miterlimit="10" stroke-width="1" opacity="0.3"/>
        <path id="Path_2827" data-name="Path 2827" d="M153.754,234.82l-2.784,8.964,8.084-1.336Z" transform="translate(15.508 17.535)" fill="none" stroke="#fff" stroke-miterlimit="10" stroke-width="1" opacity="0.26"/>
        <path id="Path_2828" data-name="Path 2828" d="M154.386,128.787l-9.376-.557,3.229,7.527Z" transform="translate(14.782 4.267)" fill="none" stroke="#707070" stroke-miterlimit="10" stroke-width="1" opacity="0.19"/>
        <rect id="Rectangle_1569" data-name="Rectangle 1569" width="12.249" height="12.249" transform="translate(262.113 101.53) rotate(31.81)" fill="none" stroke="#707070" stroke-miterlimit="10" stroke-width="1" opacity="0.22"/>
        <rect id="Rectangle_1570" data-name="Rectangle 1570" width="3.463" height="3.463" transform="translate(404.089 187.002) rotate(-2.55)" fill="#63a2ff" opacity="0.33"/>
        <rect id="Rectangle_1571" data-name="Rectangle 1571" width="10.545" height="10.545" transform="matrix(0.905, -0.425, 0.425, 0.905, 144.722, 219.618)" fill="#3d8bff"/>
        <rect id="Rectangle_1572" data-name="Rectangle 1572" width="6.681" height="6.681" transform="matrix(0.961, 0.278, -0.278, 0.961, 398.599, 241.301)" fill="#3d8bff" opacity="0.3"/>
        <rect id="Rectangle_1573" data-name="Rectangle 1573" width="6.681" height="6.681" transform="translate(376.602 175.919) rotate(-8.049)" fill="none" stroke="#707070" stroke-miterlimit="10" stroke-width="1" opacity="0.48"/>
        <circle id="Ellipse_57" data-name="Ellipse 57" cx="2.171" cy="2.171" r="2.171" transform="translate(159.927 195.579)" fill="url(#linear-gradient-6)"/>
        <circle id="Ellipse_58" data-name="Ellipse 58" cx="2.171" cy="2.171" r="2.171" transform="translate(139.066 90.64)" fill="url(#linear-gradient-7)"/>
        <circle id="Ellipse_59" data-name="Ellipse 59" cx="2.171" cy="2.171" r="2.171" transform="translate(409.802 307.19)" fill="url(#linear-gradient-8)"/>
        <path id="Path_2829" data-name="Path 2829" d="M379.377,100.519a29.909,29.909,0,0,0-24.965,49.262l-3.207,9.186a1.114,1.114,0,0,0,1.537,1.448l9.743-3.953a29.92,29.92,0,1,0,16.892-55.91Z" transform="translate(39.819 1.112)" fill="none" stroke="rgba(99,162,255,0.4)" stroke-miterlimit="10" stroke-width="1"/>
        <path id="Path_2830" data-name="Path 2830" d="M364.51,144.828l-3.741-2.962a3.341,3.341,0,0,1-.546-4.677l2.839-3.6a3.341,3.341,0,0,1,4.688-.546s2.093,2.06,3.875,1.236c2.015-.924,5.935-5.267,7.884-8.407,1.358-2.227-2.227-4.844-2.227-4.844a3.341,3.341,0,0,1-.546-4.677l2.839-3.6a3.341,3.341,0,0,1,4.677-.546l3.641,2.962C396.356,121.845,371.814,150.651,364.51,144.828Z" transform="translate(41.132 2.368)" fill="url(#linear-gradient-9)"/>
        <path id="Path_2831" data-name="Path 2831" d="M464.478,237.115a25.611,25.611,0,0,0-13.975,44.93l-1.414,7.795a1.114,1.114,0,0,0,1.737,1.2l7.394-4.454a25.611,25.611,0,1,0,6.258-49.485Z" transform="translate(51.365 18)" fill="none" stroke="#63a2ff" stroke-miterlimit="10" stroke-width="1" opacity="0.4"/>
        <path id="Path_2832" data-name="Path 2832" d="M465.49,272.384a2.049,2.049,0,0,1-2.049-2.038v-2.405a8.53,8.53,0,0,1,4.454-7.583,5.289,5.289,0,0,0,2.9-4.81,5.4,5.4,0,0,0-5.234-5.222h-.078a5.323,5.323,0,0,0-5.311,5.311,2.049,2.049,0,1,1-4.087,0,9.331,9.331,0,0,1,2.795-6.681,9.576,9.576,0,0,1,6.681-2.706,9.454,9.454,0,0,1,9.264,9.264,9.32,9.32,0,0,1-5.122,8.507,4.454,4.454,0,0,0-2.227,3.942v2.405a2.038,2.038,0,0,1-1.982,2.015Zm0,1.347a2.049,2.049,0,1,0,2.049,2.049A2.049,2.049,0,0,0,465.49,273.732Z" transform="translate(53.014 19.025)" fill="url(#linear-gradient-10)"/>
        <path id="Path_2833" data-name="Path 2833" d="M181.333,115.306a35.454,35.454,0,0,1,44.73,48.115l6.815,9.788a1.169,1.169,0,0,1-1.114,1.837l-12.817-1.459a35.465,35.465,0,1,1-37.615-58.281Z" transform="translate(16.599 2.537)" fill="none" stroke="#fff" stroke-miterlimit="10" stroke-width="1.5"/>
        <path id="Path_2834" data-name="Path 2834" d="M206.971,163.869l-33.361-6.3.5-24.687,40.421,7.071Z" transform="translate(18.365 4.795)" fill="#63a2ff"/>
        <path id="Path_2835" data-name="Path 2835" d="M214.481,141.285l-40.421-7.071,23.117-13.084Z" transform="translate(18.419 3.461)" fill="#3d8bff"/>
        <rect id="Rectangle_1574" data-name="Rectangle 1574" width="32.849" height="27.749" transform="matrix(0.985, 0.172, -0.172, 0.985, 196.75, 136.324)" fill="#fff"/>
        <path id="Path_2836" data-name="Path 2836" d="M174.529,132.88l-4.6,26.279,22.348-8.674Z" transform="translate(17.862 4.795)" fill="#3d8bff"/>
        <path id="Path_2837" data-name="Path 2837" d="M212.671,139.23l-4.6,26.279L190,149.764Z" transform="translate(20.322 5.933)" fill="#3d8bff"/>
        <path id="Path_2838" data-name="Path 2838" d="M210.351,165.252l-40.421-7.071,23.807-16.692Z" transform="translate(17.912 6.205)" fill="#63a2ff" opacity="0.4"/>
        <path id="Path_2839" data-name="Path 2839" d="M210.351,164.885l-40.421-7.071,23.117-13.084Z" transform="translate(17.912 6.595)" fill="#3d8bff"/>
        <rect id="Rectangle_1575" data-name="Rectangle 1575" width="32.448" height="94.693" transform="translate(179.229 315.322) rotate(-4.47)" fill="url(#linear-gradient-11)"/>
        <rect id="Rectangle_1576" data-name="Rectangle 1576" width="32.448" height="12.739" transform="translate(184.14 377.968) rotate(-4.47)" fill="#abbdff" opacity="0.55"/>
        <rect id="Rectangle_1577" data-name="Rectangle 1577" width="32.448" height="5.378" transform="translate(185.412 394.067) rotate(-4.47)" fill="#abbdff" opacity="0.55"/>
        <rect id="Rectangle_1578" data-name="Rectangle 1578" width="28.172" height="93.123" transform="translate(150.807 315.312)" fill="url(#linear-gradient-12)"/>
        <rect id="Rectangle_1579" data-name="Rectangle 1579" width="28.172" height="13.162" transform="translate(150.807 383.058)" fill="#9fc4fc" opacity="0.55"/>
        <rect id="Rectangle_1580" data-name="Rectangle 1580" width="28.172" height="5.1" transform="translate(150.807 399.393)" fill="#9fc4fc" opacity="0.55"/>
        <rect id="Rectangle_1581" data-name="Rectangle 1581" width="39.352" height="93.123" transform="translate(111.14 315.312)" fill="url(#linear-gradient-13)"/>
        <rect id="Rectangle_1582" data-name="Rectangle 1582" width="39.352" height="5.69" transform="translate(111.14 329.65)" fill="#9fc4fc" opacity="0.75"/>
        <rect id="Rectangle_1583" data-name="Rectangle 1583" width="39.352" height="5.1" transform="translate(111.14 391.231)" fill="#9fc4fc" opacity="0.75"/>
        <path id="Path_2840" data-name="Path 2840" d="M178.236,392.368s-10.879-95.217,29.519-138.989c29.787-32.292,70.408-34.319,97.989-29.308,83.213,15.088,55.52,167.183,55.52,167.183" transform="translate(19.414 17.158)" fill="#83b9fd"/>
        <path id="Path_2841" data-name="Path 2841" d="M339.177,258.176c-5.846-10.6-18.05-28.495-58.326-28-36.067.434-55.342,38.761-59.083,46.166-.434.869-.657,1.347-.657,1.347L212.76,391.441H347.217S345.023,268.765,339.177,258.176Z" transform="translate(23.606 18.085)" fill="#dfebff"/>
        <g id="Group_2691" data-name="Group 2691" transform="translate(271.33 251.364)">
            <path id="Path_2842" data-name="Path 2842" d="M250.41,242.932c28.016-9.754,52.692-8.14,78.826,5.89" transform="translate(-243.272 -232.533)" fill="none" stroke="#c1daff" stroke-miterlimit="10" stroke-width="2"/>
            <path id="Path_2843" data-name="Path 2843" d="M251.51,247.275c12.549-5.178,26.424-6.5,39.975-5.735s26.9,3.541,40.187,6.314" transform="translate(-243.148 -232.01)" fill="none" stroke="#c1daff" stroke-miterlimit="10" stroke-width="2"/>
            <path id="Path_2844" data-name="Path 2844" d="M246.52,253.8a183.574,183.574,0,0,1,85.162-2.973" transform="translate(-243.714 -231.345)" fill="none" stroke="#c1daff" stroke-miterlimit="10" stroke-width="2"/>
            <path id="Path_2845" data-name="Path 2845" d="M252,256.024a368.08,368.08,0,0,1,57.48-4.454c10.166,0,20.589.49,29.92,4.521" transform="translate(-243.092 -230.849)" fill="none" stroke="#c1daff" stroke-miterlimit="10" stroke-width="2"/>
            <path id="Path_2846" data-name="Path 2846" d="M247.46,261.349a235.443,235.443,0,0,1,90.195-.857" transform="translate(-243.607 -230.283)" fill="none" stroke="#c1daff" stroke-miterlimit="10" stroke-width="2"/>
            <path id="Path_2847" data-name="Path 2847" d="M246,265.131a866.623,866.623,0,0,1,96.364.111" transform="translate(-243.773 -229.455)" fill="none" stroke="#c1daff" stroke-miterlimit="10" stroke-width="2"/>
            <path id="Path_2848" data-name="Path 2848" d="M254,272.173a789.247,789.247,0,0,1,85.741,1.258" transform="translate(-242.865 -228.58)" fill="none" stroke="#c1daff" stroke-miterlimit="10" stroke-width="2"/>
            <path id="Path_2849" data-name="Path 2849" d="M255,277.71a382.316,382.316,0,0,0,91.308,2.283" transform="translate(-242.751 -227.881)" fill="none" stroke="#c1daff" stroke-miterlimit="10" stroke-width="2"/>
            <path id="Path_2850" data-name="Path 2850" d="M256,285q41.69,2.695,83.514,2.138" transform="translate(-242.638 -227.054)" fill="none" stroke="#c1daff" stroke-miterlimit="10" stroke-width="2"/>
            <path id="Path_2851" data-name="Path 2851" d="M253,290.66a265.766,265.766,0,0,0,87.467,2.472" transform="translate(-242.978 -226.411)" fill="none" stroke="#c1daff" stroke-miterlimit="10" stroke-width="2"/>
            <path id="Path_2852" data-name="Path 2852" d="M257,302.31c24.809,2.227,49.73,3.218,74.606,3.062" transform="translate(-242.524 -225.089)" fill="none" stroke="#c1daff" stroke-miterlimit="10" stroke-width="2"/>
            <path id="Path_2853" data-name="Path 2853" d="M250.49,310.39a868.742,868.742,0,0,0,87.968,1.748" transform="translate(-243.263 -224.172)" fill="none" stroke="#c1daff" stroke-miterlimit="10" stroke-width="2"/>
            <path id="Path_2854" data-name="Path 2854" d="M244.5,315.34q49.206,2.962,98.546,1.937" transform="translate(-243.943 -223.61)" fill="none" stroke="#c1daff" stroke-miterlimit="10" stroke-width="2"/>
            <path id="Path_2855" data-name="Path 2855" d="M254.51,324.59h89.627" transform="translate(-242.807 -222.56)" fill="none" stroke="#c1daff" stroke-miterlimit="10" stroke-width="2"/>
            <path id="Path_2856" data-name="Path 2856" d="M244,329.12l97.989,3.441" transform="translate(-244 -222.045)" fill="none" stroke="#c1daff" stroke-miterlimit="10" stroke-width="2"/>
            <path id="Path_2857" data-name="Path 2857" d="M252.52,336.42q47.536,3.574,95.194,5.178" transform="translate(-243.033 -221.217)" fill="none" stroke="#c1daff" stroke-miterlimit="10" stroke-width="2"/>
            <path id="Path_2858" data-name="Path 2858" d="M246.51,343.64q48.494.089,96.876,2.517" transform="translate(-243.715 -220.397)" fill="none" stroke="#c1daff" stroke-miterlimit="10" stroke-width="2"/>
            <path id="Path_2859" data-name="Path 2859" d="M256,355.3a413.6,413.6,0,0,1,82.924,1.258" transform="translate(-242.638 -219.244)" fill="none" stroke="#c1daff" stroke-miterlimit="10" stroke-width="2"/>
            <path id="Path_2860" data-name="Path 2860" d="M253,363.59h87.411" transform="translate(-242.978 -218.133)" fill="none" stroke="#c1daff" stroke-miterlimit="10" stroke-width="2"/>
            <path id="Path_2861" data-name="Path 2861" d="M267,369.47l66.811.624" transform="translate(-241.389 -217.465)" fill="none" stroke="#f4dce9" stroke-miterlimit="10" stroke-width="2"/>
            <path id="Path_2862" data-name="Path 2862" d="M249.51,240.12c.6-1.436,2.227-2.1,3.7-2.606,19.832-6.781,44.774-5.946,64.083,2.227" transform="translate(-243.375 -232.961)" fill="none" stroke="#c1daff" stroke-miterlimit="10" stroke-width="2"/>
        </g>
        <g id="Group_2692" data-name="Group 2692" transform="translate(288.77 247.215)" opacity="0.4">
            <path id="Path_2863" data-name="Path 2863" d="M259.84,232.882l.835,1.114c4.61.568,12.828,1.837,18.774,7.795a15.01,15.01,0,0,0,6.425,3.753c2.405.69,5.278.323,6.926-1.548a7.705,7.705,0,0,0,1.626-3.8,17.2,17.2,0,0,0-.668-8.563,1.114,1.114,0,0,0-.067-.178,107.852,107.852,0,0,0-18.184-1.225A49.642,49.642,0,0,0,259.84,232.882Z" transform="translate(-259.84 -230.215)" fill="#f4dce9"/>
        </g>
        <path id="Path_2864" data-name="Path 2864" d="M403.374,283.043a82.066,82.066,0,0,0,15.344-16.914c.835-1.225,8.1-14,7.472-14.253-1.715-.724-8.574,8.73-8.574,8.73s8.608-11.915,6.681-13.084c-.757-.445-9.331,10.979-9.331,10.979s8.44-11.97,6.681-13.017c-.88-.534-9.688,11.4-9.688,11.4s7.316-11.48,5.935-12.193-9.9,10.59-13.663,16.558-6,18.807-6,18.807" transform="translate(46.448 18.863)" fill="url(#linear-gradient-14)"/>
        <path id="Path_2865" data-name="Path 2865" d="M398.25,272.725a93.63,93.63,0,0,1,3.341-11.915,36.158,36.158,0,0,1,6.035-10.757c.323-.379.913-.746,1.236-.379a.858.858,0,0,1,.134.523,8.764,8.764,0,0,1-.824,3.24c-.267.679-.535,1.358-.813,2.038a4.844,4.844,0,0,0-.468,3.274,6.687,6.687,0,0,0,.646,1.169c2.3,3.7,2.873,10.768-3.4,15.9" transform="translate(46.45 19.4)" fill="url(#linear-gradient-15)"/>
        <path id="Path_2866" data-name="Path 2866" d="M406.391,258.15c2.227,4.454,1.436,9.008-1.537,12.861-.134.156.078.39.234.234a10.79,10.79,0,0,0,1.514-13.24c-.078-.134-.29,0-.212.134Z" transform="translate(47.195 20.368)" fill="#f49e87"/>
        <path id="Path_2867" data-name="Path 2867" d="M408.94,254.829c3.151,1.77,5.946,3.931,8.908,5.991.156.111.334-.134.2-.267A32.514,32.514,0,0,0,409,254.74s-.1,0,0,.089Z" transform="translate(47.664 19.946)" fill="#f49e87"/>
        <path id="Path_2868" data-name="Path 2868" d="M302.2,234.08s22.994,8.184,37.859,28.228c12.082,16.3,28.584,58.27,28.584,58.27l40.087-47.514s5.568,1.9,9.632,8.908c0,4.454-33.116,85.351-52.046,84.983s-51.5-41.2-51.5-41.2" transform="translate(34.65 18.53)" fill="#d1e0f8"/>
        <path id="Path_2869" data-name="Path 2869" d="M323.32,333.183c7.984,8.6,19.141,19.4,29.23,24.976-4.22-12.482-10.267-35.9-15.589-79.06l-10.99,43.2Z" transform="translate(36.689 23.64)" fill="#cc729b" opacity="0.45"/>
        <path id="Path_2870" data-name="Path 2870" d="M283.15,392.334c2.561-93.97-15.467-160.224-15.467-160.224s-22.8,5.178-46.111,30.922c-12.36,14.353-.145,23.985-4.064,47.024-7.238,42.592-12.249,82.278-12.249,82.278Z" transform="translate(22.397 18.306)" fill="#d1e0f8"/>
        <path id="Path_2871" data-name="Path 2871" d="M217.5,304.591c-6.681,39.107-11.4,75.719-12.148,81.476,37.859.29,62.513-12.249,71.165-19.4a61.347,61.347,0,0,1,6.87.278V361.2a19.776,19.776,0,0,0-3.753-9.61l-46.645-2.828s21.535-41.323,21.535-60.943C254.523,287.788,224.736,262,217.5,304.591Z" transform="translate(22.408 23.749)" fill="#63a2ff" opacity="0.45"/>
        <path id="Path_2872" data-name="Path 2872" d="M248,238.57s2.684,31.757,2.684,40.309c2.127,2.127,11.659,5.278,11.659,5.278s-7.472,3.675-7.472,6.135,19.854,50.743,23.673,72.468" transform="translate(27.459 19.04)" fill="none" stroke="#63a2ff" stroke-miterlimit="10" stroke-width="1" opacity="0.4"/>
        <path id="Path_2873" data-name="Path 2873" d="M339.564,285.815c2.984,32.414,6.4,106.218,6.4,106.218h-42.6c4.866-99.1-1.113-157.473-1.113-157.473a60.386,60.386,0,0,1,37.314,51.255Z" transform="translate(34.183 18.584)" fill="#d1e0f8"/>
        <path id="Path_2874" data-name="Path 2874" d="M315.576,241.34s5.568,22.883,4.888,34.742c-1.793,2.416-9.532,6.77-9.532,6.77s7.928,2.528,8.3,4.955S305.51,344.1,304.92,366.154" transform="translate(34.363 19.354)" fill="none" stroke="#63a2ff" stroke-miterlimit="10" stroke-width="1" opacity="0.4"/>
        <path id="Path_2875" data-name="Path 2875" d="M267.461,346.842a46.443,46.443,0,0,1,12.026-4.064c1.715-.312,7.227-1.325,7.672-.345.6,1.37-6.269,2.906-4.454,2.906s14.086-1.6,14.164-.367-11.4,3.708-11.4,3.708,13.362-1.114,13.362.39-12.36,2.305-12.36,2.305,11.514-.178,11.569,1.292-11.87,1.269-11.87,1.269,9.164.546,9.164,1.526-14.175,3.563-30.432-.679" transform="translate(29.547 30.782)" fill="url(#linear-gradient-16)"/>
        <path id="Path_2876" data-name="Path 2876" d="M259.392,288.509c-3.073,21.892-33.973,65.374-33.973,65.374l52.914,1.392a12.449,12.449,0,0,1,1.214,10.322c-3.341,5.712-57.223,22.348-80.986,22.348-25.611,0-11.892-81.532,24.5-127.186" transform="translate(20.007 21.559)" fill="#d1e0f8"/>
        <ellipse id="Ellipse_60" data-name="Ellipse 60" cx="15.934" cy="14.743" rx="15.934" ry="14.743" transform="translate(334.127 223.604) rotate(-86.52)" fill="#223d73"/>
        <ellipse id="Ellipse_61" data-name="Ellipse 61" cx="15.556" cy="13.952" rx="15.556" ry="13.952" transform="translate(334.113 223.596) rotate(-86.52)" fill="#26447e"/>
        <path id="Path_2877" data-name="Path 2877" d="M327.355,198.724c-.512,8.407-6.948,14.865-14.375,14.42s-13.028-7.639-12.516-16.057,6.948-14.877,14.376-14.476S327.867,190.306,327.355,198.724Z" transform="translate(33.871 11.239)" fill="#63a2ff"/>
        <ellipse id="Ellipse_62" data-name="Ellipse 62" cx="10.011" cy="7.873" rx="10.011" ry="7.873" transform="translate(338.353 218.618) rotate(-86.52)" fill="#cc729b" opacity="0.45"/>
        <path id="Path_2878" data-name="Path 2878" d="M296.661,151.241c-1.659-2.227-2.361-4.933-3.641-7.349-3.174-5.968-9.81-9.487-16.491-10.456a13.608,13.608,0,0,0-6.826.423c-3.73,1.448-6.124,5.323-9.877,6.681a17.814,17.814,0,0,1-4.454.757,69.663,69.663,0,0,0-15.2,2.873,19.21,19.21,0,0,0-5.423,2.55,12.371,12.371,0,0,0-4.276,13.73c.791,2.227,2.227,4.287,2.494,6.681s-.835,5.011,0,7.349a9.476,9.476,0,0,0,2.472,3.4,25.311,25.311,0,0,0,6.024,4.933,26.471,26.471,0,0,0,7.282,2.227,49.664,49.664,0,0,0,9.9,1.247,16.48,16.48,0,0,0,9.454-2.739,24.608,24.608,0,0,0,5.657-6.592" transform="translate(25.385 4.83)" fill="#26447e"/>
        <path id="Path_2879" data-name="Path 2879" d="M279.77,147.719c-5.434,2.416-11.046,4.966-14.955,9.443-2.706,3.1-4.454,6.926-6.681,10.4s-5.178,6.8-9.153,7.873a18.929,18.929,0,0,1-7.795,0,4.454,4.454,0,0,1-2.784-1.114,4.755,4.755,0,0,1-.791-2.695c-.312-3.341-1.169-6.837-3.608-9.131a7.015,7.015,0,0,0-2.984-1.637,15.589,15.589,0,0,1,1.759,4.888c.256,2.45-.835,5.011,0,7.349a9.476,9.476,0,0,0,2.472,3.4,25.31,25.31,0,0,0,6.024,4.933,26.468,26.468,0,0,0,7.282,2.227,49.661,49.661,0,0,0,9.9,1.247,16.48,16.48,0,0,0,9.454-2.739,24.608,24.608,0,0,0,5.657-6.592l22.972-25.611C291.517,142.964,282.977,146.294,279.77,147.719Z" transform="translate(25.523 6.741)" fill="#223d73"/>
        <path id="Path_2880" data-name="Path 2880" d="M282.734,214.69l-7.271,17.337a7.8,7.8,0,0,0,0,6.08c1.77,4.053,5.568,10.434,11.837,10.434,10.022,0,11.28-11.993,11.28-11.993l1.036-16.012" transform="translate(30.724 15.175)" fill="#f0bc99"/>
        <path id="Path_2881" data-name="Path 2881" d="M298.3,229.567l.59-9.031-16.9-5.846-.579,1.381A37.67,37.67,0,0,0,298.3,229.567Z" transform="translate(31.495 15.106)" fill="#f49e87"/>
        <path id="Path_2882" data-name="Path 2882" d="M319.211,168.137a22.415,22.415,0,0,1,5.1,6.915c3.641,7.672,1.414,16.09-.089,24.019s-2.728,19.308-8.162,25.845c-14.119,16.992-39.118-.1-43.705-17.115-3.14-11.67-5.133-27.559,3.418-37.581C285.973,158.249,307.8,157.614,319.211,168.137Z" transform="translate(30.243 8.666)" fill="#f0bc99"/>
        <path id="Path_2883" data-name="Path 2883" d="M270.254,197c8.028,1,23.807-11.458,31.412-26.646,1.626.245,2.439,2.483,4.042,3.162a2.55,2.55,0,0,0,1.848.156,1.381,1.381,0,0,0,.924-1.47,5.256,5.256,0,0,0,1.592,1.893,2.65,2.65,0,0,0,2.383.334,1.77,1.77,0,0,0,1.113-2.015c4.888,1.024,9.721,8.763,10.823,13.707,1.459,6.525,2,13.83-.479,24.887,5.434-.49,11.48-9.053,14.075-13.852,5.3-9.81,1.659-22.615-5.378-30.577a20.209,20.209,0,0,0-6.492-5.189c-3-1.347-6.314-1.058-9.476-1.648-5-5.646-14.888-10.656-23.729-11.636-9.732-1.113-22.048,4.454-27.994,11.859s-9.665,17.092-9.064,26.947c.534,8.775,6.492,16.235,12.883,22.27" transform="translate(28.68 7.07)" fill="#26447e"/>
        <path id="Path_2884" data-name="Path 2884" d="M285.236,216.415a25.13,25.13,0,0,1-3.63-.479,15.879,15.879,0,0,1-9.365-5.634,6.859,6.859,0,0,1-1.581-3.741.557.557,0,0,1,.523-.59.568.568,0,0,1,.59.523,5.79,5.79,0,0,0,1.347,3.129,14.732,14.732,0,0,0,8.719,5.222,35.7,35.7,0,0,0,10.289.278.546.546,0,0,1,.6.5.557.557,0,0,1-.512.6,49.3,49.3,0,0,1-6.982.189Z" transform="translate(30.199 14.031)" fill="#081466"/>
        <path id="Path_2885" data-name="Path 2885" d="M292.67,213.406a4.142,4.142,0,0,0-3.14-.078c-3.508,1.214.457,5.568,3.586,3.207a2.227,2.227,0,0,0,.635-.7,1.926,1.926,0,0,0-1.08-2.427Z" transform="translate(32.267 14.873)" fill="#081466"/>
        <path id="Path_2886" data-name="Path 2886" d="M306.357,195.284c.813.167.056,7.95.557,8.908s2.227,2.817.88,3.73-3.341,1.225-4.588.223a3.252,3.252,0,0,1-1.036-2.583,24.79,24.79,0,0,1,.635-4.332C303.095,199.66,303.83,194.761,306.357,195.284Z" transform="translate(33.98 12.735)" fill="url(#linear-gradient-17)"/>
        <path id="Path_2887" data-name="Path 2887" d="M315.016,193.877a1.893,1.893,0,1,1-3.5-1.047c.379-1.281,1.481-2.093,2.439-1.8A2.227,2.227,0,0,1,315.016,193.877Z" transform="translate(35.078 12.191)" fill="#081466"/>
        <path id="Path_2888" data-name="Path 2888" d="M295.134,191.342c-.356,1.292-1.425,2.127-2.405,1.86a2.227,2.227,0,0,1-1.114-2.817c.356-1.292,1.425-2.127,2.394-1.86A2.227,2.227,0,0,1,295.134,191.342Z" transform="translate(32.662 11.888)" fill="#081466"/>
        <path id="Path_2889" data-name="Path 2889" d="M311.56,185.922l.223-.323a3.43,3.43,0,0,1,.668-.713,3.341,3.341,0,0,1,1.114-.624,2.626,2.626,0,0,1,.657-.122,3.343,3.343,0,0,1,.668.056,2.494,2.494,0,0,1,.6.234,2.562,2.562,0,0,1,.523.39,2.9,2.9,0,0,1,.679,1.024,2.94,2.94,0,0,1,.256.913v.367s-.078-.089-.189-.245a5.647,5.647,0,0,0-.49-.59,4.705,4.705,0,0,0-.746-.624,3.339,3.339,0,0,0-.969-.4,3.684,3.684,0,0,0-1.047-.067.922.922,0,0,0-.512.1l-.468.145a6.593,6.593,0,0,0-.724.334Z" transform="translate(35.125 11.357)" fill="#081466"/>
        <path id="Path_2890" data-name="Path 2890" d="M290.11,183.677l.212-.379a3.541,3.541,0,0,1,.7-.857,4.454,4.454,0,0,1,1.281-.835,4.813,4.813,0,0,1,.8-.256,3.93,3.93,0,0,1,1.715,0,4.453,4.453,0,0,1,.8.223,4.131,4.131,0,0,1,1.28.8,3.608,3.608,0,0,1,.7.835l.2.367-.334-.2a5.9,5.9,0,0,0-.857-.445,3.778,3.778,0,0,0-.568-.223c-.2-.089-.434-.111-.657-.189a7.462,7.462,0,0,0-1.425-.134,7.562,7.562,0,0,0-1.436.189c-.212.078-.445.111-.646.2s-.4.156-.579.245a5.754,5.754,0,0,0-.857.479Z" transform="translate(32.514 11.005)" fill="#081466"/>
        <path id="Path_2891" data-name="Path 2891" d="M307.218,210.61a8.3,8.3,0,0,1-7.071-.434.356.356,0,0,0-.546.234c-.735,5.768,2.227,7.349,3.6,7.438,4.153.256,4.588-4.732,4.51-6.948a.334.334,0,0,0-.49-.289Z" transform="translate(33.663 14.527)" fill="#fff"/>
        <path id="Path_2892" data-name="Path 2892" d="M295.339,205.232c1.759-1.826,2.372-5.657-.568-7.494a7.327,7.327,0,0,0-5-.7,4.632,4.632,0,0,0-3.051,4.454c0,2.439,1.013,4.254,3.24,5A5.367,5.367,0,0,0,295.339,205.232Z" transform="translate(32.111 12.922)" fill="#efa39c"/>
        <path id="Path_2893" data-name="Path 2893" d="M316.454,206.537c1.314-1.693,1.815-5.234-.345-6.882a3.719,3.719,0,0,0-6,3.586c0,2.227.7,3.886,2.338,4.554a3.53,3.53,0,0,0,4.009-1.258Z" transform="translate(34.95 13.157)" fill="#efa39c"/>
        <path id="Path_2894" data-name="Path 2894" d="M270.14,185.428a41.579,41.579,0,0,1,11.937-19.6,38.283,38.283,0,0,1,20.745-9.7c5.846-.746,4.655-1.5,9.944.379l3.7,2.606c-9.309-1.047-18.507,2.316-26.034,7.895A37.86,37.86,0,0,0,275.9,190.283" transform="translate(30.25 7.916)" fill="#63a2ff"/>
        <path id="Path_2895" data-name="Path 2895" d="M269.08,184.64a41.69,41.69,0,0,1,11.948-19.609,38.305,38.305,0,0,1,20.745-9.688c5.835-.746,7.26-.49,10.957.646l2.684,2.338c-9.309-1.047-18.507,2.316-26.034,7.884a37.859,37.859,0,0,0-14.531,23.317" transform="translate(30.119 7.865)" fill="#3d8bff"/>
        <path id="Path_2896" data-name="Path 2896" d="M285.844,198.375c-.534,8.775-7.561,15.5-15.678,15s-14.286-8.006-13.752-16.792,7.55-15.5,15.678-15.01S286.378,189.59,285.844,198.375Z" transform="translate(28.482 11.115)" fill="#223d73"/>
        <ellipse id="Ellipse_63" data-name="Ellipse 63" cx="15.556" cy="13.952" rx="15.556" ry="13.952" transform="translate(283.938 223.616) rotate(-86.52)" fill="#26447e"/>
        <ellipse id="Ellipse_64" data-name="Ellipse 64" cx="15.266" cy="13.474" rx="15.266" ry="13.474" transform="translate(283.238 223.571) rotate(-86.52)" fill="#3d8bff"/>
        <ellipse id="Ellipse_65" data-name="Ellipse 65" cx="10.011" cy="7.873" rx="10.011" ry="7.873" transform="translate(288.178 218.615) rotate(-86.52)" fill="#63a2ff" opacity="0.45"/>
        <path id="Path_2897" data-name="Path 2897" d="M467.3,331.343c-.056,2.015-1.993,3.652-3.552,4.977-4.666,3.942-7.294,10.89-14.643,8.34-2.94-1.025-2.294-4.242-4.243-6.147s-5.49-2.483-7.182-4.966c-3.341-4.8,5.69-4.554,2.3-9.042-4.064-5.389,1.3-11.224,5.968-13.618,4.9-2.505,15.155-6.458,19.509-1.114,1.915,2.349,1.381,5.111.078,7.605-1.114,2.116-4.076,4.666-3.229,7.294.713,2.227,3.341,2.795,4.454,4.744a3.664,3.664,0,0,1,.535,1.926Zm.791-33a4.231,4.231,0,0,0-3.229-2.962c-4.51-.8-7.717,5.924-3.508,8.452a4.521,4.521,0,0,0,6.737-5.523Zm3.185,23.083a2.015,2.015,0,0,0-1.537-1.414c-2.149-.379-4.61,3.563-2.606,4.766s4.866-1.637,4.142-3.352Z" transform="translate(50.84 25.481)" opacity="0.2" fill="url(#linear-gradient-18)"/>
        <path id="Path_2898" data-name="Path 2898" d="M465.221,370.027H455.89v-4.454h9.331a5.467,5.467,0,0,0,5.467-5.456V352.01a5.467,5.467,0,0,0-5.467-5.456H455.89V342.1h9.331a9.933,9.933,0,0,1,9.921,9.91v8.162A9.933,9.933,0,0,1,465.221,370.027Z" transform="translate(52.993 30.792)" fill="#63a2ff"/>
        <path id="Path_2899" data-name="Path 2899" d="M436.09,336.41h30.6v32.949a8.908,8.908,0,0,1-8.908,8.908H445a8.908,8.908,0,0,1-8.908-8.908Z" transform="translate(50.746 30.146)" fill="url(#linear-gradient-19)"/>
        <path id="Path_2900" data-name="Path 2900" d="M260.114,368.17h98.167v6.492H255.56v-1.915a4.554,4.554,0,0,1,4.554-4.577Z" transform="translate(28.755 33.751)" fill="#99c1f9"/>
        <path id="Path_2901" data-name="Path 2901" d="M328.569,302.355,313.18,382.617H445.555l15.522-81.365a2.739,2.739,0,0,0-2.706-3.162H333.524a5.067,5.067,0,0,0-4.955,4.265Z" transform="translate(36.794 25.796)" fill="#99c1f9"/>
        <path id="Path_2902" data-name="Path 2902" d="M331.394,302.353,316.05,382.615H448.414l15.522-81.342a2.728,2.728,0,0,0-2.695-3.162H336.383a5.055,5.055,0,0,0-4.988,4.242Z" transform="translate(37.119 25.798)" fill="#d8e7fc"/>
        <path id="Path_2903" data-name="Path 2903" d="M395.642,337.969a11.324,11.324,0,0,1-10.846,9.51,8.073,8.073,0,0,1-8.173-9.51,11.3,11.3,0,0,1,10.846-9.5,8.073,8.073,0,0,1,8.173,9.5Z" transform="translate(43.145 29.244)" fill="#99c1f9"/>
        <rect id="Rectangle_1584" data-name="Rectangle 1584" width="17.46" height="2.227" transform="translate(293.027 404.037)" fill="#63a2ff"/>
        <rect id="Rectangle_1585" data-name="Rectangle 1585" width="0.835" height="3.14" transform="translate(316.13 403.681)" fill="#63a2ff"/>
        <rect id="Rectangle_1586" data-name="Rectangle 1586" width="0.835" height="3.14" transform="translate(317.914 403.681)" fill="#63a2ff"/>
        <rect id="Rectangle_1587" data-name="Rectangle 1587" width="0.835" height="3.14" transform="translate(319.698 403.681)" fill="#63a2ff"/>
        <rect id="Rectangle_1588" data-name="Rectangle 1588" width="0.835" height="3.14" transform="translate(321.483 403.681)" fill="#63a2ff"/>
        <rect id="Rectangle_1589" data-name="Rectangle 1589" width="0.835" height="3.14" transform="translate(323.267 403.681)" fill="#63a2ff"/>
        <rect id="Rectangle_1590" data-name="Rectangle 1590" width="0.835" height="3.14" transform="translate(325.051 403.681)" fill="#63a2ff"/>
        <rect id="Rectangle_1591" data-name="Rectangle 1591" width="0.835" height="3.14" transform="translate(326.846 403.681)" fill="#63a2ff"/>
        <rect id="Rectangle_1592" data-name="Rectangle 1592" width="0.835" height="3.14" transform="translate(332.053 403.681)" fill="#63a2ff"/>
        <rect id="Rectangle_1593" data-name="Rectangle 1593" width="0.835" height="3.14" transform="translate(333.837 403.681)" fill="#63a2ff"/>
        <rect id="Rectangle_1594" data-name="Rectangle 1594" width="0.835" height="3.14" transform="translate(335.621 403.681)" fill="#63a2ff"/>
        <rect id="Rectangle_1595" data-name="Rectangle 1595" width="0.835" height="3.14" transform="translate(340.828 403.681)" fill="#63a2ff"/>
        <rect id="Rectangle_1596" data-name="Rectangle 1596" width="0.835" height="3.14" transform="translate(342.612 403.681)" fill="#63a2ff"/>
        <path id="Path_2904" data-name="Path 2904" d="M121,374H463.978v2.227H121Zm352.837,2.227h55.251V374H473.8Z" transform="translate(14.978 34.413)" fill="url(#linear-gradient-20)"/>
    </g>
</svg>
