<svg xmlns="http://www.w3.org/2000/svg" xmlns:xlink="http://www.w3.org/1999/xlink" width="122.956" height="101" viewBox="0 0 122.956 101">
  <defs>
    <linearGradient id="linear-gradient" x1="0.5" x2="0.348" y2="0.591" gradientUnits="objectBoundingBox">
      <stop offset="0" stop-color="#9cb4e0" stop-opacity="0.349"/>
      <stop offset="1" stop-color="#9cb4e0" stop-opacity="0"/>
    </linearGradient>
    <linearGradient id="linear-gradient-2" x1="0.69" y1="1.51" x2="0.518" y2="1.473" gradientUnits="objectBoundingBox">
      <stop offset="0" stop-color="#283f6c"/>
      <stop offset="0.519" stop-color="#314a7b"/>
      <stop offset="1" stop-color="#223762"/>
    </linearGradient>
    <linearGradient id="linear-gradient-3" x1="0.69" y1="1.51" x2="0.518" y2="1.473" xlink:href="#linear-gradient-2"/>
    <linearGradient id="linear-gradient-9" x1="0.381" y1="1" x2="0.634" gradientUnits="objectBoundingBox">
      <stop offset="0" stop-color="#142547"/>
      <stop offset="1" stop-color="#223762"/>
    </linearGradient>
    <linearGradient id="linear-gradient-10" x1="1.327" y1="0.5" x2="0.5" y2="1" gradientUnits="objectBoundingBox">
      <stop offset="0" stop-color="#ff6b67"/>
      <stop offset="1" stop-color="#f05971"/>
    </linearGradient>
    <linearGradient id="linear-gradient-11" x1="0.5" y1="1.204" x2="0.734" y2="0.612" gradientUnits="objectBoundingBox">
      <stop offset="0" stop-color="#70b8f9"/>
      <stop offset="1" stop-color="#3d82f0"/>
    </linearGradient>
    <linearGradient id="linear-gradient-12" x1="-0.258" y1="1" x2="0.424" y2="0.304" gradientUnits="objectBoundingBox">
      <stop offset="0" stop-color="#47689b"/>
      <stop offset="1" stop-color="#223762"/>
    </linearGradient>
    <linearGradient id="linear-gradient-14" y1="1.068" x2="0.286" gradientUnits="objectBoundingBox">
      <stop offset="0" stop-color="#cfddf3"/>
      <stop offset="1" stop-color="#a1b8e3"/>
    </linearGradient>
    <linearGradient id="linear-gradient-15" x1="0.893" y1="0.832" x2="0.799" y2="0.257" gradientUnits="objectBoundingBox">
      <stop offset="0" stop-color="#cfddf3" stop-opacity="0.478"/>
      <stop offset="1" stop-color="#a1b8e3"/>
    </linearGradient>
    <linearGradient id="linear-gradient-16" x1="1.188" y1="0" x2="0.685" y2="0.5" xlink:href="#linear-gradient-11"/>
    <linearGradient id="linear-gradient-17" x1="0.5" x2="0.814" y2="0.564" gradientUnits="objectBoundingBox">
      <stop offset="0" stop-color="#164898"/>
      <stop offset="1" stop-color="#223762"/>
    </linearGradient>
    <linearGradient id="linear-gradient-18" y1="0.5" x2="0.755" y2="0.335" gradientUnits="objectBoundingBox">
      <stop offset="0" stop-color="#edf3fd"/>
      <stop offset="1" stop-color="#d6e3fa"/>
    </linearGradient>
    <linearGradient id="linear-gradient-19" x1="0.447" y1="0.578" x2="0.674" y2="0.237" xlink:href="#linear-gradient-14"/>
    <linearGradient id="linear-gradient-20" x1="0.862" y1="2.316" x2="0.57" y2="-0.571" xlink:href="#linear-gradient-14"/>
    <linearGradient id="linear-gradient-21" y1="1.668" x2="0.5" y2="0.204" xlink:href="#linear-gradient-11"/>
    <linearGradient id="linear-gradient-22" x1="0.221" y1="0.112" x2="0.221" y2="0.796" gradientUnits="objectBoundingBox">
      <stop offset="0" stop-color="#d6e3fa"/>
      <stop offset="1" stop-color="#e3edfe"/>
    </linearGradient>
    <linearGradient id="linear-gradient-23" x1="0.599" y1="-0.086" x2="0.477" y2="0.629" gradientUnits="objectBoundingBox">
      <stop offset="0" stop-color="#9cb4e0"/>
      <stop offset="1" stop-color="#fff" stop-opacity="0"/>
    </linearGradient>
    <linearGradient id="linear-gradient-34" x1="0.073" y1="-0.113" x2="0.779" y2="0.854" gradientUnits="objectBoundingBox">
      <stop offset="0" stop-color="#85a6db"/>
      <stop offset="1" stop-color="#c6d4ee"/>
    </linearGradient>
    <linearGradient id="linear-gradient-35" x1="0.197" y1="0.832" x2="0.92" gradientUnits="objectBoundingBox">
      <stop offset="0" stop-color="#edf3fd"/>
      <stop offset="1" stop-color="#d0daea"/>
    </linearGradient>
    <linearGradient id="linear-gradient-36" x1="0.867" y1="0.5" x2="0.5" y2="1" gradientUnits="objectBoundingBox">
      <stop offset="0" stop-color="#b4c9e7"/>
      <stop offset="1" stop-color="#becfec" stop-opacity="0.102"/>
    </linearGradient>
    <linearGradient id="linear-gradient-37" x1="0.5" y1="0" x2="0.5" y2="1" xlink:href="#linear-gradient-18"/>
    <linearGradient id="linear-gradient-38" x1="0.5" y1="1.172" x2="0.828" y2="-0.277" gradientUnits="objectBoundingBox">
      <stop offset="0" stop-color="#e5ecf8"/>
      <stop offset="1" stop-color="#c6d4ee"/>
    </linearGradient>
    <linearGradient id="linear-gradient-39" x1="0.249" y1="1" x2="0.582" y2="-0.449" gradientUnits="objectBoundingBox">
      <stop offset="0" stop-color="#d9e5f6" stop-opacity="0"/>
      <stop offset="1" stop-color="#b2c6ea"/>
    </linearGradient>
    <linearGradient id="linear-gradient-40" x1="1" y1="1" x2="0.232" y2="0.678" gradientUnits="objectBoundingBox">
      <stop offset="0" stop-color="#acc5e9"/>
      <stop offset="0.627" stop-color="#d3e3fb"/>
      <stop offset="1" stop-color="#eaf2ff"/>
    </linearGradient>
    <linearGradient id="linear-gradient-41" x1="0.776" x2="0.403" y2="1.463" gradientUnits="objectBoundingBox">
      <stop offset="0" stop-color="#86a8d9"/>
      <stop offset="1" stop-color="#bcd0f2"/>
    </linearGradient>
    <linearGradient id="linear-gradient-42" x1="0.342" y1="0.05" x2="0.786" y2="1" gradientUnits="objectBoundingBox">
      <stop offset="0" stop-color="#b1ffbe"/>
      <stop offset="0.444" stop-color="#5cdb8e"/>
      <stop offset="1" stop-color="#149654"/>
    </linearGradient>
    <linearGradient id="linear-gradient-43" x1="0.786" y1="-0.093" x2="0.904" y2="0.888" xlink:href="#linear-gradient-42"/>
    <linearGradient id="linear-gradient-45" x1="0.5" y1="0.627" x2="0" y2="0.184" gradientUnits="objectBoundingBox">
      <stop offset="0" stop-color="#004ec0"/>
      <stop offset="1" stop-color="#3d82f0"/>
    </linearGradient>
    <linearGradient id="linear-gradient-46" x1="-0.727" y1="0.378" x2="0.789" y2="0.805" xlink:href="#linear-gradient-11"/>
    <linearGradient id="linear-gradient-47" x1="0.031" y1="0.785" x2="0.699" y2="0.449" xlink:href="#linear-gradient-14"/>
    <linearGradient id="linear-gradient-48" x1="0.461" y1="0.72" x2="0.424" gradientUnits="objectBoundingBox">
      <stop offset="0" stop-color="#fff"/>
      <stop offset="1" stop-color="#d6e3fa"/>
    </linearGradient>
    <linearGradient id="linear-gradient-49" x1="1.246" y1="0.908" x2="0.098" y2="-0.153" gradientUnits="objectBoundingBox">
      <stop offset="0" stop-color="#ffe883"/>
      <stop offset="1" stop-color="#fecc4c"/>
    </linearGradient>
    <linearGradient id="linear-gradient-50" x1="0.398" y1="1" x2="0.43" y2="0" xlink:href="#linear-gradient-18"/>
    <linearGradient id="linear-gradient-51" x1="0.454" y1="1.379" x2="0.361" y2="0.5" xlink:href="#linear-gradient-14"/>
    <linearGradient id="linear-gradient-52" x1="0.454" y1="1.379" x2="0.728" y2="-1.087" xlink:href="#linear-gradient-14"/>
  </defs>
  <g id="image_here" data-name="image here" transform="translate(3 -0.219)">
    <path id="Path_2682" data-name="Path 2682" d="M0,164.325,41.225,154.7l52,18.812L54.264,189.57" transform="translate(-3 -92.629)" fill-rule="evenodd" opacity="0.5" fill="url(#linear-gradient)"/>
    <g id="Group_2651" data-name="Group 2651" transform="translate(43.301 70.39)" opacity="0.4">
      <path id="Path_2683" data-name="Path 2683" d="M11.737,1.2l8.2,3.272M.146,6.34,13.728.146M11.035,13,22.041,2.483" transform="translate(-0.146 -0.146)" fill="none" stroke="#707070" stroke-linecap="round" stroke-width="3.209" fill-rule="evenodd"/>
    </g>
    <path id="Path_2684" data-name="Path 2684" d="M80.871,110.983v4.786a3.03,3.03,0,0,1-1.354,2.129L54.251,128.819a11.729,11.729,0,0,1-7.241.244L1.223,112.255a1.286,1.286,0,0,1-.931-1.235v-4.9l27.532-.691a11.729,11.729,0,0,1,3.325,0Z" transform="translate(37.28 -48.876)" fill-rule="evenodd" fill="url(#linear-gradient-2)"/>
    <g id="Group_2652" data-name="Group 2652" transform="translate(37.572 50.355)">
      <path id="Path_2685" data-name="Path 2685" d="M80.871,95.815v5.6a1.519,1.519,0,0,1-1,1.428l-25.618,10.8a11.728,11.728,0,0,1-7.241.244L1.223,97.436A1.286,1.286,0,0,1,.292,96.2V90.947l27.532-.691a11.729,11.729,0,0,1,3.325,0Z" transform="translate(-0.292 -90.136)"/>
      <path id="Path_2686" data-name="Path 2686" d="M80.871,95.815v5.6a1.519,1.519,0,0,1-1,1.428l-25.618,10.8a11.728,11.728,0,0,1-7.241.244L1.223,97.436A1.286,1.286,0,0,1,.292,96.2V90.947l27.532-.691a11.729,11.729,0,0,1,3.325,0Z" transform="translate(-0.292 -90.136)" fill="url(#linear-gradient-3)"/>
    </g>
    <g id="Group_2653" data-name="Group 2653" transform="translate(37.572 44.398)">
      <path id="Path_2687" data-name="Path 2687" d="M80.871,80.938v5.6a1.519,1.519,0,0,1-1,1.428l-25.618,10.8a11.729,11.729,0,0,1-7.241.244L1.223,82.559a1.286,1.286,0,0,1-.931-1.235V76.071l27.532-.692a11.73,11.73,0,0,1,3.325,0Z" transform="translate(-0.292 -75.259)"/>
      <path id="Path_2688" data-name="Path 2688" d="M80.871,80.938v5.6a1.519,1.519,0,0,1-1,1.428l-25.618,10.8a11.729,11.729,0,0,1-7.241.244L1.223,82.559a1.286,1.286,0,0,1-.931-1.235V76.071l27.532-.692a11.73,11.73,0,0,1,3.325,0Z" transform="translate(-0.292 -75.259)" fill="url(#linear-gradient-3)"/>
    </g>
    <g id="Group_2654" data-name="Group 2654" transform="translate(37.572 38.091)">
      <path id="Path_2689" data-name="Path 2689" d="M80.871,65.186v5.6a1.519,1.519,0,0,1-1,1.428l-25.618,10.8a11.729,11.729,0,0,1-7.241.244L1.223,66.808a1.286,1.286,0,0,1-.931-1.235V60.319l27.532-.692a11.73,11.73,0,0,1,3.325,0Z" transform="translate(-0.292 -59.507)"/>
      <path id="Path_2690" data-name="Path 2690" d="M80.871,65.186v5.6a1.519,1.519,0,0,1-1,1.428l-25.618,10.8a11.729,11.729,0,0,1-7.241.244L1.223,66.808a1.286,1.286,0,0,1-.931-1.235V60.319l27.532-.692a11.73,11.73,0,0,1,3.325,0Z" transform="translate(-0.292 -59.507)" fill="url(#linear-gradient-3)"/>
    </g>
    <g id="Group_2655" data-name="Group 2655" transform="translate(37.572 32.017)">
      <path id="Path_2691" data-name="Path 2691" d="M80.871,50.018v5.6a1.519,1.519,0,0,1-1,1.428l-25.618,10.8a11.729,11.729,0,0,1-7.241.244L1.223,51.639A1.286,1.286,0,0,1,.292,50.4V45.15l27.532-.692a11.73,11.73,0,0,1,3.325,0l49.722,5.562Z" transform="translate(-0.292 -44.339)"/>
      <path id="Path_2692" data-name="Path 2692" d="M80.871,50.018v5.6a1.519,1.519,0,0,1-1,1.428l-25.618,10.8a11.729,11.729,0,0,1-7.241.244L1.223,51.639A1.286,1.286,0,0,1,.292,50.4V45.15l27.532-.692a11.73,11.73,0,0,1,3.325,0l49.722,5.562Z" transform="translate(-0.292 -44.339)" fill="url(#linear-gradient-3)"/>
    </g>
    <g id="Group_2656" data-name="Group 2656" transform="translate(37.572 26.061)">
      <path id="Path_2693" data-name="Path 2693" d="M80.871,35.258V41.33a1.519,1.519,0,0,1-1,1.428L54.251,52.976a11.729,11.729,0,0,1-7.241.244L1.223,37.814a1.286,1.286,0,0,1-.931-1.235V30.273l27.532-.692a11.73,11.73,0,0,1,3.325,0Z" transform="translate(-0.292 -29.462)"/>
      <path id="Path_2694" data-name="Path 2694" d="M80.871,35.258V41.33a1.519,1.519,0,0,1-1,1.428L54.251,52.976a11.729,11.729,0,0,1-7.241.244L1.223,37.814a1.286,1.286,0,0,1-.931-1.235V30.273l27.532-.692a11.73,11.73,0,0,1,3.325,0Z" transform="translate(-0.292 -29.462)" fill="url(#linear-gradient-3)"/>
    </g>
    <g id="Group_2657" data-name="Group 2657" transform="translate(37.549 19.95)">
      <path id="Path_2695" data-name="Path 2695" d="M80.814,21.4v5.488a1.519,1.519,0,0,1-1,1.428l-25.618,9.4a11.729,11.729,0,0,1-7.241.244L1.166,23.488a1.286,1.286,0,0,1-.931-1.235V17.116l27.532-2.795a11.73,11.73,0,0,1,3.325,0L80.814,21.4Z" transform="translate(-0.235 -14.201)"/>
      <path id="Path_2696" data-name="Path 2696" d="M80.814,21.4v5.488a1.519,1.519,0,0,1-1,1.428l-25.618,9.4a11.729,11.729,0,0,1-7.241.244L1.166,23.488a1.286,1.286,0,0,1-.931-1.235V17.116l27.532-2.795a11.73,11.73,0,0,1,3.325,0L80.814,21.4Z" transform="translate(-0.235 -14.201)" fill="url(#linear-gradient-3)"/>
    </g>
    <path id="Path_2697" data-name="Path 2697" d="M32.336.461,79.5,11.394a1.753,1.753,0,0,1,.185,3.362L54.247,23.692a11.687,11.687,0,0,1-7.269.156L1.311,9.981a1.286,1.286,0,0,1,.033-2.47L26.6.576A11.687,11.687,0,0,1,32.336.461Z" transform="translate(37.216 14.177)" fill-rule="evenodd" fill="url(#linear-gradient-9)"/>
    <path id="Path_2698" data-name="Path 2698" d="M145.41,40.517l39.22,9.257L155.122,60.3,117.4,48.978Z" transform="translate(-72.689 -24.153)" fill="#fff" fill-rule="evenodd"/>
    <g id="Group_2658" data-name="Group 2658" transform="translate(56.382 34.291)">
      <path id="Path_2699" data-name="Path 2699" d="M146.6,117.344l7.162,2.457m-7.162-8.184,7.162,2.457M146.6,105.54,153.761,108M146.6,99.113l7.162,2.457m-7.279-9.353,7.376,2.221m.468,28.866V87.66m-8.43,32.606V85.322" transform="translate(-145.897 -85.322)" fill="none" stroke="#1b2b4f" stroke-linecap="round" stroke-width="3.209" fill-rule="evenodd"/>
    </g>
    <g id="Group_2668" data-name="Group 2668" transform="translate(13.749 48.809)">
      <path id="Path_2700" data-name="Path 2700" d="M5.256,5.17,4.428,6a.7.7,0,0,1-.991,0L2.609,5.17H.7a.7.7,0,0,1-.7-.7V.7A.7.7,0,0,1,.7,0H7.26a.7.7,0,0,1,.7.7V4.469a.7.7,0,0,1-.7.7Z" transform="translate(11.467 0.2)" fill-rule="evenodd" fill="url(#linear-gradient-10)"/>
      <path id="Path_2701" data-name="Path 2701" d="M88.368,172.033c-3.218-1.752-.891-3.93,0-2.464C89.258,168.1,91.586,170.281,88.368,172.033Z" transform="translate(-72.909 -167.641)" fill="#fff" fill-rule="evenodd"/>
      <g id="Group_2667" data-name="Group 2667" transform="translate(0 0)">
        <g id="Group_2659" data-name="Group 2659" transform="translate(0.107 15.562)">
          <path id="Path_2702" data-name="Path 2702" d="M.475.866c0,1.183-.976,3.5.3,4.1q1.273.6,2.4-2.52Q3.073.155,1.922.155C.772.155.475-.317.475.866Z" transform="translate(-0.117 -0.062)" fill="url(#linear-gradient-11)"/>
          <path id="Path_2703" data-name="Path 2703" d="M.82,3.308c.1.208,1.5,1.31,1.733,1.571s.284.941.417.871a6.349,6.349,0,0,0,0-2.067Q.718,3.1.82,3.308Z" transform="translate(-0.536 -1.975)" fill="#3d82f0" fill-rule="evenodd" opacity="0.5"/>
        </g>
        <path id="Path_2704" data-name="Path 2704" d="M.071.857a5.855,5.855,0,0,0,0,1.679c.158.3.942.463,1.2.463s.345-.435.747-.212S4.71,3,4.859,2.09,3.847,1.18,3.331,1.18A2.921,2.921,0,0,1,1.5.278.815.815,0,0,0,.07.857Z" transform="translate(2.564 42.524)" fill-rule="evenodd" fill="url(#linear-gradient-12)"/>
        <g id="Group_2660" data-name="Group 2660" transform="translate(4.952 43.311)">
          <path id="Path_2705" data-name="Path 2705" d="M65.062,274.308c-.117-.41-.117-.569-.449-.724m1.112.857c-.117-.411-.284-.548-.725-.411" transform="translate(-64.613 -273.584)" fill="none" stroke="#fff" stroke-linecap="round" stroke-width="0.609" fill-rule="evenodd"/>
        </g>
        <path id="Path_2706" data-name="Path 2706" d="M.078.857c0,.611-.175,1.375,0,1.679S1.121,3,1.408,3s.382-.435.827-.212,2.98.212,3.145-.7S4.258,1.18,3.687,1.18a3.391,3.391,0,0,1-2.026-.9A.912.912,0,0,0,.078.857Z" transform="translate(14.053 43.801)" fill-rule="evenodd" fill="url(#linear-gradient-12)"/>
        <g id="Group_2661" data-name="Group 2661" transform="translate(16.769 44.606)">
          <path id="Path_2707" data-name="Path 2707" d="M94.692,277.59a.961.961,0,0,0-.584-.773m1.181.839c-.117-.41-.284-.548-.725-.41" transform="translate(-94.108 -276.817)" fill="none" stroke="#fff" stroke-linecap="round" stroke-width="0.609" fill-rule="evenodd"/>
        </g>
        <g id="Group_2662" data-name="Group 2662" transform="translate(2.699 22.368)">
          <path id="Path_2708" data-name="Path 2708" d="M9.561.094q2.5,9.143,2.825,11.224A102.664,102.664,0,0,1,13.4,21.564a1.606,1.606,0,0,1-1.695.12c-.171-.1-1.223-5.887-2.14-8.131S6.578,9.243,5.218,6.985a25.555,25.555,0,0,1-1.05,5.4,66.58,66.58,0,0,1-2.054,8.07c-.247.4-1.5.107-1.981,0,0-1.054,1.044-6.376,1.044-8.224s-.288-5.2-.4-6.569a21.654,21.654,0,0,1,0-5.571Z" transform="translate(-0.133 0.129)" fill="url(#linear-gradient-14)"/>
          <path id="Path_2709" data-name="Path 2709" d="M9.534,21.6c0-.9.462-8.207.568-7.907q.106.3.933,1.921Q9.534,22.5,9.534,21.6Z" transform="translate(-5.768 -8.017)" fill="#a1b8e3" fill-rule="evenodd" opacity="0.5"/>
          <path id="Path_2710" data-name="Path 2710" d="M11.014,13.717a9.628,9.628,0,0,0,.857,1.743" transform="translate(-6.655 -8.036)" fill="none" stroke="#fff" stroke-linecap="round" stroke-width="0.609" fill-rule="evenodd"/>
          <path id="Path_2711" data-name="Path 2711" d="M3.132,1.288A8.753,8.753,0,0,0,8.954,2.4a4.943,4.943,0,0,0,2.814-1.114c0-.248-.353-1.291-.452-1.69S2.417.9,3.132,1.288Z" transform="translate(-1.906 0.462)" fill-rule="evenodd" opacity="0.5" fill="url(#linear-gradient-15)"/>
        </g>
        <g id="Group_2663" data-name="Group 2663" transform="translate(4.669 3.157)">
          <path id="Path_2712" data-name="Path 2712" d="M3.12.16a2.02,2.02,0,0,0,.909.93q.573.278.859.413l-.243.942A3.091,3.091,0,0,1,4.888,4.3c-.21.467-.858.777-1.236,1.194a4.7,4.7,0,0,0-.726,1.829H.441L.329,5.49Q-.335,2.852.79,1.5A3.1,3.1,0,0,1,3.12.16Z" transform="translate(-0.083 -0.16)" fill="url(#linear-gradient-16)"/>
          <path id="Path_2713" data-name="Path 2713" d="M7.061,11.713a3.671,3.671,0,0,1-1.795-.744c-.188-.19,1.569,1.86,1.422,2.187-.116.258-.529.337-.268.337C7.359,13.492,7.688,11.713,7.061,11.713Z" transform="translate(-3.181 -6.631)" fill="#3d82f0" fill-rule="evenodd" opacity="0.5"/>
        </g>
        <path id="Path_2714" data-name="Path 2714" d="M7.808,8.457c-2.191-2.044-3.927-3.79-2.43-6.221s4.979-3.249,5.63-.293a2.253,2.253,0,0,1-.938,1.946q-.175.356.287.734t0,.691q-.913-.587-1.152.195c-.239.781.642,1.06.642,1.256A1.2,1.2,0,0,1,9.524,8.14,2.834,2.834,0,0,1,7.808,8.457Z" transform="translate(-2.894 -0.047)" fill-rule="evenodd" fill="url(#linear-gradient-17)"/>
        <path id="Path_2715" data-name="Path 2715" d="M2.67,27.922A42.141,42.141,0,0,0,.042,32.934q-.282.9,2.629,1.427l1.215-5.167L2.671,27.922Z" transform="translate(-0.017 -16.754)" fill-rule="evenodd" fill="url(#linear-gradient-18)"/>
        <g id="Group_2664" data-name="Group 2664" transform="translate(2.206 9.687)">
          <path id="Path_2716" data-name="Path 2716" d="M5.577.171a5.35,5.35,0,0,1,2.808,1.7C9.426,3.1,9.194,6.8,9.489,9s1.578,3.8-.4,5.046S1.5,15,1.04,14.044Q.583,13.084.06,7.18q0-5.314.626-5.762T2.773.1q-.032.132.672.262a5.749,5.749,0,0,0,2.131-.2Z" transform="translate(-0.06 -0.104)" fill="#d6e3fa"/>
          <path id="Path_2717" data-name="Path 2717" d="M17.493,10.762a21.249,21.249,0,0,0,1.526,5.28c.574.833.947,3.356,1.405,3.657s1.119-3.14.789-4.318A26.265,26.265,0,0,0,19.4,11.318l-1.905-.556Z" transform="translate(-10.509 -6.492)" fill-rule="evenodd" opacity="0.5" fill="url(#linear-gradient-19)"/>
          <path id="Path_2718" data-name="Path 2718" d="M7.808.552a5.67,5.67,0,0,0,2.458.433A5.222,5.222,0,0,0,11.93.86c.445-.135.272-.308,0-.308s-1.117-.2-1.571-.2S7.383.271,7.807.552Z" transform="translate(-4.675 -0.247)" fill-rule="evenodd" opacity="0.5" fill="url(#linear-gradient-20)"/>
        </g>
        <path id="Path_2719" data-name="Path 2719" d="M64.247,188.365q-.054-.68-.054-.9c0-.22,1.83.09,3.147.213a1.871,1.871,0,0,1,.117.686c0,.051-.329.492-2.1.349A2.39,2.39,0,0,1,64.247,188.365Z" transform="translate(-59.408 -178.611)" fill="#e1ecff" fill-rule="evenodd"/>
        <g id="Group_2666" data-name="Group 2666" transform="translate(7.612 1.532)">
          <path id="Path_2720" data-name="Path 2720" d="M85.047,199.286c.4-.885.62-2.253.2-2.439s-1.011.758-1.406,1.644a1.475,1.475,0,0,0,.091,1.7C84.2,200.244,84.652,200.171,85.047,199.286Z" transform="translate(-78.673 -185.798)" fill="#a1b8e3" fill-rule="evenodd"/>
          <g id="Group_2665" data-name="Group 2665" transform="translate(0.234 5.297) rotate(-26)">
            <path id="Path_2721" data-name="Path 2721" d="M1.829,7.25,3.439,8.435Q6.093,4.588,6.328,4.061a4.134,4.134,0,0,0,0-1.7,1.842,1.842,0,0,1,.427-1.134c.253-.191.283-.093.436-.093C7.985,1.417,9.208.123,9.507.012s.4.534.4.928A4.536,4.536,0,0,1,9.434,2.78c-.3.519-1.312,1.346-1.312,1.575s-1.677,3.7-2.285,5.1S4.655,11.8,3.439,11.41A11.293,11.293,0,0,1,0,9.005,3.417,3.417,0,0,1,.856,7.657a2.077,2.077,0,0,1,.973-.406Z" transform="matrix(0.978, 0.208, -0.208, 0.978, 2.391, 0)" fill="url(#linear-gradient-21)"/>
            <path id="Path_2722" data-name="Path 2722" d="M2.3,0A7.376,7.376,0,0,0,.871,2.6Q.8,3.314,0,1.868A3.867,3.867,0,0,1,.837.687,5.332,5.332,0,0,1,2.3,0Z" transform="translate(0.825 7.92)" fill="#3d82f0" fill-rule="evenodd" opacity="0.5"/>
            <path id="Path_2723" data-name="Path 2723" d="M0,0A1.05,1.05,0,0,1,.269.539" transform="translate(3.991 8.9)" fill="none" stroke="#223762" stroke-linecap="round" stroke-width="0.609" fill-rule="evenodd"/>
          </g>
          <path id="Path_2724" data-name="Path 2724" d="M2.607,6.618A6.76,6.76,0,0,1,5.277,4.212C3.163,1.757,2.519.937,1.853.169S-.734,1.391.3,3.35A14.576,14.576,0,0,0,2.607,6.618Z" transform="translate(0 9.578) rotate(-26)" fill-rule="evenodd" fill="url(#linear-gradient-22)"/>
        </g>
      </g>
    </g>
    <path id="Path_2725" data-name="Path 2725" d="M144.552,244.993l29.5-5.477,29.2,2.42-36.326,18.572" transform="translate(-90.163 -159.289)" fill-rule="evenodd" opacity="0.5" fill="url(#linear-gradient-23)"/>
    <g id="Group_2677" data-name="Group 2677" transform="translate(77.923 57.164)">
      <g id="Group_2669" data-name="Group 2669" transform="translate(10.421 9.507)">
        <path id="Path_2726" data-name="Path 2726" d="M5.171,5.17l-.814.813a.7.7,0,0,1-.991,0L2.551,5.17H.7a.7.7,0,0,1-.7-.7V.7A.7.7,0,0,1,.7,0H7.143a.7.7,0,0,1,.7.7V4.469a.7.7,0,0,1-.7.7Z" transform="translate(0 0)" fill="#f05971" fill-rule="evenodd"/>
        <path id="Path_2727" data-name="Path 2727" d="M7.385,6.054c-3.171-1.752-.877-3.93,0-2.464C8.262,2.123,10.555,4.3,7.385,6.054Z" transform="translate(-3.452 -1.862)" fill="#fff" fill-rule="evenodd"/>
      </g>
      <path id="Path_2728" data-name="Path 2728" d="M5.171,5.17l-.814.813a.7.7,0,0,1-.991,0L2.551,5.17H.7a.7.7,0,0,1-.7-.7V.7A.7.7,0,0,1,.7,0H7.143a.7.7,0,0,1,.7.7V4.469a.7.7,0,0,1-.7.7Z" transform="matrix(0.978, -0.208, 0.208, 0.978, 5.53, 5.598)" fill-rule="evenodd" fill="url(#linear-gradient-10)"/>
      <path id="Path_2729" data-name="Path 2729" d="M222.845,199.546c-3.466-1.054-1.676-3.662-.512-2.409C222.886,195.519,225.582,197.173,222.845,199.546Z" transform="translate(-212.597 -190.666)" fill="#fff" fill-rule="evenodd"/>
      <g id="Group_2670" data-name="Group 2670" transform="translate(24.939 11.143)">
        <path id="Path_2730" data-name="Path 2730" d="M5.171,5.17l-.814.813a.7.7,0,0,1-.991,0L2.551,5.17H.7a.7.7,0,0,1-.7-.7V.7A.7.7,0,0,1,.7,0H7.143a.7.7,0,0,1,.7.7V4.469a.7.7,0,0,1-.7.7Z" transform="translate(0 0)" fill-rule="evenodd" fill="url(#linear-gradient-10)"/>
        <path id="Path_2731" data-name="Path 2731" d="M7.385,6.054c-3.171-1.752-.877-3.93,0-2.464C8.262,2.123,10.555,4.3,7.385,6.054Z" transform="translate(-3.452 -1.862)" fill="#fff" fill-rule="evenodd"/>
      </g>
      <g id="Group_2671" data-name="Group 2671" transform="translate(15.104 10.091)">
        <path id="Path_2732" data-name="Path 2732" d="M5.171,5.17l-.814.813a.7.7,0,0,1-.991,0L2.551,5.17H.7a.7.7,0,0,1-.7-.7V.7A.7.7,0,0,1,.7,0H7.143a.7.7,0,0,1,.7.7V4.469a.7.7,0,0,1-.7.7Z" transform="translate(0 0)" fill-rule="evenodd" fill="url(#linear-gradient-10)"/>
        <path id="Path_2733" data-name="Path 2733" d="M7.385,6.054c-3.171-1.752-.877-3.93,0-2.464C8.262,2.123,10.555,4.3,7.385,6.054Z" transform="translate(-3.452 -1.862)" fill="#fff" fill-rule="evenodd"/>
      </g>
      <path id="Path_2734" data-name="Path 2734" d="M5.171,5.17l-.814.813a.7.7,0,0,1-.991,0L2.551,5.17H.7a.7.7,0,0,1-.7-.7V.7A.7.7,0,0,1,.7,0H7.143a.7.7,0,0,1,.7.7V4.469a.7.7,0,0,1-.7.7Z" transform="translate(29.262 6.017) rotate(13)" fill-rule="evenodd" fill="url(#linear-gradient-10)"/>
      <path id="Path_2735" data-name="Path 2735" d="M278.787,204.795c-2.7-2.421.029-4.027.554-2.4C280.526,201.162,282.271,203.8,278.787,204.795Z" transform="translate(-246.636 -193.809)" fill="#fff" fill-rule="evenodd"/>
      <path id="Path_2736" data-name="Path 2736" d="M5.171,5.17l-.814.813a.7.7,0,0,1-.991,0L2.551,5.17H.7a.7.7,0,0,1-.7-.7V.7A.7.7,0,0,1,.7,0H7.143a.7.7,0,0,1,.7.7V4.469a.7.7,0,0,1-.7.7Z" transform="matrix(0.966, 0.259, -0.259, 0.966, 13.244, 2.171)" fill-rule="evenodd" fill="url(#linear-gradient-10)"/>
      <path id="Path_2737" data-name="Path 2737" d="M238.473,195.428c-2.609-2.513.169-4.024.637-2.38C240.338,191.859,241.99,194.557,238.473,195.428Z" transform="translate(-222.516 -188.19)" fill="#fff" fill-rule="evenodd"/>
      <g id="Group_2672" data-name="Group 2672" transform="translate(11.688 8.95) rotate(-10)">
        <path id="Path_2738" data-name="Path 2738" d="M5.171,5.17l-.814.813a.7.7,0,0,1-.991,0L2.551,5.17H.7a.7.7,0,0,1-.7-.7V.7A.7.7,0,0,1,.7,0H7.143a.7.7,0,0,1,.7.7V4.469a.7.7,0,0,1-.7.7Z" transform="translate(0 0)" fill-rule="evenodd" fill="url(#linear-gradient-10)"/>
        <path id="Path_2739" data-name="Path 2739" d="M1.625,2.947c-3.171-1.752-.877-3.93,0-2.464C2.5-.984,4.8,1.195,1.625,2.947Z" transform="translate(2.308 1.245)" fill="#fff" fill-rule="evenodd"/>
      </g>
      <path id="Path_2740" data-name="Path 2740" d="M5.171,5.17l-.814.813a.7.7,0,0,1-.991,0L2.551,5.17H.7a.7.7,0,0,1-.7-.7V.7A.7.7,0,0,1,.7,0H7.143a.7.7,0,0,1,.7.7V4.469a.7.7,0,0,1-.7.7Z" transform="matrix(-0.819, -0.574, 0.574, -0.819, 25.702, 9.568)" fill-rule="evenodd" fill="url(#linear-gradient-10)"/>
      <path id="Path_2741" data-name="Path 2741" d="M258.435,191.584c1.593,3.254-1.536,3.723-1.413,2.018C255.462,194.3,254.833,191.2,258.435,191.584Z" transform="translate(-233.55 -187.704)" fill="#fff" fill-rule="evenodd"/>
      <g id="Group_2673" data-name="Group 2673" transform="translate(18.675 5.699) rotate(1)">
        <path id="Path_2742" data-name="Path 2742" d="M5.171,5.17l-.814.813a.7.7,0,0,1-.991,0L2.551,5.17H.7a.7.7,0,0,1-.7-.7V.7A.7.7,0,0,1,.7,0H7.143a.7.7,0,0,1,.7.7V4.469a.7.7,0,0,1-.7.7Z" transform="translate(0 0)" fill-rule="evenodd" fill="url(#linear-gradient-10)"/>
        <path id="Path_2743" data-name="Path 2743" d="M1.625,2.947c-3.171-1.752-.877-3.93,0-2.464C2.5-.984,4.8,1.195,1.625,2.947Z" transform="translate(2.308 1.245)" fill="#fff" fill-rule="evenodd"/>
      </g>
      <g id="Group_2674" data-name="Group 2674" transform="translate(18.846 9.358) rotate(4)">
        <path id="Path_2744" data-name="Path 2744" d="M5.171,5.17l-.814.813a.7.7,0,0,1-.991,0L2.551,5.17H.7a.7.7,0,0,1-.7-.7V.7A.7.7,0,0,1,.7,0H7.143a.7.7,0,0,1,.7.7V4.469a.7.7,0,0,1-.7.7Z" transform="translate(0 0)" fill-rule="evenodd" fill="url(#linear-gradient-10)"/>
        <path id="Path_2745" data-name="Path 2745" d="M1.625,2.947c-3.171-1.752-.877-3.93,0-2.464C2.5-.984,4.8,1.195,1.625,2.947Z" transform="translate(2.308 1.245)" fill="#fff" fill-rule="evenodd"/>
      </g>
      <g id="Group_2675" data-name="Group 2675" transform="translate(22.472 7.986) rotate(-24)">
        <path id="Path_2746" data-name="Path 2746" d="M5.171,5.17l-.814.813a.7.7,0,0,1-.991,0L2.551,5.17H.7a.7.7,0,0,1-.7-.7V.7A.7.7,0,0,1,.7,0H7.143a.7.7,0,0,1,.7.7V4.469a.7.7,0,0,1-.7.7Z" transform="translate(0 0)" fill-rule="evenodd" fill="url(#linear-gradient-10)"/>
        <path id="Path_2747" data-name="Path 2747" d="M1.625,2.947c-3.171-1.752-.877-3.93,0-2.464C2.5-.984,4.8,1.195,1.625,2.947Z" transform="translate(2.308 1.245)" fill="#fff" fill-rule="evenodd"/>
      </g>
      <path id="Path_2748" data-name="Path 2748" d="M14.028,21.294l14.167,6.333V42.8L14.489,35.715Z" transform="translate(-8.408 -12.839)" fill-rule="evenodd" fill="url(#linear-gradient-34)"/>
      <g id="Group_2676" data-name="Group 2676" transform="translate(19.787 8.556)">
        <path id="Path_2749" data-name="Path 2749" d="M0,18.7l16.392-3.536V0L.308,4.664Z" transform="translate(16.392 21.403) rotate(180)" fill="url(#linear-gradient-35)"/>
        <path id="Path_2750" data-name="Path 2750" d="M9.68-3.347l15.2,14.4-2.29-17.8Z" transform="translate(-5.802 6.75)" fill-rule="evenodd" opacity="0.219" fill="url(#linear-gradient-36)"/>
      </g>
      <path id="Path_2751" data-name="Path 2751" d="M5.645,21,0,26.828l14,6.913,5.673-6.327Z" transform="translate(0 -12.665)" fill-rule="evenodd" fill="url(#linear-gradient-37)"/>
      <path id="Path_2752" data-name="Path 2752" d="M6,9.934l-6-6.3L16.216,0l6.03,6.448Z" transform="translate(42.033 21.194) rotate(180)" fill-rule="evenodd" fill="url(#linear-gradient-38)"/>
    </g>
    <g id="Group_2683" data-name="Group 2683" transform="translate(34.917 80.4)">
      <path id="Path_2753" data-name="Path 2753" d="M2.621,11.85c1.354,0,2.451.455,2.451,1.016s-1.1,1.016-2.451,1.016S.17,13.427.17,12.866,1.267,11.85,2.621,11.85Z" transform="translate(1.443 -1.732)" fill-rule="evenodd" opacity="0.7" fill="url(#linear-gradient-39)"/>
      <path id="Path_2754" data-name="Path 2754" d="M5.765.394A2.135,2.135,0,0,1,6.053,1.46,2.736,2.736,0,0,1,3.111,3.927,2.736,2.736,0,0,1,.169,1.46,2.145,2.145,0,0,1,.49.338,27.108,27.108,0,0,0,5.765.394Z" transform="translate(1.566 7.451)" fill="url(#linear-gradient-40)"/>
      <path id="Path_2755" data-name="Path 2755" d="M3.016.169C4.494.169,5.692.452,5.692.8s-1.2.632-2.676.632S.34,1.15.34.8,1.538.169,3.016.169Z" transform="translate(1.682 7.131)" fill="url(#linear-gradient-41)"/>
      <g id="Group_2682" data-name="Group 2682" transform="translate(0 0)">
        <g id="Group_2678" data-name="Group 2678" transform="translate(1.899)">
          <path id="Path_2756" data-name="Path 2756" d="M2.744,7.632A8.541,8.541,0,0,0,.987,3.595C.275,2.67.273.417.17.169a5.4,5.4,0,0,1,2.574,2.08c1.06,1.461.388,4.441,0,5.383Z" transform="translate(-0.17 -0.169)" fill="url(#linear-gradient-42)"/>
          <path id="Path_2757" data-name="Path 2757" d="M2.744,7.632A8.541,8.541,0,0,0,.987,3.595C.275,2.67.273.417.17.169a5.4,5.4,0,0,1,2.574,2.08c1.06,1.461.388,4.441,0,5.383Z" transform="translate(-0.17 -0.169)"/>
        </g>
        <g id="Group_2679" data-name="Group 2679" transform="translate(0 3.66)">
          <path id="Path_2758" data-name="Path 2758" d="M4.735,5.135a7.132,7.132,0,0,0-2.7-2.49C1.179,2.179.419.462.257.307a4.507,4.507,0,0,1,2.665.723c1.3.759,1.792,3.257,1.813,4.106Z" transform="translate(-0.257 -0.296)" fill="url(#linear-gradient-43)"/>
          <path id="Path_2759" data-name="Path 2759" d="M4.735,5.135a7.132,7.132,0,0,0-2.7-2.49C1.179,2.179.419.462.257.307a4.507,4.507,0,0,1,2.665.723c1.3.759,1.792,3.257,1.813,4.106Z" transform="translate(-0.257 -0.296)"/>
        </g>
        <path id="Path_2760" data-name="Path 2760" d="M61.136,122.9l-1.8-2.494A6.567,6.567,0,0,1,61.136,122.9Zm-1.8-2.494-.384-.533-.143.151a5.772,5.772,0,0,1,.527.383Zm1.8,2.494c.121.263.239.547.358.852l.184-.1Z" transform="translate(-57.146 -115.205)" fill="none" stroke="#489c71" stroke-width="0.875" fill-rule="evenodd" opacity="0.5"/>
        <g id="Group_2681" data-name="Group 2681" transform="translate(4.605 3.214)">
          <g id="Group_2680" data-name="Group 2680" transform="translate(0.176 0)">
            <path id="Path_2761" data-name="Path 2761" d="M.621,5.69A7.152,7.152,0,0,1,2.987,2.863C3.778,2.289,4.312.481,4.453.306a4.527,4.527,0,0,0-2.56,1.063C.7,2.292.532,4.842.621,5.69Z" transform="translate(-0.601 -0.306)" fill="url(#linear-gradient-42)"/>
            <path id="Path_2762" data-name="Path 2762" d="M.621,5.69A7.152,7.152,0,0,1,2.987,2.863C3.778,2.289,4.312.481,4.453.306a4.527,4.527,0,0,0-2.56,1.063C.7,2.292.532,4.842.621,5.69Z" transform="translate(-0.601 -0.306)"/>
          </g>
          <path id="Path_2763" data-name="Path 2763" d="M72.9,119.462a5.808,5.808,0,0,1,.472-.446l-.161-.131-.311.577Zm-1.47,2.723-.44.814.2.075c.078-.317.159-.613.244-.889Z" transform="translate(-70.994 -117.667)" fill="none" stroke="#489c71" stroke-width="0.875" fill-rule="evenodd" opacity="0.5"/>
        </g>
      </g>
    </g>
    <g id="Group_2684" data-name="Group 2684" transform="translate(43.244 34.346)">
      <path id="Path_2764" data-name="Path 2764" d="M0,42.189,13.113,0" fill="none" stroke="#707070" stroke-linecap="round" stroke-width="3.5" fill-rule="evenodd"/>
      <path id="Path_2765" data-name="Path 2765" d="M18.715,14.877l7.962,2.337m-9.952,3.272,8.547,2.688M15.2,26.213l8.43,2.921m-10.3,2.571L22.7,34.978M11.69,37.316l9.738,3.633" transform="translate(-7.007 -8.917)" fill="none" stroke="#707070" stroke-linecap="round" stroke-width="3.5" fill-rule="evenodd"/>
      <path id="Path_2766" data-name="Path 2766" d="M119.742,171.813l9.835,3.623" transform="translate(-117.049 -137.22)" fill="none" stroke="#223762" stroke-linecap="round" stroke-width="3.5" fill-rule="evenodd"/>
      <path id="Path_2767" data-name="Path 2767" d="M27.178,51.5,37.543,4.416" transform="translate(-16.289 -2.647)" fill="none" stroke="#707070" stroke-linecap="round" stroke-width="3.5" fill-rule="evenodd"/>
    </g>
    <g id="Group_2686" data-name="Group 2686" transform="translate(52.57 0.219)">
      <g id="Group_2685" data-name="Group 2685" transform="translate(7.769 5.176)">
        <path id="Path_2768" data-name="Path 2768" d="M.229,2.449A3.276,3.276,0,0,0,.7.507Q.7-.236,2.165.133A4.034,4.034,0,0,0,2.479,1.6c.207.34,1.166.454,1.166.454S1.964,5.9,1.21,5.337-.112,2.845.229,2.449Z" transform="translate(-0.128 -0.011)" fill="url(#linear-gradient-45)"/>
        <path id="Path_2769" data-name="Path 2769" d="M.9,1.2q1.175.986,1.941.431t0-1.266L.9,1.2Z" transform="translate(-0.592 -0.222)" fill="#3d82f0" fill-rule="evenodd" opacity="0.5"/>
      </g>
      <path id="Path_2770" data-name="Path 2770" d="M17.841,5.215a15.318,15.318,0,0,0,.316,2.91,1.639,1.639,0,0,0,1.743.988,1.849,1.849,0,0,0,1.107-1.482,9.079,9.079,0,0,1,.268-1.449q.34-1.552-.268-1.552c-.607,0-3.165-.22-3.165.584Z" transform="translate(-10.702 -2.847)" fill-rule="evenodd" fill="url(#linear-gradient-46)"/>
      <path id="Path_2771" data-name="Path 2771" d="M156.838,2.6c-.934.617-3.8.7-3.5-.9S155.99-.23,157.21.834A2.846,2.846,0,0,1,157.489,4a1.958,1.958,0,0,1-.651.764,8.356,8.356,0,0,0,0-2.163Z" transform="translate(-146.548 -0.219)" fill="#223762" fill-rule="evenodd"/>
      <path id="Path_2772" data-name="Path 2772" d="M166.525,57.013a18.508,18.508,0,0,0,3.114-1.034c.274-.292.155-.725-.37-.8s-2.7-.331-2.91-.331-.66.827-.543,1.418.329.867.709.745Zm-10.1,1.308A14.677,14.677,0,0,0,158.9,57.5c.218-.232.123-.576-.294-.634s-2.143-.263-2.312-.263-.524.656-.431,1.127S156.123,58.419,156.424,58.322Z" transform="translate(-148.064 -32.963)" fill="#192a4d" fill-rule="evenodd"/>
      <path id="Path_2773" data-name="Path 2773" d="M11.833,39.964c-.286.506-3.87,6.046-4.17,7.323S7.9,49.5,8.6,49.5s4.318.077,4.7-.253.429-2.285,0-2.285h-2.61q2.331-3.077,2.61-3.077c.279,0,.942,6.459,1.645,6.722s7.706-1.986,8.09-2.342,0-2.274-1.194-2.274-4.336,1.59-4.336,1.2-.118-5.807-.351-6.922S12.118,39.459,11.833,39.964Z" transform="translate(-4.551 -23.767)" fill-rule="evenodd" fill="url(#linear-gradient-47)"/>
      <path id="Path_2774" data-name="Path 2774" d="M15.951,21.692a30.38,30.38,0,0,1-4.112-3.638,3.221,3.221,0,0,0-1.447-.522q-.225.755-1.3.756t-1.039-.473a4.469,4.469,0,0,0-1.593,1c-.655.647-2.159,3.082-3.021,3.469q-.862.387-3.419,1.835l1.521.411q1.722-.524,2.65-.87a10.446,10.446,0,0,0,2.576-1.7q-1.234,5.23-.686,6.056c.548.825,5.391.722,5.99,0q.6-.722,0-6.771L14.6,22.964l2.781.947,2.036-.016q-2.463-1.677-3.468-2.2Z" transform="translate(-0.022 -10.596)" fill-rule="evenodd" fill="url(#linear-gradient-48)"/>
    </g>
    <g id="Group_2687" data-name="Group 2687" transform="translate(47.662 13.354)">
      <rect id="Rectangle_1563" data-name="Rectangle 1563" width="25.875" height="7.831" rx="2.625" fill="url(#linear-gradient-49)"/>
      <ellipse id="Ellipse_46" data-name="Ellipse 46" cx="2.89" cy="2.885" rx="2.89" ry="2.885" transform="translate(1.032 1.03)" fill="#ffb417"/>
      <path id="Path_2775" data-name="Path 2775" d="M20.166,3.429H35.032a.584.584,0,1,1,0,1.168H20.165a.584.584,0,1,1,0-1.168Zm0,1.923H31.248a.584.584,0,0,1,0,1.168H20.166a.584.584,0,0,1,0-1.168Z" transform="translate(-11.736 -2.055)" fill="#ffb417" fill-rule="evenodd"/>
      <path id="Path_2776" data-name="Path 2776" d="M19.974,14.06h3.718a.412.412,0,0,1,0,.824H19.974a.412.412,0,1,1,0-.824Z" transform="translate(-11.717 -8.427)" fill="#ffb417" fill-rule="evenodd" opacity="0.5"/>
    </g>
    <g id="Group_2688" data-name="Group 2688" transform="translate(55.838 19.171)">
      <path id="Path_2777" data-name="Path 2777" d="M25.609.276,41.827,4.026a.351.351,0,0,1,.037.672l-24.15,8.488a4.443,4.443,0,0,1-2.745.065l-14.7-4.4a.351.351,0,0,1-.012-.668L23.38.385A4.091,4.091,0,0,1,25.609.276Z" transform="translate(9.941 2.235)" fill="url(#linear-gradient-50)"/>
      <path id="Path_2778" data-name="Path 2778" d="M34.486-5.515c.53,2.115,2.575,5.917.372,7.463s-19.494-.486-21.044-.486S33.955-7.63,34.486-5.515Z" transform="translate(1.72 5.834)" fill-rule="evenodd" fill="url(#linear-gradient-51)"/>
      <ellipse id="Ellipse_47" data-name="Ellipse 47" cx="3.688" cy="1.052" rx="3.688" ry="1.052" transform="translate(24.704 10.284)" fill="url(#linear-gradient-52)"/>
      <path id="Path_2779" data-name="Path 2779" d="M-4.09,2.652c.53,2.116,2.576,5.918.373,7.463s-19.5-.486-21.044-.486S-4.62.537-4.09,2.652Z" transform="translate(24.841 0.939)" fill-rule="evenodd" fill="url(#linear-gradient-51)"/>
    </g>
  </g>
</svg>
