<svg xmlns="http://www.w3.org/2000/svg" width="48" height="48.004" viewBox="0 0 48 48.004">
  <defs>
    <style>
      .cls-1 {
        fill: #212529;
      }
    </style>
  </defs>
  <g id="icon-branding" transform="translate(-1.471 -1.498)">
    <path id="Path_2965" data-name="Path 2965" class="cls-1" d="M4.452,48.992c18.834.373,26.842.983,41.112-.109a4.513,4.513,0,0,0,3.882-5.119,262.338,262.338,0,0,1-.238-38.779,3.029,3.029,0,0,0-3.069-3.48c-3.9.3-8.087.59-12.3.649C29.807,2.218,5.375,1.68,5.1,1.674a2.778,2.778,0,0,0-2.012.878C1.8,3.888,2.445,4.484,2,10.08c-.7,8.751.367,13.656.2,21.074-.059,2.612-.252,5.073-.421,7.244-.374,4.787-.644,8.246.741,9.776A2.569,2.569,0,0,0,4.452,48.992ZM33.85,3.154c12.145-.171,12.641-1.346,13.809-.047a2.292,2.292,0,0,1,.554,1.774c-.083.8-.162,1.835-.234,3.051-7.764.2-14.67.3-20.529.3-7.256,0-11.646-.151-14.551-.251a38.646,38.646,0,0,0-9.779.466C3.724-.505-.271,3.6,33.85,3.154ZM3.086,8.956A30.739,30.739,0,0,1,9.02,8.38c1.074,0,2.3.042,3.861.1,2.909.1,7.3.252,14.569.252,5.852,0,12.751-.1,20.5-.295-.463,8.359-.6,24.527.5,35.432a3.521,3.521,0,0,1-2.964,4.021c-11.539.883-11.733.686-41.016.106a1.571,1.571,0,0,1-1.218-.49c-1.1-1.21-.827-4.66-.485-9.026.171-2.184.364-4.66.424-7.3C3.394,22.341,2.224,20.612,3.086,8.956Z"/>
    <path id="Path_2966" data-name="Path 2966" class="cls-1" d="M5.392,5.771a1.4,1.4,0,0,0,2.739-.226C8.388,3.271,4.531,3.641,5.392,5.771Zm.463-.187A.733.733,0,0,1,5.91,4.8c.637-.617,1.835-.285,1.725.685A.906.906,0,0,1,5.856,5.583Z"/>
    <path id="Path_2967" data-name="Path 2967" class="cls-1" d="M11.973,4.474c-.891-.983-3.073-.335-2.413,1.3C10.477,8.041,13.381,6.024,11.973,4.474Zm-1.9.33a1.082,1.082,0,0,1,1.526.005c.88.973-.957,2.313-1.58.774A.733.733,0,0,1,10.077,4.8Z" transform="translate(-0.01)"/>
    <path id="Path_2968" data-name="Path 2968" class="cls-1" d="M15.1,6.773a1.379,1.379,0,0,0,1.375-1.246A1.5,1.5,0,0,0,13.9,4.445a1.191,1.191,0,0,0-.169,1.326A1.518,1.518,0,0,0,15.1,6.773ZM14.245,4.8a.992.992,0,0,1,1.733.674.912.912,0,0,1-.735.784,1,1,0,0,1-1.052-.679A.733.733,0,0,1,14.245,4.8Z" transform="translate(-0.016)"/>
    <path id="Path_2969" data-name="Path 2969" class="cls-1" d="M20,6.679h0c3.974-.161,4.21,1.2,14.5.457,3.384-.244,6.776-.1,8.71-.21.559-.03,1-.789,1.164-1.129a.2.2,0,0,0,.012-.023.268.268,0,0,0,.021-.125,1.121,1.121,0,0,0-.305-.824c-1.583-1.629-9.23.837-24.026-.522A1.165,1.165,0,0,0,18.79,5.516a1.2,1.2,0,0,0,.285.795A1.157,1.157,0,0,0,20,6.679ZM20.037,4.8c15.389,1.412,23.838-1.348,23.877.812-.811,1.6-.809.4-9.444,1.025a44.051,44.051,0,0,1-10.723-.183,16.2,16.2,0,0,0-2.992-.29c-.239,0-.495,0-.811.017a.627.627,0,0,1-.5-.2.7.7,0,0,1-.161-.465A.674.674,0,0,1,20.037,4.8Z" transform="translate(-0.058)"/>
    <path id="Path_2970" data-name="Path 2970" class="cls-1" d="M6.381,12.766c14.018-1.019,16.424.346,35.583.25a.5.5,0,0,0,0-1h0c-18.925.093-21.562-1.27-35.65-.248a.5.5,0,0,0,.072,1Z"/>
    <path id="Path_2971" data-name="Path 2971" class="cls-1" d="M6.381,15.6c14.171-1.027,16.236.347,35.583.251a.5.5,0,0,0,0-1h0c-19.192.095-21.5-1.277-35.65-.248a.5.5,0,0,0,.072,1Z"/>
    <path id="Path_2972" data-name="Path 2972" class="cls-1" d="M20.264,18.847c-3.741-.054-7.608-.118-11.325-.037A2.61,2.61,0,0,0,6.41,21.417c.01,5.2-.726,7.346-.363,14.041.075,1.383.152,2.813.09,4.2-.124,2.725,3.1,2.793,2.649,2.7,4.6-.066,7.016.081,9.242.081,1.982,0,3.188-.138,3.878-.864,1.121-1.179.561-3.364.463-8.7-.037-2,.1-4.035.232-6.007.119-1.768.241-3.6.24-5.4A2.627,2.627,0,0,0,20.264,18.847ZM21.6,26.8c-.633,9.421.567,13.045-.422,14.086-.912.959-4.558.362-12.435.473A1.6,1.6,0,0,1,7.135,39.7c.065-1.432-.014-2.888-.09-4.295-.355-6.6.374-8.91.365-13.989a1.6,1.6,0,0,1,1.552-1.6c3.729-.083,7.544-.018,11.288.037a1.623,1.623,0,0,1,1.592,1.616C21.842,23.234,21.721,25.046,21.6,26.8Z"/>
    <path id="Path_2973" data-name="Path 2973" class="cls-1" d="M40.221,32.548c-3.749-.021-7.575-.043-11.3,0A1.782,1.782,0,0,0,27.156,34.4c.357,9.271-3.671,8.015,12.052,8.015,3.108,0,3.851-.056,4.077-1.518a41.57,41.57,0,0,0,.3-6.614C43.488,32,40.643,32.646,40.221,32.548ZM42.3,40.74c-.136.879-.183.637-10.25.637-6.017,0-3.584.963-3.893-7.019a.782.782,0,0,1,.775-.813c3.722-.04,7.542-.018,11.286,0,.761.112,2.321-.373,2.369.773A40.086,40.086,0,0,1,42.3,40.74Z" transform="translate(-0.058)"/>
    <path id="Path_2974" data-name="Path 2974" class="cls-1" d="M27.217,20.121a.5.5,0,0,0,.5.492h.008l15.325-.253a.5.5,0,0,0,.492-.508.465.465,0,0,0-.508-.492l-15.325.253A.5.5,0,0,0,27.217,20.121Z" transform="translate(-0.058)"/>
    <path id="Path_2975" data-name="Path 2975" class="cls-1" d="M27.717,23.643h.008L43.05,23.39a.5.5,0,0,0,.492-.508.491.491,0,0,0-.508-.492l-15.325.253a.5.5,0,0,0,.008,1Z" transform="translate(-0.058)"/>
    <path id="Path_2976" data-name="Path 2976" class="cls-1" d="M27.717,26.674h.008l15.325-.253a.5.5,0,0,0,.492-.508.487.487,0,0,0-.508-.492l-15.325.253a.5.5,0,0,0,.008,1Z" transform="translate(-0.058)"/>
    <path id="Path_2977" data-name="Path 2977" class="cls-1" d="M27.717,29.7h.008l15.325-.253a.5.5,0,0,0,.492-.508.483.483,0,0,0-.508-.492L27.708,28.7a.5.5,0,0,0,.008,1Z" transform="translate(-0.058)"/>
    <path id="Path_2978" data-name="Path 2978" class="cls-1" d="M19.209,29.076a22.727,22.727,0,0,1-6.634-3.607.25.25,0,0,0-.458.171c1.411,9.487.637,10.726,2.645,6.039a26.721,26.721,0,0,1,1.5,3.155.251.251,0,0,0,.188.153.273.273,0,0,0,.044,0,.251.251,0,0,0,.185-.082c1.278-1.4,1.968-1.388,1.751-1.774-.559-.991-1.169-2.015-1.816-3.048a20.7,20.7,0,0,0,2.6-.523.25.25,0,0,0,0-.487Zm-1.323,4.106a9.694,9.694,0,0,0-1.3,1.105c-.144-.347-1.484-3.423-1.857-3.423-.289.1-.017-.258-1.158,2.261-.226-1.722-.671-5.379-.869-6.913a26.978,26.978,0,0,0,5.5,3.079C15.148,30,15.336,28.7,17.886,33.181Z" transform="translate(-0.015)"/>
  </g>
</svg>
