<svg xmlns="http://www.w3.org/2000/svg" width="47.998" height="48" viewBox="0 0 47.998 48">
  <defs>
    <style>
      .cls-1 {
        fill: #212529;
      }
    </style>
  </defs>
  <g id="Icon-product-research" transform="translate(-1.501 -1.45)">
    <path id="Path_2979" data-name="Path 2979" class="cls-1" d="M47.111,38.749c-.434,0-.805.049-3.67.094A46.441,46.441,0,0,0,43.7,32.67c1.527-.043,2.3-.09,2.4-1.468h-.012c0-.015,0-.029,0-.044h.009c-.138-5.359.551-4.248-4.571-4.335-.648,0-1.152.64-1.173,1.489l-.013.5q-5.953-.084-11.935-.065a2.116,2.116,0,0,0-.4-1.645,1,1,0,0,0-.82-.353c-.265.016-.52.021-.779.033.029-2.306.095-4.638.253-6.962A8.845,8.845,0,0,0,34.079,7.507C31.6,1.516,22.553-1.267,18.1,5a9.922,9.922,0,0,0-1.422,8.609,8.95,8.95,0,0,0,8.989,6.267c-.155,2.322-.225,4.646-.254,6.941-1.9.037-2.668-.347-2.81,1.976q-5.982.076-11.937.26a2.4,2.4,0,0,0-.374-1.953,1.051,1.051,0,0,0-.82-.353c-4.162.253-4.621-.79-4.615,3.462,0,.881-.116,1.663.446,2.237.467.477.892.3,1.974.251-.113,2.278-.207,3.733-.331,6.167-.946,0-1.893-.009-2.878-.028a2.413,2.413,0,0,0-2.3,2.406c-.019,4.711-.8,6.152.462,7.475.924.965.946.766,10.922.411,3.133-.111,1.961-4.5,2.359-7.485a2.672,2.672,0,0,0-.619-2.121c-.945-1.077-1.751-.7-6.94-.667.131-2.561.221-3.911.334-6.2,2.448-.085,2.347-.266,2.355-2.607q5.954-.182,11.943-.259c0,1.344-.115,2.081.445,2.654.47.48.746.3,2.329.242-.03,2.047-.095,4.11-.235,6.166-.294,0-1.485.031-4.064-.018a2.412,2.412,0,0,0-2.3,2.406l-.257,5.5A2.418,2.418,0,0,0,20.9,49.414c2.956-.14,6.266-.179,9.233-.284,3.184-.113,1.949-4.414,2.359-7.485a2.455,2.455,0,0,0-2.363-2.9h-.006c-1.337.051-2.673.079-4,.1.138-2.068.2-4.138.232-6.188,1.283-.049,1.941-.194,2.033-1.456H28.37c0-.015,0-.029,0-.044h.009c0-.168-.006.4.013-1.412q5.974-.022,11.925.063c.035.244-.421,3.092,1.219,2.961.43-.031.815-.052,1.159-.066a46.128,46.128,0,0,1-.265,6.149c-.721.007-1.777.035-4.4-.014a2.413,2.413,0,0,0-2.3,2.406c-.019,4.711-.8,6.152.462,7.475a2.19,2.19,0,0,0,1.588.7l.1,0c2.957-.14,6.267-.179,9.233-.284,3.133-.111,1.961-4.5,2.359-7.485A2.455,2.455,0,0,0,47.111,38.749ZM14.4,44.4c.028,4.851.6,3.487-10.542,4.013l-.053.5v-.5a1.2,1.2,0,0,1-.864-.389c-.818-.854-.276-1.8-.187-6.74a1.422,1.422,0,0,1,1.327-1.453C16.162,40.064,14.371,38.276,14.4,44.4ZM9.62,31.54a35,35,0,0,1-3.581.233c-.321-.193-.231-3.731.051-3.954,1.133.02,2.286,0,3.421-.077a.762.762,0,0,1,.195.66C9.542,30.262,9.7,31.343,9.62,31.54Zm8.01-18.223a9.04,9.04,0,0,1,1.282-7.739C22.772.149,30.845,2.317,33.155,7.889A8.131,8.131,0,0,1,30.337,17.6C25.966,20.351,19.328,18.827,17.631,13.317ZM31.39,44.406c.028,4.927.451,3.492-10.542,4.011l-.054.5v-.5a1.467,1.467,0,0,1-1.308-1.632c.432-3.467-.478-6.949,1.583-6.949C33.091,40.063,31.358,38.381,31.39,44.406ZM23.76,31.774c-.321-.192-.231-3.731.051-3.954,1.134.02,2.285,0,3.421-.077a.761.761,0,0,1,.195.66C27.071,32.477,28.588,31.421,23.76,31.774Zm17.721,0c-.373-.223-.091-1.632-.121-3.438a.74.74,0,0,1,.171-.516c1.133.02,2.285,0,3.421-.077a.762.762,0,0,1,.195.66C44.79,32.5,46.312,31.421,41.482,31.774ZM37.835,48.417l-.053.5v-.5a1.467,1.467,0,0,1-1.308-1.632c.433-3.467-.478-6.95,1.583-6.95,12.077.227,10.286-1.561,10.32,4.568C48.4,49.323,48.7,47.9,37.835,48.417Z" transform="translate(0 0)"/>
  </g>
</svg>
