<svg xmlns="http://www.w3.org/2000/svg" width="48" height="48" viewBox="0 0 48 48">
  <defs>
    <style>
      .cls-1 {
        fill: #212529;
      }
    </style>
  </defs>
  <g id="icon-ui-ux-design" transform="translate(-1.528 -1.461)">
    <path id="Path_2911" data-name="Path 2911" class="cls-1" d="M6.447,34.779c.125.152,5.27,2.284,6.219,2.54,4.707,1.282,19.285.693,24.806.5,7.3.4,7.17.1,7.17-3.3a8.116,8.116,0,0,0-.21-1.99c-.4-1.616-2.61-1.18-5.658-1.18-25.177.178-20.815-.155-27.39.94-.1.033-4.158.9-4.907,1.91a.457.457,0,0,0-.11.37c.01.03.01.06.02.08a.222.222,0,0,0,.05.11A.035.035,0,0,0,6.447,34.779Zm32.216-2.43c3.994-.237,4.394.027,4.607.19.637.423.364,3.8.28,4.05a.485.485,0,0,1-.13.09h-.01a25.231,25.231,0,0,1-4.837.19C38.6,35.326,38.631,33.891,38.664,32.349Zm-22.953.94c-.018-.037,0-.133-.1-.68v-.03c3.886-.23,21.932-.23,22.052-.23-.02.89-.06,2.78-.09,4.47-4.99.17-17.474.425-22.442-.04h-.01C15.483,35.251,16.04,35.99,15.711,33.289Zm-5.578.35a37.742,37.742,0,0,1,4.486-.93v.03c.491,3.429-.1,1.94-.5,3.91a26.021,26.021,0,0,1-4.226-1.49C9.972,34.529,10.043,34.069,10.133,33.639Zm-.551.19c-.07.38-.13.77-.18,1.16-1.147-.44-.952-.377-1.432-.57A12.294,12.294,0,0,1,9.582,33.829Z" transform="translate(0 -0.056)"/>
    <path id="Path_2912" data-name="Path 2912" class="cls-1" d="M48.995,40.515a2.183,2.183,0,0,0-.216-.237c-.761-.731-6.435.211-35.11-.068a.468.468,0,0,0-.4,0C-2.8,40.041,2.694,39,1.6,46.9a2.09,2.09,0,0,0,.266,1.716c.6.691,1.774.7,5.271.738,7.618.079,9.343.336,20.574.049,19.794-.5,19.562.726,21.178-1.063.766-.847.658-2.192.572-3.273C49.29,42.983,49.955,41.729,48.995,40.515Zm-.853,7.158c-1.206,1.334-1.009.234-20.461.733-9.949.254-24.615.076-25.06-.44-.122-.142-.085-.548-.033-.926.838-6.032-2.013-6.026,2.534-5.957l.1,2.275c.021.487.622.519.522.478.841-.036.327-1.3.383-2.736,1.084.019,1.925.035,3.048.053a17.087,17.087,0,0,0,.17,3.37.5.5,0,0,0,.494.423.525.525,0,0,0,.078-.006.5.5,0,0,0,.417-.571,16.124,16.124,0,0,1-.16-3.2q1.262.018,2.809.035l.092,2.155a.5.5,0,0,0,.5.479h.022c.832-.035.331-1.275.389-2.623,1.082.01,2.265.019,3.555.025l.091,2.12a.5.5,0,0,0,.5.479h.022a.5.5,0,0,0,.479-.521l-.089-2.073q1.575.006,3.357.007a17.115,17.115,0,0,0,.171,3.274.5.5,0,0,0,.494.423.53.53,0,0,0,.078-.006.5.5,0,0,0,.417-.571,16.107,16.107,0,0,1-.161-3.12q1.377,0,2.811-.005l.09,2.114a.5.5,0,0,0,.5.479h.022a.5.5,0,0,0,.479-.521l-.089-2.074c1.162,0,2.341-.01,3.553-.017l.091,2.135a.5.5,0,0,0,.5.479h.022a.5.5,0,0,0,.479-.521l-.09-2.1q1.65-.012,3.359-.027a17.151,17.151,0,0,0,.17,3.334.5.5,0,0,0,.494.423.53.53,0,0,0,.078-.006.5.5,0,0,0,.417-.571,16.186,16.186,0,0,1-.16-3.189l2.806-.029.095,2.207a.5.5,0,0,0,.5.479h.022c.827-.035.326-1.238.385-2.7,1.166-.014,2.352-.029,3.552-.045.191,1.586-.207,2.742.6,2.742H43.6c.825-.035.323-1.214.383-2.756A15.712,15.712,0,0,0,46.062,41c1.806-.184,2.126,0,2.025,0h0c.57.55.466,1.429.383,2.261C48.273,45.216,48.858,46.88,48.141,47.673Z" transform="translate(0 -0.078)"/>
    <path id="Path_2913" data-name="Path 2913" class="cls-1" d="M18.7,30.188c28.009,0,28.361-.512,29.526-2.208C48.94,26.933,49.472,9.551,49.5,8.264L49.5,8c.047-2.292.079-3.806-.965-4.871-2.529-2.578-12.7-1.441-31.2-1.249C4.568,2.009,2.927,2.026,2.523,7.091,1.434,20.765.848,26.684,2.865,28.873,4.311,30.441,6.033,30.188,18.7,30.188ZM3.521,7.17c.318-4,.835-4.159,13.828-4.293,17.928-.187,28.4-1.166,30.473.949.749.764.722,2.111.679,4.15l-.005.269c-.042,2.1-.65,18.513-1.1,19.17-1.011,1.471-2.98,1.863-38.8,1.756-2.622-.008-4.147-.057-4.993-.975C1.708,26.141,2.711,17.345,3.521,7.17Z" transform="translate(0)"/>
    <path id="Path_2914" data-name="Path 2914" class="cls-1" d="M5.586,27.382c1.059.257,31.247-.167,32.343-.183l.588-.008a35.624,35.624,0,0,0,6.785-.47c.441-.145.308-.039.608-5.224.522-9.046.856-15.528.4-16.547a.5.5,0,0,0-.26-.256c-2.15-.919-38.732.048-39.808.493C5.551,5.47,5.579,6.6,5.2,10.927,5.013,13.1,3.514,26.872,5.586,27.382ZM6.718,6.1C9.77,5.673,41.7,4.917,45.449,5.563c.28,1.68-.228,10.5-.539,15.877-.1,1.658-.183,3.182-.247,4.413a50.88,50.88,0,0,1-6.16.338l-.588.008c-3.775.055-28.131.391-31.892.225C4.69,23.53,6.6,6.427,6.718,6.1Z"/>
    <path id="Path_2915" data-name="Path 2915" class="cls-1" d="M17.074,9.767a.25.25,0,0,0,.4-.3,5.058,5.058,0,0,0-.719-.768.25.25,0,0,0-.328.377A4.577,4.577,0,0,1,17.074,9.767Z" transform="translate(0.018)"/>
    <path id="Path_2916" data-name="Path 2916" class="cls-1" d="M14.034,16.646a.251.251,0,0,0,.246.2,5.519,5.519,0,0,0,1.053-.279.25.25,0,0,0-.175-.469,5.452,5.452,0,0,1-.923.251A.25.25,0,0,0,14.034,16.646Z" transform="translate(0.015 -0.024)"/>
    <path id="Path_2917" data-name="Path 2917" class="cls-1" d="M13.869,7.831a5.685,5.685,0,0,1,.919.27.25.25,0,1,0,.181-.467,6.248,6.248,0,0,0-1-.293.25.25,0,1,0-.1.49Z" transform="translate(0.014)"/>
    <path id="Path_2918" data-name="Path 2918" class="cls-1" d="M17.811,12.41a.25.25,0,0,0,.22.277h.029a.25.25,0,0,0,.248-.222,4.326,4.326,0,0,0,.028-.485,4.075,4.075,0,0,0-.041-.577.25.25,0,1,0-.5.071,3.514,3.514,0,0,1,.036.506A3.77,3.77,0,0,1,17.811,12.41Z" transform="translate(0.019 -0.016)"/>
    <path id="Path_2919" data-name="Path 2919" class="cls-1" d="M17.183,14.233a6.408,6.408,0,0,1-.524.808.25.25,0,0,0,.395.308c.224-.287.8-1.047.48-1.228A.271.271,0,0,0,17.183,14.233Z" transform="translate(0.018 -0.021)"/>
    <path id="Path_2920" data-name="Path 2920" class="cls-1" d="M11.061,16.415a.25.25,0,0,0,.175.307,6.731,6.731,0,0,0,1.021.193h.028a.25.25,0,0,0,.027-.5,6.231,6.231,0,0,1-.944-.179A.253.253,0,0,0,11.061,16.415Z" transform="translate(0.011 -0.024)"/>
    <path id="Path_2921" data-name="Path 2921" class="cls-1" d="M9.27,10.085a3.687,3.687,0,0,1,.4-.848.25.25,0,0,0-.42-.272,4.211,4.211,0,0,0-.451.96A.25.25,0,0,0,9.27,10.085Z"/>
    <path id="Path_2922" data-name="Path 2922" class="cls-1" d="M8.383,13.187H8.4c.339,0,.186-.28.378-1.04l.034-.136c.068-.282-.556-.842-.662.911A.25.25,0,0,0,8.383,13.187Z" transform="translate(0 -0.017)"/>
    <path id="Path_2923" data-name="Path 2923" class="cls-1" d="M11.074,8.065a3.979,3.979,0,0,1,.9-.272.25.25,0,1,0-.089-.492,4.479,4.479,0,0,0-1.013.308.25.25,0,1,0,.2.457Z" transform="translate(0.011)"/>
    <path id="Path_2924" data-name="Path 2924" class="cls-1" d="M8.729,14.637a.25.25,0,0,0-.077.345c.92,1.449,1.312.652,1.033.419C9.051,14.873,9.044,14.437,8.729,14.637Z" transform="translate(0 -0.022)"/>
    <path id="Path_2925" data-name="Path 2925" class="cls-1" d="M32.195,7.611h.01c.919-.038,1.249.035,1.239-.294-.012-.369-.558-.234-1.259-.206a.25.25,0,0,0,.01.5Z" transform="translate(0.036)"/>
    <path id="Path_2926" data-name="Path 2926" class="cls-1" d="M32.957,14.431a.25.25,0,0,0,.25.235h.015c.318-.019.65-.036.995-.05a.25.25,0,0,0,.239-.261.239.239,0,0,0-.261-.239q-.52.023-1,.051A.249.249,0,0,0,32.957,14.431Z" transform="translate(0.037 -0.021)"/>
    <path id="Path_2927" data-name="Path 2927" class="cls-1" d="M29.2,7.774h.018c.738-.051,1.252.028,1.23-.328-.02-.331-.34-.235-1.265-.171a.25.25,0,0,0,.017.5Z" transform="translate(0.033)"/>
    <path id="Path_2928" data-name="Path 2928" class="cls-1" d="M29.962,14.614a.25.25,0,0,0,.25.239h.011c.311-.014.645-.034,1-.057a.25.25,0,0,0,.233-.266.257.257,0,0,0-.266-.233c-.355.023-.686.043-.994.056A.25.25,0,0,0,29.962,14.614Z" transform="translate(0.034 -0.021)"/>
    <path id="Path_2929" data-name="Path 2929" class="cls-1" d="M35.954,14.313a.25.25,0,0,0,.25.248h0c.6-.051,1.244.169,1.249-.245a.25.25,0,0,0-.247-.253c-.54-.006-.882,0-1,0A.25.25,0,0,0,35.954,14.313Z" transform="translate(0.041 -0.021)"/>
    <path id="Path_2930" data-name="Path 2930" class="cls-1" d="M27.216,13.828a.25.25,0,0,0-.043.351,1.686,1.686,0,0,0,.99.575.232.232,0,0,0,.058.007.25.25,0,0,0,.058-.493,1.194,1.194,0,0,1-.71-.4A.249.249,0,0,0,27.216,13.828Z" transform="translate(0.03 -0.02)"/>
    <path id="Path_2931" data-name="Path 2931" class="cls-1" d="M41.537,7.582a2.321,2.321,0,0,1,.646.086.25.25,0,0,0,.1-.479c-.131-.058-1.327-.337-1.34.125C40.933,7.663,41.412,7.555,41.537,7.582Z" transform="translate(0.055)"/>
    <path id="Path_2932" data-name="Path 2932" class="cls-1" d="M35.2,7.527c.924-.015,1.248.066,1.246-.264,0-.253-.352-.292-.252-.248-.678,0-1.255-.1-1.248.266C34.946,7.417,35.3,7.57,35.2,7.527Z" transform="translate(0.04)"/>
    <path id="Path_2933" data-name="Path 2933" class="cls-1" d="M38.192,7.515c.1,0,1.1.011,1,.011a.25.25,0,0,0,0-.5c-.3,0-1.106-.012-1-.011A.25.25,0,0,0,38.192,7.515Z" transform="translate(0.043)"/>
    <path id="Path_2934" data-name="Path 2934" class="cls-1" d="M38.953,14.366a.25.25,0,0,0,.236.263,16.188,16.188,0,0,0,1.936.074.251.251,0,0,0,.23-.269.256.256,0,0,0-.269-.23,15.489,15.489,0,0,1-1.87-.074A.247.247,0,0,0,38.953,14.366Z" transform="translate(0.045 -0.021)"/>
    <path id="Path_2935" data-name="Path 2935" class="cls-1" d="M42.5,12.042h0a.25.25,0,0,0-.25.247l-.009.774c0,.072,0,.14-.011.2a.251.251,0,0,0,.225.273h.024a.25.25,0,0,0,.249-.226c.007-.077.012-.16.013-.247l.009-.773A.25.25,0,0,0,42.5,12.042Z" transform="translate(0.055 -0.018)"/>
    <path id="Path_2936" data-name="Path 2936" class="cls-1" d="M26.953,9.344a.25.25,0,0,0,.292-.2,1.813,1.813,0,0,1,.328-.8.25.25,0,0,0-.391-.312,2.292,2.292,0,0,0-.428,1.022A.25.25,0,0,0,26.953,9.344Z" transform="translate(0.03)"/>
    <path id="Path_2937" data-name="Path 2937" class="cls-1" d="M27.036,12.338h.021a.25.25,0,0,0,.229-.27c-.051-.571-.072-.812-.085-.994a.26.26,0,0,0-.268-.231.25.25,0,0,0-.231.268c.014.181.077.9.086,1A.25.25,0,0,0,27.036,12.338Z" transform="translate(0.029 -0.016)"/>
    <path id="Path_2938" data-name="Path 2938" class="cls-1" d="M42.3,9.289c0,.27-.011.576-.019.926l0,.072a.25.25,0,0,0,.244.256h.006a.251.251,0,0,0,.25-.244v-.072c.008-.351.016-.659.02-.93a.25.25,0,0,0-.246-.254A.259.259,0,0,0,42.3,9.289Z" transform="translate(0.055)"/>
    <path id="Path_2939" data-name="Path 2939" class="cls-1" d="M37.963,17.435a.25.25,0,1,0,.44-.236,3.973,3.973,0,0,0-.514-.929.25.25,0,1,0-.365.342A4.815,4.815,0,0,1,37.963,17.435Z" transform="translate(0.042 -0.024)"/>
    <path id="Path_2940" data-name="Path 2940" class="cls-1" d="M39.063,24.208q-.5.023-1,.039a.25.25,0,0,0,.008.5h.008q.5-.015,1-.04a.249.249,0,0,0,.237-.262A.233.233,0,0,0,39.063,24.208Z" transform="translate(0.043 -0.037)"/>
    <path id="Path_2941" data-name="Path 2941" class="cls-1" d="M35.956,17.107c-.191.24-.4.514-.61.812a.25.25,0,0,0,.406.291c.208-.29.408-.557.594-.791a.25.25,0,1,0-.391-.312Z" transform="translate(0.04 -0.026)"/>
    <path id="Path_2942" data-name="Path 2942" class="cls-1" d="M33.061,24.713h.007a.25.25,0,0,0,.007-.5c-.739-.021-.909-.036-.948-.041a.253.253,0,0,0-.293.146.25.25,0,0,0,.135.327A4.445,4.445,0,0,0,33.061,24.713Z" transform="translate(0.036 -0.037)"/>
    <path id="Path_2943" data-name="Path 2943" class="cls-1" d="M39.353,18.961a.25.25,0,0,0-.438.239c.158.29.323.587.487.879a.25.25,0,0,0,.436-.245C39.674,19.545,39.51,19.249,39.353,18.961Z" transform="translate(0.044 -0.029)"/>
    <path id="Path_2944" data-name="Path 2944" class="cls-1" d="M32.615,22.142c-.2.323-.37.616-.516.864a.25.25,0,0,0,.088.342c.29.169.392-.181.855-.947a.25.25,0,0,0-.428-.259Z" transform="translate(0.036 -0.034)"/>
    <path id="Path_2945" data-name="Path 2945" class="cls-1" d="M41.857,23.876a1.548,1.548,0,0,1-.809.236.25.25,0,0,0,.026.5H41.1a2.014,2.014,0,0,0,1.078-.351.25.25,0,1,0-.321-.383Z" transform="translate(0.055 -0.037)"/>
    <path id="Path_2946" data-name="Path 2946" class="cls-1" d="M35.067,24.759l.767.013h.241a.25.25,0,0,0,0-.5h-.241l-.759-.013a.241.241,0,0,0-.255.245A.25.25,0,0,0,35.067,24.759Z" transform="translate(0.04 -0.037)"/>
    <path id="Path_2947" data-name="Path 2947" class="cls-1" d="M41.448,22.63a.25.25,0,0,0,0-.354c-.592-.58-.628-1.015-.939-.807a.25.25,0,0,0-.072.346,4.035,4.035,0,0,0,.661.818A.25.25,0,0,0,41.448,22.63Z" transform="translate(0.055 -0.033)"/>
    <path id="Path_2948" data-name="Path 2948" class="cls-1" d="M34.214,19.586c-.183.281-.365.565-.543.846a.25.25,0,0,0,.423.268c.176-.279.357-.561.539-.84a.25.25,0,1,0-.419-.273Z" transform="translate(0.038 -0.03)"/>
    <path id="Path_2949" data-name="Path 2949" class="cls-1" d="M18.119,21.974h0a.25.25,0,0,0-.25.249l0,1a.25.25,0,0,0,.249.251h0a.25.25,0,0,0,.25-.249l0-1A.25.25,0,0,0,18.119,21.974Z" transform="translate(0.019 -0.034)"/>
    <path id="Path_2950" data-name="Path 2950" class="cls-1" d="M17.959,19.2c-.028.279-.048.613-.062,1.014a.251.251,0,0,0,.242.258h.008a.25.25,0,0,0,.25-.242c.013-.387.031-.71.059-.979a.25.25,0,1,0-.5-.051Z" transform="translate(0.019 -0.029)"/>
    <path id="Path_2951" data-name="Path 2951" class="cls-1" d="M19.29,18.125h.092l.273,0c.115,0,.238,0,.37,0,.085,0,.175,0,.269,0a.25.25,0,0,0-.007-.5h-.007c-.088,0-.173,0-.255,0l-.643-.007h-.1a.25.25,0,0,0-.246.254A.236.236,0,0,0,19.29,18.125Z" transform="translate(0.021 -0.026)"/>
    <path id="Path_2952" data-name="Path 2952" class="cls-1" d="M20.055,24.351a.25.25,0,0,0,.233-.267.258.258,0,0,0-.266-.232c-.335.022-.669.05-1,.082a.25.25,0,0,0-.226.272C18.829,24.587,19.393,24.4,20.055,24.351Z" transform="translate(0.021 -0.037)"/>
    <path id="Path_2953" data-name="Path 2953" class="cls-1" d="M22.037,24.274h.333q.331,0,.662.006h0a.25.25,0,0,0,0-.5q-.335-.007-.671-.006h-.336a.25.25,0,0,0,0,.5Z" transform="translate(0.024 -0.036)"/>
    <path id="Path_2954" data-name="Path 2954" class="cls-1" d="M22.281,17.993h.02l1-.077a.25.25,0,0,0,.229-.269.244.244,0,0,0-.269-.229l-1,.076a.25.25,0,0,0,.019.5Z" transform="translate(0.024 -0.026)"/>
    <path id="Path_2955" data-name="Path 2955" class="cls-1" d="M25.265,17.81c.346.013.346.013.366.346,0,.007,0,.013,0,.02s0,.012,0,.018q.032.5.057.995a.25.25,0,0,0,.25.238h.012a.25.25,0,0,0,.237-.262q-.025-.5-.057-1a.218.218,0,0,0,0-.031q0-.015,0-.031c-.027-.459-.1-.762-.845-.789a.24.24,0,0,0-.259.241A.251.251,0,0,0,25.265,17.81Z" transform="translate(0.028 -0.027)"/>
    <path id="Path_2956" data-name="Path 2956" class="cls-1" d="M25.015,24.374c1.006.079,1.02.137,1.146.024a.253.253,0,0,0,.083-.186c-.493-.074-.108-.03-.224-.249q-.483-.051-.965-.088a.243.243,0,0,0-.269.229A.249.249,0,0,0,25.015,24.374Z" transform="translate(0.028 -0.037)"/>
    <path id="Path_2957" data-name="Path 2957" class="cls-1" d="M26.006,20.925h0a.25.25,0,0,0-.245.255q.01.5.011,1a.25.25,0,0,0,.25.249h0a.25.25,0,0,0,.25-.251q0-.5-.011-1A.25.25,0,0,0,26.006,20.925Z" transform="translate(0.028 -0.032)"/>
  </g>
</svg>
