<svg xmlns="http://www.w3.org/2000/svg" width="43" height="48" viewBox="0 0 43 48">
  <defs>
    <style>
      .cls-1 {
        fill: #212529;
      }
    </style>
  </defs>
  <g id="icon-web-mobile-design" transform="translate(-4.011 -1.513)">
    <path id="Path_2958" data-name="Path 2958" class="cls-1" d="M10.172,21.612c5.242,1.409,10.308.691,15.624-.11a63.918,63.918,0,0,1,8.2-.877.5.5,0,0,0-.019-1,64.692,64.692,0,0,0-8.328.888c-13.782,2.073-15.623-.311-15.56.023a28.291,28.291,0,0,1,.356-3.417c1.957-1.5,3.288-2.7,4.206-3.537a2.366,2.366,0,0,0,3.176-.131c.542.7.965,1.252,1.58,1.991-1,1.074-.6,3.771,1.484,3.771a2.571,2.571,0,0,0,2.437-3.447c.984-.947,1.679-1.671,2.18-2.224A2.547,2.547,0,0,0,29.2,11.506c.7-.116,1.611-.251,2.818-.377.425,2.611,3.936,2.067,4.507-.239.854-3.461-4-3.362-4.482-.769-1.27.129-2.226.269-2.96.39-.957-2.734-5.709-.983-4.223,2.255-.47.524-1.134,1.221-2.1,2.153a2.353,2.353,0,0,0-2.543-.061c-.815-.976-1.378-1.73-1.761-2.221a2.514,2.514,0,0,0-.17-2.379c-1.042-1.667-4.893-.615-4.108,2.4-1.156,1.058-2.142,1.933-3.559,3.056a51.955,51.955,0,0,0,.463-7.767.5.5,0,0,0-.517-.482c-.941.032.092.386-1.191,10.1C9.018,20.267,8.637,21.2,10.172,21.612ZM33.165,9.857a2.285,2.285,0,0,1,1.567-.668c1.276,0,1.226,2.511-.654,2.668a.857.857,0,0,1-.939-.45A1.784,1.784,0,0,1,33.165,9.857Zm-5.191.627c1.143,1.828-1.975,3.421-2.33,1.488C25.31,10.153,27.56,9.821,27.974,10.485ZM20.086,16.18a2.186,2.186,0,0,1,1.5-.663c.866,0,1.143,1.1.755,1.8-.506.913-2.152,1.42-2.411.005A1.669,1.669,0,0,1,20.086,16.18ZM17.44,10.789c1.144,1.828-1.97,3.437-2.331,1.487C14.776,10.462,17.022,10.124,17.44,10.789Z"/>
    <path id="Path_2959" data-name="Path 2959" class="cls-1" d="M8.528,26.341c7.358.029,15.221-.064,23.2-.3a.5.5,0,1,0-.03-1c-23.531.71-23.668-.276-23.671.8A.5.5,0,0,0,8.528,26.341Z" transform="translate(0 0.013)"/>
    <path id="Path_2960" data-name="Path 2960" class="cls-1" d="M8.528,30.647c7.571.03,15.471-.072,23.2-.305a.5.5,0,0,0,.485-.515.507.507,0,0,0-.515-.485c-7.678.231-15.475.336-23.169.305h0a.5.5,0,0,0,0,1Z" transform="translate(0 0.015)"/>
    <path id="Path_2961" data-name="Path 2961" class="cls-1" d="M29.26,33.648c-11.354.382-20.255.315-20.735.306a.5.5,0,0,0,0,1c6.567.029,13.643-.065,20.765-.306a.5.5,0,0,0,.483-.516A.5.5,0,0,0,29.26,33.648Z" transform="translate(0 0.017)"/>
    <path id="Path_2962" data-name="Path 2962" class="cls-1" d="M8.53,38.259a.5.5,0,0,0,0,1c5.146.029,10.677-.066,16.234-.306a.5.5,0,0,0-.043-1C15.036,38.371,8.1,38.259,8.53,38.259Z" transform="translate(0 0.02)"/>
    <path id="Path_2963" data-name="Path 2963" class="cls-1" d="M10.339,43.569c4.793,0,9.636-.1,14.422-.311a.5.5,0,0,0-.043-1c-16.4.706-16.683-.167-16.689.8C8.026,43.753,8.835,43.569,10.339,43.569Z" transform="translate(0 0.025)"/>
    <path id="Path_2964" data-name="Path 2964" class="cls-1" d="M29.672,48.916c5.5.029,7.82,0,9-1.279,1.6-1.741.565-5.166.184-13.848,1.7-3.852,2.895-6.194,3.915-8.189.971-1.9,1.8-3.529,2.775-5.849.724.582.563.973-.872,4.4-.418,1-.935,2.234-1.555,3.772a.5.5,0,0,0,.928.374c.618-1.533,1.132-2.764,1.549-3.759,1.733-4.142,1.911-4.583.342-5.746.868-2.15,1.2-2.684.663-2.954l-.44-.222c.581-2.143.993-2.488.6-2.86-.413-.391-1.948-1.629-2.472-1.414-.331.14-.147.143-1.217,2.718-1.146-.463-.766-.62-2.069,2.592a.5.5,0,1,0-.4.924l.013,0c-.66,1.566-1.251,2.812-1.86,4.024.206-16.676,1.516-20.095-2.067-20.095l-.192,0c-16.038.485-1.752.59-27.617.59-4.775,0-3.256,3.722-4.371,18.117-.79,10.192-.549,9.554.033,19.758C5.3,53.2,3.209,48.765,29.672,48.916Zm15.091-36.4a6.8,6.8,0,0,1,1.081.764l-.59,1.884-1.271-.645C44.258,13.86,44.519,13.189,44.764,12.515Zm-2.039,2.494.842.424c1.671.86,1.654,1.11,2.05,1.033l.132.066c-.224.592-.434,1.13-.64,1.644a7.742,7.742,0,0,0-3.138-1.24C42.211,16.339,42.458,15.713,42.725,15.009ZM41.588,17.87a6.745,6.745,0,0,1,3.131,1.265c-1.006,2.421-1.847,4.068-2.84,6.01-1.438,2.811-3.22,6.295-6.253,13.694L32.6,37.314C37.618,25.063,39.11,23.78,41.588,17.87ZM35.106,39.7l-1.9,2.368-.956-.364.173-3.356.035.018ZM5.512,20.3C6.66,5.455,5.254,3.106,8.885,3.106c26.517,0,28.056-1.063,28.757-.337,1,1.03.207,6.447.1,20.839-1.419,2.766-3.2,6.3-6.243,13.756a.486.486,0,0,0-.026.128c0,.012-.01.022-.011.035l-.231,4.486c-.027.515.554.545.742.654a5.833,5.833,0,0,1-.262.812.5.5,0,1,0,.924.384,6.929,6.929,0,0,0,.279-.837l.274.1a.5.5,0,0,0,.568-.154l2.516-3.133a.485.485,0,0,0,.028-.056.494.494,0,0,0,.046-.068c.58-1.422,1.114-2.7,1.61-3.862.4,6.644,1.088,9.9-.023,11.1-.888.964-3.21.985-8.256.957C3.4,47.766,6.237,52.006,5.546,39.923,4.963,29.732,4.729,30.4,5.512,20.3Z"/>
  </g>
</svg>
