<svg xmlns="http://www.w3.org/2000/svg" width="16" height="16" viewBox="0 0 16 16">
  <path id="icon" d="M77.7,64.934c-.518-.552-1.05-1.09-1.6-1.607a2.965,2.965,0,0,0-4.094-.02c-.836.781-1.626,1.609-2.437,2.416a.062.062,0,0,0-.011.022.025.025,0,0,0,.013.031.041.041,0,0,0,.018.005c.029,0,.06,0,.09,0a3.971,3.971,0,0,1,2.02.5c.1.057.148.015.21-.049.463-.464.924-.931,1.39-1.39a1,1,0,0,1,1.48,0q.686.68,1.365,1.364a1,1,0,0,1,.005,1.467q-2.107,2.126-4.235,4.233a1.127,1.127,0,0,1-.454.265.983.983,0,0,1-1.035-.311c-.377-.38-.755-.757-1.127-1.128a.3.3,0,0,0-.423,0l-.988.989a.3.3,0,0,0,0,.424c.4.411.807.832,1.226,1.238a3,3,0,0,0,4.165.007q.7-.68,1.383-1.371c1.023-1.026,2.06-2.035,3.057-3.085A2.969,2.969,0,0,0,77.7,64.934ZM71.37,75.213a.413.413,0,0,0-.048,0,4,4,0,0,1-2.054-.5c-.1-.059-.15-.007-.21.053-.459.459-.916.922-1.377,1.377a1,1,0,0,1-1.506-.005q-.639-.636-1.277-1.276a1.024,1.024,0,0,1,0-1.62l4.07-4.069c.042-.042.084-.084.128-.124a.98.98,0,0,1,1.143-.15,1.57,1.57,0,0,1,.346.278c.37.362.734.73,1.094,1.09a.3.3,0,0,0,.423,0c.335-.335.668-.666,1.012-1.008a.3.3,0,0,0,0-.421c-.472-.47-.935-.955-1.441-1.388a2.961,2.961,0,0,0-3.891.088c-.757.71-1.478,1.454-2.212,2.187-.77.772-1.555,1.529-2.3,2.326a2.959,2.959,0,0,0,.016,4.025c.512.549,1.045,1.079,1.591,1.593a2.963,2.963,0,0,0,4.079.027c.84-.784,1.635-1.617,2.451-2.427a.047.047,0,0,0,.009-.026C71.414,75.23,71.4,75.215,71.37,75.213Z" transform="translate(-62.485 -62.497)" fill="#d5dde5"/>
</svg>
