<svg width="57" height="38" viewBox="0 0 57 38" fill="none" xmlns="http://www.w3.org/2000/svg">
	<rect x="2" y="3" width="53" height="32" fill="white"/>
	<path d="M15.0511 16.8115C13.9931 16.8115 13.1821 17.1515 13.1821 17.1515L12.9581 18.4815C12.9581 18.4815 13.6271 18.2095 14.6401 18.2095C15.2151 18.2095 15.6351 18.2735 15.6351 18.7405C15.6351 19.0245 15.5841 19.1295 15.5841 19.1295C15.5841 19.1295 15.1311 19.0925 14.9211 19.0925C13.5861 19.0925 12.1841 19.6605 12.1841 21.3795C12.1841 22.7335 13.1031 23.0425 13.6741 23.0425C14.7631 23.0425 15.2331 22.3365 15.2571 22.3345L15.2061 22.9245H16.5651L17.1711 18.6745C17.1701 16.8695 15.5971 16.8115 15.0511 16.8115ZM14.2891 21.7495C13.8101 21.7495 13.6851 21.3845 13.6851 21.1665C13.6851 20.7445 13.9141 20.2365 15.0451 20.2365C15.3091 20.2375 15.3371 20.2645 15.3811 20.2725C15.4111 20.5325 15.2191 21.7495 14.2891 21.7495Z" fill="black"/>
	<path d="M19.9591 18.2372C20.1761 18.2372 21.0131 18.3062 21.0131 18.3062L21.2081 16.9442C21.2081 16.9442 20.6661 16.8232 19.7841 16.8232C18.6421 16.8232 17.4841 17.2792 17.4841 18.8382C17.4841 20.6062 19.4161 20.4262 19.4161 21.1722C19.4161 21.6682 18.8761 21.7092 18.4601 21.7092C17.7391 21.7092 17.0911 21.4632 17.0891 21.4732L16.8831 22.8242C16.9201 22.8342 17.3201 23.0122 18.6151 23.0122C18.9621 23.0122 20.9491 23.1022 20.9491 21.0512C20.9491 19.1332 19.1101 19.5122 19.1101 18.7412C19.1101 18.3572 19.4091 18.2372 19.9591 18.2372Z" fill="black"/>
	<path d="M23.2061 18.4106H24.0231L24.2201 16.9586H23.4501L23.6071 16.0586H22.0641C22.0301 16.0916 21.1531 21.1346 21.1531 21.7466C21.1531 22.6576 21.6641 23.0616 22.3831 23.0546C22.9461 23.0506 23.3851 22.8946 23.5401 22.8516L23.7331 21.5396C23.6271 21.5396 23.4721 21.5856 23.3351 21.5856C22.7981 21.5856 22.7391 21.2986 22.7731 21.0876L23.2061 18.4106Z" fill="black"/>
	<path d="M29.673 9.9873H26.919C26.549 10.4873 26.201 11.0193 25.886 11.5393H30.799C30.458 10.9973 30.081 10.4793 29.673 9.9873Z" fill="black"/>
	<path d="M51.1611 27.4451C51.1311 27.4001 51.1061 27.3661 51.0861 27.3451C51.0751 27.3351 51.0611 27.3241 51.0431 27.3191C51.0861 27.3161 51.1221 27.3001 51.1481 27.2731C51.1731 27.2461 51.1871 27.2141 51.1871 27.1771C51.1871 27.1511 51.1791 27.1261 51.1641 27.1031C51.1491 27.0801 51.1271 27.0631 51.1001 27.0541C51.0751 27.0441 51.0321 27.0391 50.9731 27.0391H50.7991V27.5441H50.8811V27.3301H50.9281C50.9561 27.3301 50.9791 27.3361 50.9921 27.3481C51.0131 27.3651 51.0431 27.4041 51.0781 27.4651L51.1221 27.5451H51.2231L51.1611 27.4451ZM50.9791 27.2631H50.8791V27.1111H50.9731C51.0121 27.1111 51.0381 27.1141 51.0531 27.1201C51.0691 27.1261 51.0791 27.1351 51.0881 27.1461C51.0961 27.1581 51.1001 27.1711 51.1001 27.1851C51.1001 27.2081 51.0921 27.2281 51.0751 27.2421C51.0581 27.2551 51.0251 27.2631 50.9791 27.2631Z" fill="black"/>
	<path d="M31.6341 13.0615H25.0271C24.6051 13.8605 24.3251 14.4645 24.2461 14.6145H32.2601C32.0791 14.0805 31.8711 13.5635 31.6341 13.0615Z" fill="black"/>
	<path d="M10.293 15.583L8.77203 20.093L8.69303 15.583H6.44103L5.20703 22.932H6.69603L7.63503 17.392L7.77303 22.932H8.83603L10.819 17.392L9.94003 22.932H11.52L12.737 15.583H10.293Z" fill="black"/>
	<path d="M40.069 16.8115C39.009 16.8115 38.199 17.1515 38.199 17.1515L37.9739 18.4815C37.9739 18.4815 38.6439 18.2095 39.6559 18.2095C40.2309 18.2095 40.652 18.2735 40.652 18.7405C40.652 19.0245 40.5989 19.1295 40.5989 19.1295C40.5989 19.1295 40.147 19.0925 39.935 19.0925C38.601 19.0925 37.2 19.6605 37.2 21.3795C37.2 22.7335 38.1199 23.0425 38.6899 23.0425C39.7779 23.0425 40.2479 22.3365 40.2729 22.3345L40.222 22.9245H41.58L42.186 18.6745C42.189 16.8695 40.615 16.8115 40.069 16.8115ZM39.3089 21.7495C38.8289 21.7495 38.705 21.3845 38.705 21.1665C38.705 20.7445 38.9339 20.2365 40.0649 20.2365C40.3279 20.2375 40.356 20.2645 40.401 20.2725C40.43 20.5325 40.2369 21.7495 39.3089 21.7495Z" fill="black"/>
	<path d="M51.2099 22.2545C51.1689 22.1785 51.1089 22.1205 51.0339 22.0805C50.9599 22.0395 50.8839 22.0195 50.8039 22.0195C50.7269 22.0205 50.6499 22.0405 50.5739 22.0805C50.4989 22.1205 50.4409 22.1785 50.3989 22.2545C50.3569 22.3295 50.3359 22.4075 50.3359 22.4885C50.3359 22.5695 50.3569 22.6465 50.3989 22.7205C50.4399 22.7945 50.4979 22.8535 50.5719 22.8955C50.6469 22.9365 50.7239 22.9575 50.8039 22.9575C50.8859 22.9575 50.9639 22.9365 51.0369 22.8955C51.1109 22.8535 51.1689 22.7945 51.2099 22.7205C51.2529 22.6465 51.2719 22.5695 51.2719 22.4885C51.2719 22.4055 51.2519 22.3275 51.2099 22.2545ZM51.1449 22.6815C51.1109 22.7435 51.0629 22.7905 50.9999 22.8275C50.9379 22.8615 50.8739 22.8795 50.8069 22.8795C50.7389 22.8795 50.6739 22.8615 50.6129 22.8275C50.5499 22.7925 50.5029 22.7445 50.4669 22.6815C50.4309 22.6185 50.4149 22.5545 50.4149 22.4875C50.4149 22.4205 50.4319 22.3555 50.4689 22.2925C50.5039 22.2305 50.5509 22.1825 50.6149 22.1475C50.6789 22.1125 50.7419 22.0975 50.8069 22.0975C50.8719 22.0975 50.9359 22.1135 50.9969 22.1475C51.0609 22.1825 51.1079 22.2295 51.1429 22.2925C51.1779 22.3555 51.1969 22.4205 51.1969 22.4875C51.1969 22.5545 51.1799 22.6195 51.1449 22.6815Z" fill="black"/>
	<path d="M50.9631 22.6482C50.9341 22.6012 50.9081 22.5682 50.8891 22.5482C50.8771 22.5372 50.8641 22.5282 50.8461 22.5222C50.8891 22.5192 50.9241 22.5032 50.9501 22.4762C50.9751 22.4502 50.9901 22.4162 50.9901 22.3802C50.9901 22.3552 50.9821 22.3292 50.9661 22.3062C50.9501 22.2842 50.9291 22.2672 50.9041 22.2572C50.8791 22.2472 50.8351 22.2422 50.7761 22.2422H50.6001V22.7462H50.6821V22.5322H50.7291C50.7581 22.5322 50.7811 22.5382 50.7951 22.5492C50.8161 22.5672 50.8441 22.6052 50.8811 22.6682L50.9241 22.7472H51.0251L50.9631 22.6482ZM50.7831 22.4632H50.6841V22.3102H50.7761C50.8161 22.3102 50.8421 22.3132 50.8581 22.3182C50.8711 22.3252 50.8831 22.3322 50.8911 22.3452C50.9001 22.3582 50.9041 22.3692 50.9041 22.3862C50.9041 22.4082 50.8951 22.4272 50.8801 22.4412C50.8611 22.4582 50.8301 22.4632 50.7831 22.4632Z" fill="black"/>
	<path d="M45.3129 16.8848C44.6219 16.8848 44.1089 17.8278 44.1089 17.8278L44.2469 16.9608H42.8089L41.8459 22.9428H43.4299C43.8809 20.3868 43.9629 18.3138 45.0339 18.6928C45.2229 17.7048 45.4049 17.3218 45.6099 16.9048C45.6099 16.9058 45.5139 16.8848 45.3129 16.8848Z" fill="black"/>
	<path d="M49.293 15.5909L48.96 17.6559C48.96 17.6559 48.38 16.8529 47.47 16.8529C46.055 16.8539 44.877 18.5589 44.877 20.5169C44.877 21.7819 45.506 23.0209 46.79 23.0209C47.715 23.0209 48.227 22.3759 48.227 22.3759L48.16 22.9269H49.661L50.841 15.5879L49.293 15.5909ZM47.336 21.5209C46.78 21.5209 46.52 21.0549 46.52 20.3229C46.52 19.1259 47.057 18.3369 47.736 18.3369C48.29 18.3379 48.575 18.7189 48.575 19.6169C48.575 20.4319 48.172 21.5209 47.336 21.5209Z" fill="black"/>
	<path d="M55.026 0.939453H1.454C0.65 0.939453 0 1.59045 0 2.39345V36.0885C0 36.8915 0.65 37.5425 1.454 37.5425H55.026C55.83 37.5425 56.48 36.8915 56.48 36.0885V2.39345C56.48 1.59045 55.83 0.939453 55.026 0.939453ZM51.409 27.5185C51.367 27.5945 51.31 27.6525 51.236 27.6935C51.162 27.7345 51.084 27.7555 51.004 27.7555C50.922 27.7555 50.844 27.7345 50.77 27.6935C50.697 27.6525 50.639 27.5945 50.596 27.5185C50.555 27.4455 50.534 27.3675 50.534 27.2865C50.534 27.2055 50.555 27.1285 50.597 27.0525C50.638 26.9765 50.698 26.9195 50.772 26.8785C50.847 26.8395 50.923 26.8185 51.003 26.8185C51.082 26.8185 51.158 26.8395 51.232 26.8785C51.307 26.9195 51.366 26.9765 51.407 27.0525C51.449 27.1285 51.469 27.2065 51.469 27.2865C51.469 27.3665 51.451 27.4475 51.409 27.5185ZM52.457 19.2415C52.459 27.2465 45.973 33.7385 37.967 33.7405C34.223 33.7415 30.809 32.3225 28.237 29.9915C25.665 32.3185 22.258 33.7365 18.52 33.7365C10.519 33.7365 4.025 27.2435 4.025 19.2415C4.025 11.2715 10.468 4.79745 18.427 4.74545C18.458 4.74545 18.489 4.74545 18.52 4.74545C22.258 4.74545 25.666 6.16345 28.238 8.49045C30.809 6.16245 34.219 4.74345 37.96 4.74245C45.966 4.73945 52.457 11.2285 52.459 19.2345C52.457 19.2365 52.457 19.2375 52.457 19.2415Z" fill="black"/>
	<path d="M26.7529 28.4062C27.2119 28.9682 27.6979 29.5043 28.2349 29.9903C28.2469 29.9793 28.2599 29.9693 28.2719 29.9593C28.2719 29.9593 28.2709 29.9593 28.2709 29.9583H28.2739C28.8019 29.4773 29.2949 28.9592 29.7459 28.4062H26.7529V28.4062Z" fill="black"/>
	<path d="M28.7271 20.4501C28.7271 20.4501 28.9301 19.4501 28.9301 19.0431C28.9301 18.0261 28.4241 16.7861 26.7301 16.7861C25.1781 16.7871 24.0291 18.4591 24.0291 20.3491C24.0291 22.5301 25.4681 23.0481 26.6951 23.0481C27.8271 23.0481 28.3251 22.7941 28.3251 22.7941L28.5971 21.3061C28.5971 21.3061 27.7361 21.6861 26.9581 21.6861C25.3011 21.6861 25.5911 20.4501 25.5911 20.4501H28.7271V20.4501ZM26.7351 18.1711C27.6061 18.1711 27.4451 19.1501 27.4451 19.2281H25.7321C25.7321 19.1271 25.8941 18.1711 26.7351 18.1711Z" fill="black"/>
	<path d="M35.9651 16.9909C36.7501 16.9909 37.3811 17.4319 37.3811 17.4319L37.6331 15.7969C37.6331 15.7969 36.6991 15.4189 35.8951 15.4189C34.1141 15.4189 32.3811 16.9649 32.3811 19.8679C32.3811 21.7929 33.3161 23.0639 35.1581 23.0639C35.6781 23.0639 36.5081 22.8529 36.5081 22.8529L36.7841 21.1689C36.7841 21.1689 36.0281 21.5479 35.5081 21.5479C34.4121 21.5469 33.9731 20.7109 33.9731 19.8149C33.9731 17.9919 34.9151 16.9909 35.9651 16.9909Z" fill="black"/>
	<path d="M24.8181 25.3613C25.0691 25.9003 25.3611 26.4133 25.6741 26.9133H30.8171C31.1291 26.4153 31.4101 25.8973 31.6611 25.3613H24.8181Z" fill="black"/>
	<path d="M32.3529 16.8869C31.6619 16.8869 31.1499 17.8299 31.1499 17.8299L31.2889 16.9629H29.8519L28.8889 22.9449H30.4729C30.9219 20.3899 31.0059 18.3159 32.0769 18.6949C32.2649 17.7059 32.4459 17.3229 32.6509 16.9049C32.6509 16.9049 32.5549 16.8849 32.3529 16.8869Z" fill="black"/>
</svg>
