<svg width="57" height="38" viewBox="0 0 57 38" fill="none" xmlns="http://www.w3.org/2000/svg">
	<rect x="1" y="4" width="54" height="29" fill="white"/>
	<path d="M39.7679 18.9817C39.0669 18.8117 38.2439 19.4237 38.1509 20.2027C38.6039 20.2957 39.5289 20.1837 39.8829 19.9997C40.1269 19.8727 40.2499 19.6627 40.2129 19.4177C40.1739 19.1667 40.0059 19.0407 39.7679 18.9817Z" fill="black"/>
	<path d="M8.41112 16.9819C7.99512 16.8339 7.56512 16.8659 7.13912 16.9219C7.08712 16.9299 7.01612 17.0089 7.00412 17.0659C6.85312 17.8339 6.71012 18.6009 6.54712 19.4659C6.90612 19.4659 7.22612 19.4929 7.53912 19.4589C8.14612 19.3939 8.63912 19.1189 8.91012 18.5399C9.21912 17.8849 8.99712 17.1899 8.41112 16.9819Z" fill="black"/>
	<path d="M55.026 0.939453H1.454C0.65 0.939453 0 1.59045 0 2.39345V36.0875C0 36.8905 0.65 37.5425 1.454 37.5425H55.026C55.83 37.5425 56.48 36.8915 56.48 36.0885V2.39345C56.48 1.59145 55.83 0.939453 55.026 0.939453ZM17.346 11.8405C17.496 11.8955 17.653 11.9805 17.761 12.0965C18.693 13.0845 19.279 14.2445 19.439 15.6035C19.47 15.8655 19.484 16.1295 19.506 16.3925C19.49 17.2105 19.344 18.0025 19.064 18.7695C19.034 18.8515 18.975 18.9255 18.92 18.9955C18.79 19.1665 18.651 19.1805 18.553 18.9945C18.425 18.7495 18.317 18.4865 18.255 18.2175C18.066 17.3895 17.892 16.5575 17.733 15.7235C17.53 14.6565 17.347 13.5855 17.158 12.5165C17.13 12.3625 17.117 12.2055 17.104 12.0505C17.09 11.8725 17.191 11.7845 17.346 11.8405ZM8.703 20.6385C7.983 20.8775 7.249 20.9315 6.503 20.8635C6.327 20.8455 6.274 20.8925 6.244 21.0585C6.088 21.9175 5.92 22.7775 5.75 23.6345C5.738 23.7025 5.676 23.8145 5.634 23.8155C5.109 23.8285 4.583 23.8245 4.021 23.8245C4.101 23.3835 4.17 22.9785 4.247 22.5765C4.67 20.3565 5.098 18.1375 5.518 15.9165C5.544 15.7765 5.585 15.6795 5.73 15.6575C6.829 15.4915 7.929 15.3795 9.026 15.6505C9.984 15.8865 10.649 16.5575 10.762 17.3485C10.991 18.9265 10.073 20.1875 8.703 20.6385ZM15.682 23.8335C15.319 23.8215 14.953 23.8215 14.59 23.8325C14.403 23.8405 14.341 23.7705 14.359 23.5885C14.386 23.2975 14.397 23.0045 14.417 22.6965C14.122 23.0045 13.889 23.3125 13.593 23.5405C12.979 24.0145 12.276 24.1235 11.564 23.7955C10.86 23.4735 10.571 22.8465 10.542 22.1075C10.479 20.5555 11.019 19.2715 12.329 18.3775C13.151 17.8165 14.093 17.6445 15.07 17.6995C15.569 17.7275 16.064 17.8465 16.562 17.9145C16.763 17.9435 16.79 18.0545 16.757 18.2285C16.537 19.3865 16.3 20.5415 16.11 21.7045C16.008 22.3225 15.978 22.9525 15.938 23.5785C15.926 23.7655 15.881 23.8415 15.682 23.8335ZM17.388 25.8595C17.071 26.3865 16.868 26.9795 16.608 27.5405C16.568 27.6245 16.477 27.7695 16.447 27.7595C16.334 27.7255 16.174 27.6605 16.145 27.5715C16.074 27.3525 16.005 27.1005 16.047 26.8835C16.272 25.7065 16.76 24.6205 17.307 23.5625C18.368 21.5105 19.697 19.6415 21.25 17.9395C22.134 16.9715 23.051 16.0305 23.995 15.1225C25.415 13.7565 26.995 12.6015 28.759 11.7075C29.573 11.2955 30.422 10.9865 31.318 10.8185C31.468 10.7895 31.617 10.7535 31.765 10.7215C31.765 10.7215 33.613 10.3655 34.423 11.7525C34.423 11.7525 34.644 12.0895 34.601 12.2015C34.55 12.3315 34.337 12.4565 34.181 12.4785C32.702 12.6985 31.267 13.0855 29.89 13.6515C29.09 13.9795 28.315 14.3765 27.552 14.7855C25.891 15.6765 24.542 16.9625 23.226 18.2825C21.832 19.6785 20.529 21.1545 19.392 22.7645C18.683 23.7685 18.021 24.8075 17.388 25.8595ZM28.69 22.0865C28.026 23.3285 26.968 23.9325 25.898 23.9635C24.344 23.9675 23.459 23.3915 23.133 22.3565C22.599 20.6555 23.625 17.9995 26.137 17.7205C26.889 17.6375 27.591 17.7315 28.208 18.1895C28.795 18.6255 29.08 19.2325 29.125 19.9545C29.172 20.7035 29.045 21.4225 28.69 22.0865ZM35.373 21.0855C35.211 21.9365 35.051 22.7855 34.879 23.6335C34.863 23.7075 34.775 23.8225 34.717 23.8245C34.213 23.8375 33.708 23.8285 33.204 23.8245C33.181 23.8245 33.16 23.8065 33.112 23.7845C33.202 23.2945 33.3 22.8045 33.388 22.3125C33.521 21.5585 33.651 20.8025 33.773 20.0465C33.792 19.9175 33.784 19.7815 33.769 19.6515C33.721 19.2005 33.392 18.9905 32.954 19.1315C32.53 19.2665 32.279 19.5925 32.071 19.9565C31.765 20.4905 31.658 21.0825 31.554 21.6785C31.44 22.3255 31.324 22.9755 31.195 23.6215C31.181 23.6975 31.092 23.8165 31.033 23.8185C30.516 23.8345 29.996 23.8275 29.422 23.8275C29.794 21.8125 30.157 19.8345 30.523 17.8415C31.02 17.8415 31.495 17.8415 32.012 17.8415C31.987 18.1585 31.963 18.4625 31.938 18.7765C32.109 18.6155 32.26 18.4685 32.418 18.3305C32.997 17.8255 33.664 17.6015 34.432 17.7275C35.067 17.8315 35.506 18.2985 35.578 18.9485C35.658 19.6725 35.508 20.3775 35.373 21.0855ZM40.868 21.0625C40.319 21.3345 39.726 21.4375 39.122 21.4735C38.744 21.4955 38.364 21.4775 37.976 21.4775C37.937 22.0865 38.349 22.5185 38.97 22.5945C39.574 22.6685 40.156 22.5725 40.72 22.3565C40.782 22.3335 40.844 22.3095 40.906 22.2885C40.919 22.2835 40.938 22.2875 40.98 22.2875C41.014 22.6415 41.058 23.0005 41.076 23.3585C41.078 23.4285 40.998 23.5425 40.931 23.5695C39.952 23.9715 38.935 24.1105 37.903 23.8425C36.939 23.5945 36.413 22.9045 36.306 21.9405C36.154 20.5765 36.553 19.3785 37.616 18.4755C38.491 17.7305 39.516 17.4975 40.631 17.8295C41.374 18.0505 41.79 18.6055 41.846 19.3755C41.9 20.1325 41.57 20.7115 40.868 21.0625ZM46.662 21.0885C45.926 21.4305 45.135 21.4805 44.34 21.4975C44.176 21.5005 44.012 21.4975 43.838 21.4975C43.781 22.0745 44.195 22.5165 44.822 22.5925C45.408 22.6625 45.974 22.5755 46.525 22.3735C46.617 22.3405 46.709 22.3055 46.831 22.2605C46.87 22.6395 46.913 22.9975 46.932 23.3545C46.935 23.4245 46.857 23.5395 46.789 23.5665C45.793 23.9755 44.764 24.1155 43.715 23.8295C42.773 23.5715 42.276 22.8855 42.163 21.9455C42.017 20.7445 42.325 19.6565 43.163 18.7675C44.063 17.8125 45.178 17.4715 46.454 17.8235C47.236 18.0395 47.652 18.6015 47.7 19.3935C47.747 20.1675 47.395 20.7505 46.662 21.0885ZM52.143 19.2915C52.133 19.3335 52.057 19.3865 52.006 19.3945C50.847 19.5465 50.363 19.9565 50.074 21.1405C49.873 21.9645 49.741 22.8045 49.572 23.6365C49.559 23.7055 49.498 23.8165 49.456 23.8175C48.914 23.8295 48.372 23.8255 47.795 23.8255C47.873 23.3905 47.941 22.9965 48.018 22.6015C48.322 21.0815 48.637 19.5635 48.762 18.0135C48.766 17.9495 48.854 17.8415 48.905 17.8395C49.348 17.8255 49.796 17.8315 50.279 17.8315C50.245 18.2485 50.213 18.6385 50.182 19.0295C50.723 18.2345 51.346 17.5925 52.459 17.7085C52.35 18.2635 52.252 18.7785 52.143 19.2915Z" fill="black"/>
	<path d="M45.6409 18.9886C44.9449 18.7966 44.0819 19.4306 44.0039 20.2536C44.3769 20.2286 44.7329 20.2246 45.0789 20.1776C45.3099 20.1466 45.5469 20.0746 45.7619 19.9816C45.9919 19.8806 46.1019 19.6716 46.0659 19.4146C46.0319 19.1666 45.8639 19.0486 45.6409 18.9886Z" fill="black"/>
	<path d="M13.3871 19.3608C12.6361 19.9928 12.2971 20.8178 12.3621 21.7958C12.3811 22.0968 12.4951 22.3838 12.8111 22.5128C13.1291 22.6398 13.4181 22.5478 13.6631 22.3388C13.8121 22.2118 13.9511 22.0628 14.0561 21.8998C14.6121 21.0448 14.6261 20.0448 14.8301 19.0758C14.2611 18.9168 13.7871 19.0258 13.3871 19.3608Z" fill="black"/>
	<path d="M27.2981 19.9399C27.2431 19.2669 26.7331 18.9069 26.1101 19.0479C25.8071 19.1169 25.5801 19.3079 25.3981 19.5519C24.9911 20.1039 24.8271 20.7339 24.8081 21.4059C24.8081 21.4969 24.8021 21.5889 24.8091 21.6779C24.8571 22.2899 25.2961 22.6899 25.8731 22.6369C26.1951 22.6069 26.4501 22.4379 26.6441 22.1909C27.1651 21.5309 27.3691 20.7649 27.2981 19.9399Z" fill="black"/>
</svg>
