<svg width="57" height="38" viewBox="0 0 57 38" fill="none" xmlns="http://www.w3.org/2000/svg">
	<rect x="1" y="4" width="54" height="29" fill="white"/>
	<path d="M12.121 15.8608C11.892 15.7108 11.551 15.6348 11.103 15.6348L10.72 15.6368C10.469 15.6348 10.212 15.8368 10.163 16.0808L9.81004 17.6008C9.75504 17.8468 9.91204 18.0478 10.166 18.0478H10.452C11.087 18.0478 11.579 17.9188 11.932 17.6588C12.285 17.4008 12.466 17.0338 12.458 16.5588C12.46 16.2448 12.347 16.0098 12.121 15.8608Z" fill="black"/>
	<path d="M18.3709 19.3643C18.3019 19.3663 17.7729 19.4263 17.5049 19.4593C17.2049 19.5023 16.9449 19.5623 16.7339 19.6333L16.2379 19.9713C16.1219 20.1173 16.0669 20.3033 16.0669 20.5423L16.2929 20.9803C16.4459 21.0663 16.6719 21.1083 16.9599 21.1083C17.1499 21.1083 17.3559 21.0623 17.5719 20.9743L18.0319 20.7373L18.2139 20.4953C18.2859 20.2133 18.4349 19.5863 18.4519 19.5083L18.3709 19.3643Z" fill="black"/>
	<path d="M55.026 0.939453H1.454C0.65 0.939453 0 1.59045 0 2.39345V36.0875C0 36.8905 0.65 37.5425 1.454 37.5425H55.026C55.83 37.5425 56.48 36.8915 56.48 36.0885V2.39345C56.48 1.59045 55.83 0.939453 55.026 0.939453ZM13.484 18.6955C12.688 19.2815 11.58 19.5735 10.148 19.5755H9.814C9.557 19.5755 9.306 19.7775 9.253 20.0195L8.851 21.7575C8.794 22.0055 8.543 22.2035 8.289 22.2035H7.119C6.865 22.2035 6.706 21.9995 6.766 21.7575L8.411 14.5945C8.471 14.3485 8.72 14.1515 8.974 14.1475L11.418 14.1465C11.946 14.1515 12.403 14.1835 12.799 14.2555C13.189 14.3295 13.529 14.4535 13.817 14.6295C14.093 14.8035 14.316 15.0365 14.456 15.3185C14.612 15.6005 14.681 15.9535 14.681 16.3735C14.681 17.3335 14.286 18.1095 13.484 18.6955ZM20.746 17.7815L20.702 18.0825L19.848 21.7745C19.798 21.9965 19.578 22.1855 19.345 22.2125L19.329 22.2185H19.16H18.262H18.241L18.237 22.2145C18.014 22.1935 17.876 22.0045 17.924 21.7765V21.7745L17.926 21.7675L17.97 21.5795L17.964 21.5725L17.523 21.8635L17.043 22.1315L16.477 22.3255C16.303 22.3675 16.058 22.3925 15.742 22.3925C15.243 22.3925 14.825 22.2555 14.509 21.9725C14.195 21.6835 14.033 21.3145 14.033 20.8625C14.033 20.3825 14.144 19.9765 14.367 19.6385C14.598 19.3025 14.928 19.0405 15.374 18.8445C15.789 18.6555 16.288 18.5155 16.858 18.4365C17.44 18.3525 17.92 18.2915 18.585 18.2495L18.753 18.1455L18.774 17.9805C18.774 17.7265 18.656 17.5515 18.421 17.4485C18.183 17.3485 17.825 17.2985 17.357 17.2985C17.039 17.2945 16.639 17.3595 16.26 17.4455C15.863 17.5355 15.754 17.5945 15.56 17.6525C15.47 17.6835 15.253 17.6985 15.334 17.3225L15.477 16.7335C15.477 16.7335 15.547 16.2885 15.992 16.1915C16.207 16.1435 16.241 16.1345 16.592 16.0805C17.067 16.0075 17.537 15.9705 18.008 15.9705C18.961 15.9705 19.659 16.0945 20.1 16.3435C20.543 16.5915 20.769 16.9795 20.767 17.5005L20.746 17.7815ZM22.627 25.0555L21.415 25.0575C21.163 25.0575 21.08 24.8575 21.234 24.6115L22.271 22.8035C22.271 22.8035 22.354 22.7005 22.28 22.1105C22.12 21.0445 21.324 16.5125 21.324 16.5125C21.266 16.2675 21.422 16.0665 21.674 16.0665L22.723 16.0645C23.044 16.0645 23.302 16.2755 23.36 16.5235L23.882 19.6665L24.076 19.6685C24.239 19.3795 25.915 16.5035 25.915 16.5035C26.075 16.2615 26.399 16.0565 26.651 16.0565C26.651 16.0565 27.778 16.0595 28.055 16.0565C28.471 16.0505 28.023 16.7245 28.023 16.7245L23.359 24.6115C23.209 24.8575 22.877 25.0555 22.627 25.0555ZM34.744 18.7265C33.945 19.3095 32.832 19.6045 31.4 19.6045H31.066C30.814 19.6005 30.562 19.8055 30.504 20.0475L30.108 21.7885C30.05 22.0315 29.794 22.2315 29.546 22.2285L28.373 22.2315C28.124 22.2325 27.96 22.0305 28.02 21.7875L29.666 14.6205C29.726 14.3775 29.972 14.1795 30.226 14.1755L32.673 14.1735C33.198 14.1755 33.66 14.2125 34.048 14.2815C34.443 14.3535 34.783 14.4775 35.067 14.6545C35.346 14.8335 35.565 15.0625 35.711 15.3465C35.861 15.6265 35.934 15.9805 35.936 16.4005C35.936 17.3595 35.535 18.1335 34.744 18.7265ZM42.002 17.7865L41.959 18.0895L41.103 21.7785C41.055 22.0015 40.834 22.1905 40.604 22.2185L40.588 22.2245H40.42C40.178 22.2245 39.668 22.2245 39.521 22.2245H39.5L39.498 22.2185C39.271 22.1975 39.131 22.0095 39.186 21.7805L39.184 21.7775L39.189 21.7735L39.228 21.5855L39.221 21.5765L38.783 21.8715L38.3 22.1385L37.735 22.3295C37.561 22.3745 37.315 22.3935 37.002 22.3985C36.502 22.3985 36.088 22.2565 35.77 21.9755C35.454 21.6895 35.291 21.3185 35.291 20.8645C35.291 20.3875 35.402 19.9795 35.626 19.6435C35.855 19.3075 36.19 19.0465 36.632 18.8485C37.05 18.6585 37.552 18.5205 38.119 18.4405C38.697 18.3565 39.177 18.2955 39.847 18.2545L40.015 18.1485L40.033 17.9835C40.033 17.7315 39.917 17.5545 39.679 17.4525C39.441 17.3515 39.083 17.3015 38.617 17.3015C38.297 17.2995 37.896 17.3635 37.518 17.4485C37.123 17.5405 37.016 17.5975 36.823 17.6555C36.725 17.6845 36.514 17.7015 36.594 17.3255L36.737 16.7375C36.737 16.7375 36.804 16.2915 37.251 16.1955C37.468 16.1485 37.503 16.1375 37.853 16.0865C38.325 16.0105 38.798 15.9735 39.269 15.9735C40.218 15.9735 40.915 16.0995 41.36 16.3485C41.806 16.5965 42.029 16.9825 42.029 17.5035L42.002 17.7865ZM45.752 14.6795L44.184 21.7805L44.129 21.8645C44.036 22.0645 43.838 22.2265 43.623 22.2265H42.535L42.515 22.2015C42.308 22.1695 42.173 22.0025 42.222 21.7845L42.22 21.7795L42.267 21.5745L43.733 14.9125L43.785 14.6805L43.844 14.5895C43.939 14.3935 44.133 14.2345 44.348 14.2345H45.395C45.65 14.2345 45.803 14.4335 45.749 14.6775L45.752 14.6795ZM47.83 13.9115H47.438V14.4325L47.441 14.5725L47.468 14.6665L47.53 14.7265L47.65 14.7455L47.748 14.7315L47.821 14.7095H47.83V14.8805L47.713 14.9035L47.602 14.9125L47.336 14.8175L47.245 14.5175V13.9115H47.113V13.7495H47.245V13.4245H47.438V13.7495H47.83V13.9115ZM49.725 14.1505V14.8875H49.536V14.2375L49.524 14.0985L49.499 13.9885L49.433 13.9235L49.306 13.9005L49.147 13.9415L48.984 14.0445L48.987 14.1005L48.989 14.1605V14.8895H48.799V14.2395L48.791 14.0985L48.764 13.9895L48.7 13.9245L48.571 13.9015L48.414 13.9405L48.255 14.0395V14.8895H48.067V13.7505H48.255V13.8775L48.437 13.7615L48.625 13.7195L48.823 13.7665L48.945 13.9025L49.155 13.7615L49.36 13.7195L49.637 13.8325L49.727 14.1505H49.725Z" fill="black"/>
	<path d="M39.6279 19.3701C39.5589 19.3691 39.0319 19.4311 38.7679 19.4651C38.4649 19.5081 38.2059 19.5671 37.9969 19.6391C37.7829 19.7231 37.6089 19.8361 37.4959 19.9771C37.3839 20.1231 37.3279 20.3091 37.3279 20.5491L37.5569 20.9861C37.7029 21.0731 37.9259 21.1151 38.2229 21.1151C38.4099 21.1151 38.6159 21.0691 38.8309 20.9821L39.2879 20.7451L39.4759 20.5031C39.5459 20.2181 39.6979 19.5931 39.7099 19.5151L39.6279 19.3701Z" fill="black"/>
	<path d="M33.3719 15.8881C33.1409 15.7371 32.8049 15.6631 32.3559 15.6611L31.9749 15.6631C31.7229 15.6611 31.4669 15.8651 31.4149 16.1081L31.0609 17.6271C31.0039 17.8711 31.1669 18.0751 31.4199 18.0731H31.7109C32.3439 18.0731 32.8349 17.9431 33.1889 17.6891C33.5389 17.4281 33.7169 17.0641 33.7149 16.5851C33.7089 16.2731 33.5999 16.0381 33.3719 15.8881Z" fill="black"/>
</svg>
