<svg width="57" height="38" viewBox="0 0 57 38" fill="none" xmlns="http://www.w3.org/2000/svg">
	<rect x="1" y="6" width="54" height="29" fill="white"/>
	<path d="M55.026 0.939453H1.454C0.65 0.939453 0 1.59045 0 2.39345V36.0885C0 36.8915 0.65 37.5425 1.454 37.5425H55.026C55.83 37.5425 56.48 36.8915 56.48 36.0885V2.39345C56.48 1.59045 55.83 0.939453 55.026 0.939453ZM4.373 12.0005H10.401C11.214 12.0315 11.869 12.2905 12.095 13.1595L13.406 19.4645C12.118 16.1665 9.014 13.4225 4.323 12.2865L4.373 12.0005ZM11.667 26.3805L8.185 14.4845C10.688 16.0865 12.82 18.6285 13.571 20.3975L13.977 21.8665L17.785 12.1375H21.905L15.782 26.3775L11.667 26.3805ZM24.933 26.3905H21.045L23.476 12.1225H27.366L24.933 26.3905ZM31.699 26.6045C29.956 26.5865 28.277 26.2415 27.367 25.8425L27.914 22.6495L28.415 22.8765C29.692 23.4095 30.519 23.6255 32.076 23.6255C33.193 23.6255 34.39 23.1885 34.401 22.2325C34.408 21.6075 33.9 21.1615 32.386 20.4615C30.91 19.7795 28.956 18.6355 28.98 16.5865C29.001 13.8135 31.709 11.8785 35.552 11.8785C37.058 11.8785 38.265 12.1885 39.035 12.4775L38.51 15.5705L38.159 15.4055C37.443 15.1175 36.522 14.8395 35.249 14.8595C33.727 14.8595 33.021 15.4935 33.021 16.0865C33.013 16.7545 33.845 17.1945 35.205 17.8565C37.448 18.8745 38.485 20.1095 38.471 21.7325C38.441 24.6925 35.788 26.6045 31.699 26.6045ZM48.549 26.3965C48.549 26.3965 48.194 24.7565 48.076 24.2585C47.51 24.2585 43.542 24.2525 43.096 24.2525C42.945 24.6375 42.279 26.3965 42.279 26.3965H38.196L43.969 13.3215C44.379 12.3925 45.074 12.1375 46.006 12.1375H49.01L52.157 26.3955L48.549 26.3965Z" fill="black"/>
	<path d="M46.5421 17.2154L46.2801 15.9854C46.0821 16.5224 45.7411 17.3854 45.7631 17.3474C45.7631 17.3474 44.5341 20.5144 44.2141 21.3354H47.4431C47.2871 20.6204 46.5421 17.2154 46.5421 17.2154Z" fill="black"/>
</svg>
