<svg xmlns="http://www.w3.org/2000/svg" xmlns:xlink="http://www.w3.org/1999/xlink" width="660" height="529" viewBox="0 0 660 529">
  <defs>
    <clipPath id="clip-path">
      <path id="Path_34" data-name="Path 34" d="M169.763,428.231S61.661,382.677,64.171,290.762,168.085,169.974,237.634,226.72s136.6,39.957,172.63-8S470.322,65.666,571.175,106.148c75.173,30.167,125.674,111.186,141.97,184.2,11.209,50.179-5.034,103.189-44.2,136.3-1.275,1.079-2.578,2.144-3.92,3.183Z" transform="translate(-64.128 -97.062)" fill="#f6f9fe"/>
    </clipPath>
  </defs>
  <g id="Image_here" data-name="Image here" transform="translate(-64.128 -2.169)">
    <g id="Layer_1" data-name="Layer 1" transform="translate(64.128 2.169)">
      <path id="Path_32" data-name="Path 32" d="M169.763,428.009S61.661,382.456,64.171,290.54,168.085,184.25,237.634,241.05s136.6,39.9,172.657-8.091S470.322,65.444,571.175,105.927c75.173,30.167,125.674,111.186,141.97,184.2,11.209,50.179-5.034,103.189-44.2,136.3-1.275,1.079-2.578,2.144-3.92,3.183Z" transform="translate(-64.128 26.236)" fill="#ebf2ff"/>
      <g id="Mask_Group_2" data-name="Mask Group 2" transform="translate(0 123.076)" clip-path="url(#clip-path)">
        <path id="Path_33" data-name="Path 33" d="M225.126,250.684S201.433,448.567,349.39,340.361C470.822,251.614,642.915,261.62,646.513,475.47c0,0,62.246,2.7,56.729-105.468S647.962,14.705,504.247,42.458,225.126,250.684,225.126,250.684Z" transform="translate(-9.483 -116.845)" fill="#f6f9fe"/>
      </g>
      <path id="Path_35" data-name="Path 35" d="M256.909,73.86l131.711.553a30.369,30.369,0,0,1,30.167,32.5L397.412,410.331a29.91,29.91,0,0,1-29.829,27.82H233.727a29.9,29.9,0,0,1-29.816-32.122L226.5,101.977A30.355,30.355,0,0,1,256.909,73.86Z" transform="translate(-16.695 17.928)" fill="#f1f2ff"/>
      <path id="Path_36" data-name="Path 36" d="M256.909,73.86l131.711.553a30.369,30.369,0,0,1,30.167,32.5L397.412,410.331a29.91,29.91,0,0,1-29.829,27.82H233.727a29.9,29.9,0,0,1-29.816-32.122L226.5,101.977A30.355,30.355,0,0,1,256.909,73.86Z" transform="translate(-16.695 17.928)" fill="#99c1f9"/>
      <path id="Path_37" data-name="Path 37" d="M245.936,73.86l131.724.553a30.369,30.369,0,0,1,30.167,32.5L386.439,410.331a29.91,29.91,0,0,1-29.829,27.82H222.727a29.9,29.9,0,0,1-29.816-32.122l22.615-304.052A30.382,30.382,0,0,1,245.936,73.86Z" transform="translate(-20.43 17.928)" fill="#d8e7fc"/>
      <path id="Path_38" data-name="Path 38" d="M229.661,94.46H380.278L362.167,383.827l-151.2,1.133Z" transform="translate(-14.148 27.496)" fill="#fff"/>
      <path id="Path_39" data-name="Path 39" d="M265.935,344.54a14.955,14.955,0,1,1,14.955-14.955A14.955,14.955,0,0,1,265.935,344.54Zm0-27.806a12.851,12.851,0,1,0,12.852,12.851,12.851,12.851,0,0,0-12.852-12.851Z" transform="translate(-0.194 102.644)" fill="#99c1f9"/>
      <path id="Path_40" data-name="Path 40" d="M298.11,87.844H272.852a2.562,2.562,0,0,1-2.562-2.562h0a2.562,2.562,0,0,1,2.562-2.562H298.11a2.562,2.562,0,0,1,2.562,2.562h0a2.562,2.562,0,0,1-2.562,2.562Z" transform="translate(6.412 24.9)" fill="#99c1f9"/>
      <path id="Path_41" data-name="Path 41" d="M355.869,161.216H233.611a5.569,5.569,0,0,1-5.569-5.839l1.645-33.16a5.556,5.556,0,0,1,5.556-5.286H357.514a5.556,5.556,0,0,1,5.556,5.839l-1.578,33.16A5.543,5.543,0,0,1,355.869,161.216Z" transform="translate(-8.253 36.283)" fill="#d8e7fc"/>
      <path id="Path_42" data-name="Path 42" d="M299.241,161.324h33.713a5.542,5.542,0,0,0,5.542-5.259l1.659-33.322a5.529,5.529,0,0,0-5.529-5.812H300.913a5.529,5.529,0,0,0-5.529,5.259l-1.672,33.322a5.543,5.543,0,0,0,5.529,5.812Z" transform="translate(14.386 36.282)" fill="#99c1f9"/>
      <path id="Path_43" data-name="Path 43" d="M307.587,125.71H238.043a.836.836,0,1,1,0-1.659h69.544a.836.836,0,1,1,0,1.659Z" transform="translate(-5.02 38.798)" fill="#eef4fd"/>
      <path id="Path_44" data-name="Path 44" d="M307.2,133.939h-69.6a.836.836,0,0,1-.836-.836.823.823,0,0,1,.836-.823h69.6a.823.823,0,0,1,.836.823.836.836,0,0,1-.836.836Z" transform="translate(-5.133 41.566)" fill="#eef4fd"/>
      <path id="Path_45" data-name="Path 45" d="M271.546,142.169H237.213a.829.829,0,0,1,0-1.659h34.361a.823.823,0,0,1,.836.823.836.836,0,0,1-.863.836Z" transform="translate(-5.197 44.332)" fill="#eef4fd"/>
      <path id="Path_46" data-name="Path 46" d="M352.645,207.706h-122.2a5.569,5.569,0,0,1-5.569-5.839l1.645-33.16a5.556,5.556,0,0,1,5.556-5.286H354.344a5.556,5.556,0,0,1,5.556,5.839l-1.645,33.16a5.542,5.542,0,0,1-5.61,5.286Z" transform="translate(-9.333 51.86)" fill="#d8e7fc"/>
      <path id="Path_47" data-name="Path 47" d="M296.041,207.813h33.713a5.542,5.542,0,0,0,5.529-5.259l1.74-33.322a5.529,5.529,0,0,0-5.529-5.812H297.781a5.529,5.529,0,0,0-5.529,5.259l-1.74,33.282a5.529,5.529,0,0,0,5.529,5.853Z" transform="translate(13.291 51.859)" fill="#99c1f9"/>
      <path id="Path_48" data-name="Path 48" d="M304.377,172.2H234.834a.836.836,0,1,1,0-1.659h69.544a.836.836,0,1,1,0,1.659Z" transform="translate(-6.117 54.425)" fill="#eef4fd"/>
      <path id="Path_49" data-name="Path 49" d="M303.94,180.429H234.4a.836.836,0,0,1-.836-.836.823.823,0,0,1,.836-.823H303.94a.822.822,0,0,1,.836.823.836.836,0,0,1-.836.836Z" transform="translate(-6.23 57.193)" fill="#eef4fd"/>
      <path id="Path_50" data-name="Path 50" d="M268.347,188.662h-34.36a.836.836,0,1,1,0-1.672h34.36a.836.836,0,0,1,0,1.672Z" transform="translate(-6.305 59.956)" fill="#eef4fd"/>
      <path id="Path_51" data-name="Path 51" d="M326.969,138.062a13.849,13.849,0,1,1-3.349-10.091A13.849,13.849,0,0,1,326.969,138.062Z" transform="translate(16.347 38.435)" fill="#fff"/>
      <path id="Path_52" data-name="Path 52" d="M309.231,140.127a1.2,1.2,0,0,1-.782-.351L303.8,135.2a1.241,1.241,0,0,1,1.74-1.767l3.857,3.789,8.873-7.147a1.243,1.243,0,0,1,1.551,1.942l-9.723,7.835a1.227,1.227,0,0,1-.863.27Z" transform="translate(17.794 40.709)" fill="#eef4fd"/>
      <path id="Path_53" data-name="Path 53" d="M324.559,184.552a13.863,13.863,0,1,1-3.354-10.087,13.849,13.849,0,0,1,3.354,10.087Z" transform="translate(15.522 54.033)" fill="#fff"/>
      <path id="Path_54" data-name="Path 54" d="M306.828,186.66a1.227,1.227,0,0,1-.8-.351l-4.639-4.571a1.241,1.241,0,0,1,0-1.753,1.254,1.254,0,0,1,1.767,0l3.857,3.8,8.873-7.147a1.243,1.243,0,1,1,1.551,1.942l-9.709,7.741a1.227,1.227,0,0,1-.9.337Z" transform="translate(16.962 56.35)" fill="#eef4fd"/>
      <path id="Path_55" data-name="Path 55" d="M119.806,277.41s-1.767-2.764-6.352-21.226S96.881,220.1,78.231,226.651s-13.323,28.319-4.046,63.462c6.567,25.1-20.228,44.5,15.09,64.069,21.428,11.813,58.634-4.046,51.325-39.782a48.4,48.4,0,0,0-9.062-19.972,132.906,132.906,0,0,1-11.732-17.018Z" transform="translate(-63.57 71.915)" fill="#83b9fd"/>
      <path id="Path_56" data-name="Path 56" d="M98.9,379.231a.8.8,0,0,1-.62-.917c8.5-54.359-14.712-127.4-14.955-128.11a.809.809,0,0,1,1.537-.5c.243.742,23.559,74.169,15,128.879a.809.809,0,0,1-.917.674Z" transform="translate(-57.446 79.033)" fill="#4b8dd9"/>
      <path id="Path_57" data-name="Path 57" d="M89.485,276.313H89.35a.809.809,0,0,1-.445-1.052,107.318,107.318,0,0,0,5.542-18.03.782.782,0,0,1,.93-.647.8.8,0,0,1,.647.93A109.539,109.539,0,0,1,90.4,275.828a.809.809,0,0,1-.917.486Z" transform="translate(-55.513 83.233)" fill="#4b8dd9"/>
      <path id="Path_58" data-name="Path 58" d="M95.705,286.086a.943.943,0,0,1-.31-.148c-4.153-3.21-14.524-9.184-14.632-9.237a.823.823,0,0,1-.3-1.106.809.809,0,0,1,1.106-.3c.432.243,10.572,6.082,14.834,9.359a.809.809,0,0,1,.135,1.133A.8.8,0,0,1,95.705,286.086Z" transform="translate(-58.47 89.544)" fill="#4b8dd9"/>
      <path id="Path_59" data-name="Path 59" d="M93.973,298.363h-.162a.809.809,0,0,1-.391-1.079l5.313-11.368a.809.809,0,1,1,1.456.674l-5.313,11.382A.8.8,0,0,1,93.973,298.363Z" transform="translate(-53.946 92.942)" fill="#4b8dd9"/>
      <path id="Path_60" data-name="Path 60" d="M89.68,135.875l103.446.472a80.641,80.641,0,0,0-5.92-6.23c-4.046-3.506-8.752-9.709-23.707-5.138a34.74,34.74,0,0,0-3.412,1.349c-1.349.566-5.394.58-9.588-2.7-6.635-5.273-9.237-9.251-18.353-9.44-10.586-.148-12.258,13.054-20.484,16.439-5.246,2.158-19.068,4.288-21.941,5.246" transform="translate(-55.222 35.429)" fill="#d7e7fc" opacity="0.4"/>
      <path id="Path_61" data-name="Path 61" d="M316.23,21.562a72.5,72.5,0,0,1,5.219-5.394c3.573-3.075,7.673-8.509,20.781-4.5a29.753,29.753,0,0,1,2.994,1.146c1.146.485,4.733.5,8.4-2.414,5.826-4.625,8.091-8.091,16.088-8.226,9.278-.121,10.788,11.449,17.962,14.416,4.6,1.888,16.708,3.762,19.216,4.6Z" transform="translate(21.962 -2.169)" fill="#d7e7fc" opacity="0.4"/>
      <path id="Path_62" data-name="Path 62" d="M435.89,71.452a127.935,127.935,0,0,1,9.17-9.548c6.284-5.394,13.485-14.942,36.5-7.9a53.7,53.7,0,0,1,5.246,2c2.023.863,8.307.89,14.753-4.221,10.222-8.091,14.227-14.254,28.319-14.456,16.3-.216,18.88,20.12,31.542,25.325,8.091,3.3,29.357,6.594,33.713,8.091Z" transform="translate(62.454 10.081)" fill="#d7e7fc" opacity="0.4"/>
      <path id="Path_63" data-name="Path 63" d="M209.645,80.9A20.457,20.457,0,0,0,193.895,47.34H149.488a20.5,20.5,0,0,0,0,41h44.407a20.228,20.228,0,0,0,9.143-2.2L213.3,91.774Z" transform="translate(-41.522 13.574)" fill="#3f71e2"/>
      <path id="Path_64" data-name="Path 64" d="M168.71,63.694a4.464,4.464,0,1,0,4.437-4.464A4.464,4.464,0,0,0,168.71,63.694Z" transform="translate(-28.322 17.718)" fill="#fff"/>
      <path id="Path_65" data-name="Path 65" d="M157.35,63.694a4.464,4.464,0,1,0,4.464-4.464A4.464,4.464,0,0,0,157.35,63.694Z" transform="translate(-32.212 17.718)" fill="#fff"/>
      <path id="Path_66" data-name="Path 66" d="M146,63.694a4.464,4.464,0,1,0,4.464-4.464A4.464,4.464,0,0,0,146,63.694Z" transform="translate(-35.593 17.718)" fill="#fff"/>
      <path id="Path_67" data-name="Path 67" d="M476.113,370.618c-1.416.081-37-4.194-38.622-37.3s21.064-41.292,15.09-78.215S431,207.662,466.067,180.759c0,0,15.643-10.788,16.385-26.013.863-18.192,32.257-39.3,53.321-27.159s16.1,30.868-1.928,61.2-.647,35.628,2.8,45.432,11.5,20.093-6.891,43.53,3.52,52.04-12.137,74.479C517.594,352.292,503.852,368.905,476.113,370.618Z" transform="translate(62.983 37.497)" fill="#5ed291"/>
      <path id="Path_68" data-name="Path 68" d="M472.09,407.527A1.483,1.483,0,0,0,473.2,405.8c-19.122-101.045,19.864-238.838,20.228-240.227a1.5,1.5,0,1,0-2.886-.823c-.4,1.349-39.579,139.869-20.322,241.6a1.51,1.51,0,0,0,1.753,1.2Z" transform="translate(72.563 49.226)" fill="#e2e2e2"/>
      <path id="Path_69" data-name="Path 69" d="M479.574,214.633a.864.864,0,0,0,.243-.081,1.51,1.51,0,0,0,.769-1.982c-.081-.189-8.091-18.043-11.287-33.282a1.5,1.5,0,1,0-2.94.62c3.317,15.562,11.4,33.713,11.476,33.889a1.5,1.5,0,0,0,1.74.836Z" transform="translate(73.062 56.814)" fill="#e2e2e2"/>
      <path id="Path_70" data-name="Path 70" d="M472.826,233.341a1.484,1.484,0,0,0,.58-.3c7.565-6.257,26.566-18.016,26.755-18.138a1.5,1.5,0,0,0-1.578-2.549c-.782.485-19.365,11.988-27.092,18.367a1.51,1.51,0,0,0-.2,2.117,1.537,1.537,0,0,0,1.537.5Z" transform="translate(74.672 68.309)" fill="#e2e2e2"/>
      <path id="Path_71" data-name="Path 71" d="M472.418,256.127a1.238,1.238,0,0,0,.31-.121A1.5,1.5,0,0,0,473.4,254l-10.654-20.929a1.51,1.51,0,1,0-2.7,1.349l10.6,20.916A1.483,1.483,0,0,0,472.418,256.127Z" transform="translate(70.805 75.011)" fill="#e2e2e2"/>
      <path id="Path_72" data-name="Path 72" d="M533.621,344.868c-1.349,1.025-13.243-20.552-16.021-47.994,0,0-1.348-13.485,11.463-6.621,0,0-13.243-59.012,22.049-54.6,6.082.755,9.547,2.117,13.054,5.96,4.733,5.192,7.349,13.593,1.753,25.622-11.193,24.139-21.024,33.511-16.182,46.295S552.892,330.007,533.621,344.868Z" transform="translate(90.918 75.5)" fill="#83b9fd"/>
      <path id="Path_73" data-name="Path 73" d="M533.117,374.247a1.349,1.349,0,0,0,1.011-1.524c-8.091-39.66,3.574-106.534,5.057-109.406a1.268,1.268,0,0,0-.31-1.78,1.348,1.348,0,0,0-1.834.337c-2.414,3.358-13.337,72.82-5.394,111.361a1.268,1.268,0,0,0,1.47,1.011Z" transform="translate(94.834 83.261)" fill="#4b8dd9"/>
      <path id="Path_74" data-name="Path 74" d="M375.592,251.579l-4.652,18.488,55.856,2.994-1.888-23.181Z" transform="translate(40.769 80.967)" fill="#c7d6f0"/>
      <path id="Path_75" data-name="Path 75" d="M401.646,260.07,385.4,314.955l.324,82.934-19.837.4L362.04,313.7l13.283-52.175Z" transform="translate(37.777 82.827)" fill="#c7d6f0"/>
      <path id="Path_76" data-name="Path 76" d="M393.018,266.177,380.14,264.95l9.453,12.784Z" transform="translate(44.053 86.092)" fill="#c7d6f0" opacity="0.44"/>
      <path id="Path_77" data-name="Path 77" d="M418.906,265.723l3.749,51.5,15.7,85.011-19.621,4.032-18.96-86.724-6.54-59.4Z" transform="translate(48.427 82.851)" fill="#c7d6f0"/>
      <path id="Path_78" data-name="Path 78" d="M374.155,362.411l10.788-.081.283,15.481-30.706.2h0a5.461,5.461,0,0,1,4.221-4.922l15.211-3.722Z" transform="translate(35.231 118.467)" fill="#294c8c"/>
      <rect id="Rectangle_28" data-name="Rectangle 28" width="30.706" height="2.387" transform="translate(389.78 496.457) rotate(-0.38)" fill="#2a4c8a"/>
      <path id="Path_79" data-name="Path 79" d="M375.9,367.733a2.36,2.36,0,1,1-2.373-2.333,2.36,2.36,0,0,1,2.373,2.333Z" transform="translate(41.009 119.537)" fill="#fff"/>
      <path id="Path_80" data-name="Path 80" d="M420.88,367.279l10.707-1.429,2.212,15.319-30.436,4.046h0a5.394,5.394,0,0,1,3.574-5.394l14.618-5.583Z" transform="translate(51.941 119.694)" fill="#294c8c"/>
      <rect id="Rectangle_29" data-name="Rectangle 29" width="30.706" height="2.387" transform="translate(455.302 504.879) rotate(-7.55)" fill="#2a4c8a"/>
      <path id="Path_81" data-name="Path 81" d="M423.715,371.453a2.374,2.374,0,1,1-.923-1.582,2.36,2.36,0,0,1,.923,1.582Z" transform="translate(57.387 120.929)" fill="#fff"/>
      <path id="Path_82" data-name="Path 82" d="M370.856,242.122a5.785,5.785,0,0,1-.661,0l-50.435-7.5,2.454-16.479,45.189,6.743a350.959,350.959,0,0,1,22.723-29.668c-.108.2.5.728,0,0l15.886,1.645c.715,4.046-2.778,4.046-27.631,41.589A8.32,8.32,0,0,1,370.856,242.122Z" transform="translate(23.181 62.5)" fill="#dfebff"/>
      <path id="Path_83" data-name="Path 83" d="M401.574,192l1.632.27a18.192,18.192,0,0,1,14.753,13.661L429.5,271.684c-24.543,13.377-55.6.135-55.6.135L367.942,210.5a15.993,15.993,0,0,1,8.792-16.317h0Z" transform="translate(39.682 61.2)" fill="#dfebff"/>
      <path id="Path_84" data-name="Path 84" d="M392.312,204.746,378.49,203.6l2.252-31.38,13.822,1.16Z" transform="translate(43.478 54.862)" fill="#ebb28b"/>
      <path id="Path_85" data-name="Path 85" d="M376.122,193.948,397.24,192.1s-.162,12.339-12.892,12.137C372.684,204.1,376.122,193.948,376.122,193.948Z" transform="translate(42.489 61.627)" fill="#ebb28b"/>
      <path id="Path_86" data-name="Path 86" d="M324.956,220.962a8.954,8.954,0,1,1-7.336-10.33A8.954,8.954,0,0,1,324.956,220.962Z" transform="translate(19.062 67.78)" fill="#fff"/>
      <path id="Path_87" data-name="Path 87" d="M327.327,224.925l-9.184-1.564a4.437,4.437,0,0,1-3.628-5.1h0a4.437,4.437,0,0,1,5.1-3.628l9.2,1.564a4.41,4.41,0,0,1,3.614,5.1h0A4.437,4.437,0,0,1,327.327,224.925Z" transform="translate(21.554 69.185)" fill="#fff"/>
      <circle id="Ellipse_4" data-name="Ellipse 4" cx="25.757" cy="25.757" r="25.757" transform="translate(309.548 306.46) rotate(-64)" fill="#3d8bff"/>
      <path id="Path_88" data-name="Path 88" d="M319.792,234.963a2.279,2.279,0,0,1-1.456-.661l-8.658-8.509a2.312,2.312,0,1,1,3.25-3.29l7.174,7.053,16.506-13.283a2.311,2.311,0,1,1,2.9,3.6L321.4,234.45a2.279,2.279,0,0,1-1.6.512Z" transform="translate(19.651 69.537)" fill="#fff"/>
      <path id="Path_89" data-name="Path 89" d="M380.742,198.046h0a17.032,17.032,0,0,1-15.832-18.165l1.483-21.131L400.4,161.1l-1.47,21.131a17.018,17.018,0,0,1-18.192,15.818Z" transform="translate(38.758 50.316)" fill="#f0bc99"/>
      <path id="Path_90" data-name="Path 90" d="M399.871,180.351l-4.855-.243a2.1,2.1,0,0,1-1.942-2.6c.85-3.466,1.955-9.44-.283-10.289-3.182-1.227-20.781,2.266-26.417-2.589-7.956-6.824-1.349-16.6,6.176-16.587s5.907,8.644,14.672,8.995,22.237-2.225,15.13,20.619Z" transform="translate(38.018 46.753)" fill="#26447e"/>
      <path id="Path_91" data-name="Path 91" d="M397.456,174.479a5.394,5.394,0,1,1-4.963-5.7A5.394,5.394,0,0,1,397.456,174.479Z" transform="translate(46.297 53.792)" fill="#f0bc99"/>
      <path id="Path_92" data-name="Path 92" d="M350.04,237.073a8.968,8.968,0,1,1-8.32-9.548,8.968,8.968,0,0,1,8.32,9.548Z" transform="translate(27.602 73.486)" fill="#3d8bff"/>
      <path id="Path_93" data-name="Path 93" d="M352.9,240.645,343.606,240a4.437,4.437,0,0,1-4.113-4.72h0a4.45,4.45,0,0,1,4.72-4.046l9.3.647a4.437,4.437,0,0,1,4.046,4.72h0a4.437,4.437,0,0,1-4.666,4.046Z" transform="translate(30.121 74.783)" fill="#3d8bff"/>
      <path id="Path_94" data-name="Path 94" d="M345.67,255.948V239.28H391.6l15.791-37.462a8.32,8.32,0,0,1,11.031-4.113h0a8.32,8.32,0,0,1,4.126,11.031L404.533,251.08a8.347,8.347,0,0,1-7.592,4.882Z" transform="translate(32.06 63.013)" fill="#dfebff"/>
      <rect id="Rectangle_30" data-name="Rectangle 30" width="24.867" height="8.671" transform="translate(401.137 472.464)" fill="#3d8bff"/>
      <rect id="Rectangle_31" data-name="Rectangle 31" width="24.867" height="8.671" transform="translate(463.332 481.625) rotate(-11.09)" fill="#3d8bff"/>
      <path id="Path_95" data-name="Path 95" d="M371.3,252.085h14.834a11.382,11.382,0,0,0,9.6-6.581l16.492-37.314c-6.392,21.765-14.834,43.935-14.834,43.935a6.932,6.932,0,0,1-6.743,4.558l-18.987-.755Z" transform="translate(40.941 66.836)" fill="#ccd9f8"/>
      <rect id="Rectangle_32" data-name="Rectangle 32" width="121.489" height="40.334" rx="1.93" transform="translate(201.398 321.793) rotate(-7.55)" fill="#99c1f9"/>
      <rect id="Rectangle_33" data-name="Rectangle 33" width="121.489" height="40.334" rx="1.93" transform="translate(193.61 308.724) rotate(-7.55)" fill="#d8e7fc"/>
      <path id="Path_96" data-name="Path 96" d="M217.507,242.4a.769.769,0,0,1-.755-.661.755.755,0,0,1,.647-.85l62.787-8.334a.728.728,0,0,1,.85.661.755.755,0,0,1-.647.85l-62.788,8.32Z" transform="translate(-11.964 75.224)" fill="#eef4fd"/>
      <path id="Path_97" data-name="Path 97" d="M218.474,249.807a.755.755,0,0,1-.094-1.5L281.154,240a.728.728,0,0,1,.85.647.742.742,0,0,1-.647.85l-62.774,8.334Z" transform="translate(-11.616 77.726)" fill="#eef4fd"/>
      <path id="Path_98" data-name="Path 98" d="M219.477,256.167a.769.769,0,0,1-.755-.661.755.755,0,0,1,.647-.85l31.016-4.153a.728.728,0,0,1,.85.647.755.755,0,0,1-.647.85l-31.016,4.154Z" transform="translate(-11.238 81.278)" fill="#eef4fd"/>
      <path id="Path_99" data-name="Path 99" d="M188.677,355.192l-9.844-.742-1.443,16.182,28.022,2.212.162-2.171a5.03,5.03,0,0,0-3.547-4.76l-13.62-4.342Z" transform="translate(-25.372 115.721)" fill="#294c8c"/>
      <path id="Path_100" data-name="Path 100" d="M95.713,353.167l-.971-9.817L78.56,344.7l2.7,27.968,2.171-.216a4.99,4.99,0,0,0,4.046-4.315l1.915-14.16Z" transform="translate(-59.098 111.852)" fill="#294c8c"/>
      <path id="Path_101" data-name="Path 101" d="M132.837,298.618l17.827,57.488L88.47,359.814l1.847,14.834,75.841-2.549c6.743-.216,11.84-5.394,10.465-13.2l-4.248-42.708,40.092-.62-6.931,63.381,17.275.607,16.937-71.243a14.119,14.119,0,0,0-13.391-17.383l-40.793-1.011Z" transform="translate(-55.644 93.231)" fill="#c7d6f0"/>
      <path id="Path_102" data-name="Path 102" d="M140.35,255.029l15.333,3.25,6.5-32.527L147,222.57Z" transform="translate(-37.563 71.729)" fill="#ebb28b"/>
      <path id="Path_103" data-name="Path 103" d="M152.53,247.366h0a15.859,15.859,0,0,0,18.785-12.285l4.046-19.311-31.016-6.5L140.3,228.581a15.859,15.859,0,0,0,12.231,18.785Z" transform="translate(-38.187 67.255)" fill="#f0bc99"/>
      <path id="Path_104" data-name="Path 104" d="M165.851,223.507l-2.967,14.2a10.222,10.222,0,0,1-11.854,8.239l-2.8-.593c-9.359-1.955-15.265-11.584-13.189-21.5l2.7-12.838,29.2,6.122Z" transform="translate(-39.559 67.86)" fill="#26447e"/>
      <path id="Path_105" data-name="Path 105" d="M157,222.13a64.39,64.39,0,0,0,11.881,2c6,.081,9.709-6.743,5.974-11.476a7.379,7.379,0,0,0-.539-.62c-4.558-4.976-12.541-2.495-12.5-2S157,222.13,157,222.13Z" transform="translate(-32.341 67.279)" fill="#26447e"/>
      <path id="Path_106" data-name="Path 106" d="M173.435,215.2s-8.927-13.108-24.368-9.251c0,0-5.92-.31-12.137,7.08L162.9,225.4Z" transform="translate(-38.754 66.001)" fill="#26447e"/>
      <path id="Path_107" data-name="Path 107" d="M153.085,225.9a4.639,4.639,0,1,0,2-2.943A4.639,4.639,0,0,0,153.085,225.9Z" transform="translate(-33.158 71.751)" fill="#f0bc99"/>
      <path id="Path_108" data-name="Path 108" d="M155.677,209.023a15,15,0,1,1-2.129-11.291A15.009,15.009,0,0,1,155.677,209.023Z" transform="translate(-42.573 61.153)" fill="#26447e"/>
      <path id="Path_109" data-name="Path 109" d="M175.81,306.435c-5.718-9.3-2.994-30.8-.647-43.692a15.71,15.71,0,0,0-7.188-16.182h0l-17.76-5.259c-4.4-1.524-10.154,3.587-13.3,7.039C108.91,279.114,119.7,318.316,119.7,318.316a86.52,86.52,0,0,0,27.712,1.429H148A48.547,48.547,0,0,0,175.81,306.435Z" transform="translate(-45.472 77.615)" fill="#dfebff"/>
      <path id="Path_110" data-name="Path 110" d="M210.73,256.135a9.6,9.6,0,1,0,2.158-13.4A9.6,9.6,0,0,0,210.73,256.135Z" transform="translate(-14.573 77.98)" fill="#3d8bff"/>
      <path id="Path_111" data-name="Path 111" d="M210.6,261.49l8.091-5.853a4.747,4.747,0,0,0,1.052-6.621h0a4.76,4.76,0,0,0-6.621-1.065l-8.091,5.853a4.76,4.76,0,0,0-1.065,6.621h0A4.76,4.76,0,0,0,210.6,261.49Z" transform="translate(-16.571 80.068)" fill="#3d8bff"/>
      <path id="Path_112" data-name="Path 112" d="M237.052,262.337l-9.44-15.144-41.737,26.081L159.7,246.614a8.927,8.927,0,0,0-12.366,2.508h0A8.941,8.941,0,0,0,149.83,261.5l31.016,29.83a8.968,8.968,0,0,0,9.669.135Z" transform="translate(-36.223 79.214)" fill="#dfebff"/>
      <path id="Path_113" data-name="Path 113" d="M150.69,311.81l16.816-9.44-.9,4.369,24.179,4.45Z" transform="translate(-34.519 98.685)" fill="#3f71e2" opacity="0.44"/>
      <path id="Path_114" data-name="Path 114" d="M428.184,133.616l-1.349-4.046-1.349,4.046a13.876,13.876,0,0,1-7.727,7.862h0a13.9,13.9,0,0,1,7.727,7.875l1.349,3.978,1.349-3.978a13.9,13.9,0,0,1,7.727-7.875h0A13.877,13.877,0,0,1,428.184,133.616Z" transform="translate(56.913 40.587)" fill="#fff"/>
      <path id="Path_115" data-name="Path 115" d="M117.9,219.027l-.917-2.7-.917,2.7a9.237,9.237,0,0,1-5.1,5.192h0a9.238,9.238,0,0,1,5.1,5.192l.917,2.63.917-2.63a9.2,9.2,0,0,1,5.1-5.192h0A9.2,9.2,0,0,1,117.9,219.027Z" transform="translate(-47.802 69.747)" fill="#fff"/>
      <path id="Path_116" data-name="Path 116" d="M217.56,395.581l3.4,6.554,38.986,1,7.943-21.738-3.29-6.325Z" transform="translate(-11.662 122.908)" fill="#b2bad9"/>
      <path id="Path_117" data-name="Path 117" d="M225.419,404.043l34.05,1.348c2.98.108,5.475-1.2,5.677-2.994l2.252-20.228c.216-1.915-2.279-3.628-5.475-3.749l-34.05-1.349c-2.98-.121-5.475,1.2-5.677,2.994l-2.252,20.228C219.7,402.209,222.2,403.948,225.419,404.043Z" transform="translate(-10.847 123.603)" fill="#99c1f9"/>
      <path id="Path_118" data-name="Path 118" d="M222.961,399.336l34.05,1.349c2.98.121,5.475-1.2,5.677-2.994l2.252-20.228c.216-1.928-2.279-3.641-5.475-3.762L225.4,372.352c-2.967-.108-5.394,1.214-5.664,2.994l-2.266,20.228C217.271,397.5,219.765,399.214,222.961,399.336Z" transform="translate(-11.691 121.958)" fill="#d8e7fc"/>
    </g>
  </g>
</svg>
